<?xml version="1.0" encoding="UTF-8" standalone="no"?>
<!-- Created with Inkscape (http://www.inkscape.org/) -->

<svg
   xmlns:dc="http://purl.org/dc/elements/1.1/"
   xmlns:cc="http://creativecommons.org/ns#"
   xmlns:rdf="http://www.w3.org/1999/02/22-rdf-syntax-ns#"
   xmlns:svg="http://www.w3.org/2000/svg"
   xmlns="http://www.w3.org/2000/svg"
   xmlns:sodipodi="http://sodipodi.sourceforge.net/DTD/sodipodi-0.dtd"
   xmlns:inkscape="http://www.inkscape.org/namespaces/inkscape"
   width="1264.3541"
   height="864.50867"
   id="svg10632"
   version="1.1"
   inkscape:version="0.92.4 5da689c313, 2019-01-14"
   sodipodi:docname="gradient.svg"
   inkscape:export-filename="/home/vitay/Teaching/MaschinellesLernen/Lectures/02-LinearLearningMachines/img/gradient.png"
   inkscape:export-xdpi="90"
   inkscape:export-ydpi="90">
  <sodipodi:namedview
     id="base"
     pagecolor="#ffffff"
     bordercolor="#666666"
     borderopacity="1.0"
     inkscape:pageopacity="0.0"
     inkscape:pageshadow="2"
     inkscape:zoom="0.49497475"
     inkscape:cx="12.418278"
     inkscape:cy="429.69615"
     inkscape:document-units="px"
     inkscape:current-layer="g1073"
     showgrid="false"
     inkscape:window-width="1920"
     inkscape:window-height="1016"
     inkscape:window-x="0"
     inkscape:window-y="0"
     inkscape:window-maximized="1"
     fit-margin-top="0"
     fit-margin-left="0"
     fit-margin-right="0"
     fit-margin-bottom="0" />
  <defs
     id="defs10634">
    <marker
       style="overflow:visible"
       id="Arrow1Mend-16"
       refX="0"
       refY="0"
       orient="auto"
       inkscape:stockid="Arrow1Mend">
      <path
         transform="matrix(-0.4,0,0,-0.4,-4,0)"
         style="fill-rule:evenodd;stroke:#000000;stroke-width:1.00000003pt"
         d="M 0,0 5,-5 -12.5,0 5,5 Z"
         id="path7478-4"
         inkscape:connector-curvature="0" />
    </marker>
    <marker
       style="overflow:visible"
       id="marker10626"
       refX="0"
       refY="0"
       orient="auto"
       inkscape:stockid="Arrow1Mend">
      <path
         transform="matrix(-0.4,0,0,-0.4,-4,0)"
         style="fill-rule:evenodd;stroke:#000000;stroke-width:1.00000003pt"
         d="M 0,0 5,-5 -12.5,0 5,5 Z"
         id="path10628"
         inkscape:connector-curvature="0" />
    </marker>
    <marker
       style="overflow:visible"
       id="marker10626-3"
       refX="0"
       refY="0"
       orient="auto"
       inkscape:stockid="Arrow1Mend">
      <path
         transform="matrix(-0.4,0,0,-0.4,-4,0)"
         style="fill-rule:evenodd;stroke:#000000;stroke-width:1.00000003pt"
         d="M 0,0 5,-5 -12.5,0 5,5 Z"
         id="path10628-4"
         inkscape:connector-curvature="0" />
    </marker>
  </defs>
  <metadata
     id="metadata10637">
    <rdf:RDF>
      <cc:Work
         rdf:about="">
        <dc:format>image/svg+xml</dc:format>
        <dc:type
           rdf:resource="http://purl.org/dc/dcmitype/StillImage" />
        <dc:title />
      </cc:Work>
    </rdf:RDF>
  </metadata>
  <g
     inkscape:label="Layer 1"
     inkscape:groupmode="layer"
     id="layer1"
     transform="translate(44.435881,-5.8246664)">
    <path
       sodipodi:nodetypes="cc"
       inkscape:connector-curvature="0"
       id="path6953"
       d="M 12.035763,551.75501 1212.0357,558.89786"
       style="fill:none;stroke:#000000;stroke-width:4;stroke-linecap:butt;stroke-linejoin:miter;stroke-miterlimit:4;stroke-dasharray:none;stroke-opacity:1;marker-end:url(#Arrow1Mend-16)" />
    <path
       sodipodi:nodetypes="cc"
       inkscape:connector-curvature="0"
       id="path7463"
       d="M 313.46433,870.32644 310.60718,38.897882"
       style="fill:none;stroke:#000000;stroke-width:4;stroke-linecap:butt;stroke-linejoin:miter;stroke-miterlimit:4;stroke-dasharray:none;stroke-opacity:1;marker-end:url(#Arrow1Mend-16)" />
    <path
       style="fill:none;stroke:#000000;stroke-width:6;stroke-linecap:butt;stroke-linejoin:miter;stroke-miterlimit:4;stroke-dasharray:none;stroke-opacity:1"
       d="M -41.714287,448.07647 C 166.55499,897.18405 638.40867,957.78867 991.34446,44.305601"
       id="path10657"
       inkscape:connector-curvature="0"
       sodipodi:nodetypes="cc" />
    <path
       style="fill:none;stroke:#000000;stroke-width:8;stroke-linecap:butt;stroke-linejoin:miter;stroke-miterlimit:4;stroke-dasharray:8, 8;stroke-dashoffset:0;stroke-opacity:1"
       d="m 356.0435,763.79075 2.85714,-211.42857"
       id="path11179"
       inkscape:connector-curvature="0" />
    <path
       style="fill:none;stroke:#000000;stroke-width:5.69999981;stroke-linecap:butt;stroke-linejoin:miter;stroke-miterlimit:4;stroke-dasharray:none;stroke-opacity:1;marker-end:url(#marker10626)"
       d="M 834.28574,382.36219 1044.2611,15.573168"
       id="path11181"
       inkscape:connector-curvature="0"
       sodipodi:nodetypes="cc" />
    <path
       style="fill:none;stroke:#000000;stroke-width:8;stroke-linecap:butt;stroke-linejoin:miter;stroke-miterlimit:4;stroke-dasharray:8, 8;stroke-dashoffset:0;stroke-opacity:1"
       d="M 838.57143,549.50504 835.71429,373.79075"
       id="path11179-4"
       inkscape:connector-curvature="0"
       sodipodi:nodetypes="cc" />
    <path
       style="fill:none;stroke:#000000;stroke-width:8;stroke-linecap:butt;stroke-linejoin:miter;stroke-miterlimit:4;stroke-dasharray:8, 8;stroke-dashoffset:0;stroke-opacity:1"
       d="M 654.2857,690.93362 652.85713,555.21933"
       id="path11179-4-4"
       inkscape:connector-curvature="0"
       sodipodi:nodetypes="cc" />
    <text
       id="text11450"
       y="420.67111"
       x="318.36841"
       style="font-style:normal;font-weight:bold;line-height:0%;font-family:sans-serif;-inkscape-font-specification:'Sans Bold';letter-spacing:0px;word-spacing:0px;fill:#000000;fill-opacity:1;stroke:none"
       xml:space="preserve"><tspan
         style="font-weight:normal;font-size:36px;line-height:1.25;font-family:sans-serif;-inkscape-font-specification:Sans"
         y="420.67111"
         x="318.36841"
         id="tspan11452"
         sodipodi:role="line">minimum</tspan></text>
    <text
       id="text11450-8"
       y="597.3996"
       x="787.34656"
       style="font-style:normal;font-weight:bold;line-height:0%;font-family:sans-serif;-inkscape-font-specification:'Sans Bold';letter-spacing:0px;word-spacing:0px;fill:#000000;fill-opacity:1;stroke:none"
       xml:space="preserve"><tspan
         style="font-weight:normal;font-size:36px;line-height:1.25;font-family:sans-serif;-inkscape-font-specification:Sans"
         y="597.3996"
         x="787.34656"
         id="tspan11452-3"
         sodipodi:role="line">initial</tspan><tspan
         id="tspan11598"
         style="font-weight:normal;font-size:36px;line-height:1.25;font-family:sans-serif;-inkscape-font-specification:Sans"
         y="642.3996"
         x="787.34656"
         sodipodi:role="line">value</tspan></text>
    <text
       id="text11450-8-7"
       y="377.97385"
       x="619.12646"
       style="font-style:normal;font-weight:bold;line-height:0%;font-family:sans-serif;-inkscape-font-specification:'Sans Bold';letter-spacing:0px;word-spacing:0px;fill:#000000;fill-opacity:1;stroke:none"
       xml:space="preserve"><tspan
         style="font-weight:normal;font-size:36px;line-height:1.25;font-family:sans-serif;-inkscape-font-specification:Sans"
         y="377.97385"
         x="619.12646"
         id="tspan11452-3-7"
         sodipodi:role="line">new</tspan><tspan
         id="tspan11598-7"
         style="font-weight:normal;font-size:36px;line-height:1.25;font-family:sans-serif;-inkscape-font-specification:Sans"
         y="422.97385"
         x="619.12646"
         sodipodi:role="line">value</tspan></text>
    <text
       id="text11450-0"
       y="272.13345"
       x="924.48938"
       style="font-style:normal;font-weight:bold;line-height:0%;font-family:sans-serif;-inkscape-font-specification:'Sans Bold';letter-spacing:0px;word-spacing:0px;fill:#000000;fill-opacity:1;stroke:none"
       xml:space="preserve"><tspan
         id="tspan897"
         style="font-weight:normal;font-size:36px;line-height:1.25;font-family:sans-serif;-inkscape-font-specification:Sans"
         y="272.13345"
         x="924.48938"
         sodipodi:role="line">derivative of </tspan><tspan
         style="font-weight:normal;font-size:36px;line-height:1.25;font-family:sans-serif;-inkscape-font-specification:Sans"
         y="317.13345"
         x="924.48938"
         sodipodi:role="line"
         id="tspan11937">the function</tspan></text>
    <path
       style="fill:none;stroke:#000000;stroke-width:5.69999981;stroke-linecap:butt;stroke-linejoin:miter;stroke-miterlimit:4;stroke-dasharray:none;stroke-opacity:1;marker-end:url(#marker10626)"
       d="M 831.48309,382.71898 658.62594,685.57612"
       id="path11181-6"
       inkscape:connector-curvature="0"
       sodipodi:nodetypes="cc" />
    <text
       id="text12095"
       y="492.73767"
       x="440.42651"
       style="font-style:normal;font-weight:bold;line-height:0%;font-family:sans-serif;-inkscape-font-specification:'Sans Bold';letter-spacing:0px;word-spacing:0px;fill:#000000;fill-opacity:1;stroke:none"
       xml:space="preserve"><tspan
         style="font-size:48px;line-height:1.25;font-family:sans-serif"
         y="492.73767"
         x="440.42651"
         id="tspan12097"
         sodipodi:role="line">...</tspan></text>
    <g
       id="g974"
       transform="translate(14.142136,56.568542)">
      <g
         word-spacing="normal"
         letter-spacing="normal"
         font-size-adjust="none"
         font-stretch="normal"
         font-weight="normal"
         font-variant="normal"
         font-style="normal"
         stroke-miterlimit="10.433"
         xml:space="preserve"
         transform="matrix(1.2350124,0,0,-1.2350124,-216.12717,948.26557)"
         id="content"
         style="font-style:normal;font-variant:normal;font-weight:normal;font-stretch:normal;letter-spacing:normal;word-spacing:normal;text-anchor:start;fill:none;fill-opacity:1;fill-rule:evenodd;stroke:#000000;stroke-linecap:butt;stroke-linejoin:miter;stroke-miterlimit:10.43299961;stroke-dasharray:none;stroke-dashoffset:0;stroke-opacity:1"><path
           id="path969"
           d="m 478.19,431.11 v 0.31 l -0.01,0.34 -0.02,0.36 -0.02,0.37 -0.03,0.39 -0.04,0.39 -0.04,0.41 -0.06,0.41 -0.07,0.42 -0.07,0.43 -0.09,0.42 -0.1,0.43 -0.12,0.42 -0.12,0.42 -0.14,0.41 -0.16,0.41 -0.17,0.4 -0.18,0.38 -0.2,0.37 -0.22,0.36 -0.23,0.34 -0.25,0.32 -0.28,0.3 -0.29,0.27 -0.31,0.25 -0.16,0.12 -0.17,0.1 -0.17,0.1 -0.18,0.1 -0.18,0.08 -0.19,0.08 -0.19,0.07 -0.2,0.06 -0.21,0.05 -0.21,0.05 -0.22,0.03 -0.22,0.02 -0.23,0.02 h -0.23 l -0.05,-1.09 c 2.44,0 2.73,-3.19 2.73,-6.03 0,-2.44 -0.39,-4.99 -1.59,-9.92 h -10.41 c 0.85,3.2 1.85,7.18 3.83,10.72 1.36,2.43 3.19,5.23 5.44,5.23 l 0.05,1.09 c -6.92,0 -14.6,-14.04 -14.6,-25.45 0,-4.69 1.44,-10.22 5.99,-10.22 v 1.1 c -1.66,0 -2.71,1.45 -2.71,6.07 0,2.1 0.3,4.99 1.6,9.86 h 10.37 c -0.54,-2.28 -1.59,-6.51 -3.5,-10.11 -1.73,-3.39 -3.62,-5.82 -5.76,-5.82 v -1.1 c 7.01,0 14.59,14.3 14.59,25.46 z"
           inkscape:connector-curvature="0"
           style="fill:#000000;stroke-width:0" /><path
           id="path971"
           d="m 491.61,432.87 0.26,0.12 0.26,0.11 0.24,0.11 0.24,0.1 0.23,0.1 0.22,0.1 0.21,0.09 0.21,0.09 0.2,0.08 0.19,0.08 0.18,0.08 0.18,0.07 0.17,0.08 0.16,0.06 0.16,0.07 0.15,0.06 0.14,0.06 0.14,0.06 0.14,0.06 0.12,0.05 0.13,0.06 0.12,0.05 0.11,0.05 0.11,0.04 0.11,0.05 0.1,0.04 0.19,0.09 0.18,0.08 0.16,0.08 c 0.68,0.27 0.99,0.41 0.99,1.08 0,0.59 -0.45,1.11 -1.08,1.11 -0.25,0 -0.31,0 -0.73,-0.31 l -4.74,-3.17 0.52,5.15 c 0.08,0.63 0,1.5 -1.05,1.5 -0.42,0 -1.08,-0.28 -1.08,-1.04 0,-0.32 0.14,-1.36 0.17,-1.71 0.08,-0.59 0.32,-3.11 0.4,-3.9 l -4.71,3.17 c -0.36,0.2 -0.45,0.31 -0.76,0.31 -0.64,0 -1.1,-0.52 -1.1,-1.11 0,-0.7 0.43,-0.87 0.74,-1.01 l 5.26,-2.19 c -2.86,-1.27 -4.14,-1.75 -5.01,-2.17 -0.66,-0.29 -0.99,-0.43 -0.99,-1.08 0,-0.6 0.46,-1.11 1.1,-1.11 0.23,0 0.31,0 0.72,0.31 l 4.75,3.17 -0.57,-5.61 c 0,-0.76 0.66,-1.04 1.08,-1.04 0.42,0 1.08,0.28 1.08,1.04 0,0.32 -0.14,1.36 -0.17,1.71 -0.06,0.59 -0.32,3.09 -0.38,3.9 l 4.17,-2.79 c 0.91,-0.69 0.99,-0.69 1.3,-0.69 0.63,0 1.08,0.51 1.08,1.11 0,0.7 -0.42,0.87 -0.73,1.01 z"
           inkscape:connector-curvature="0"
           style="fill:#000000;stroke-width:0" /></g>    </g>
    <g
       id="g1130"
       transform="translate(812.16264,187.88837)">
      <g
         word-spacing="normal"
         letter-spacing="normal"
         font-size-adjust="none"
         font-stretch="normal"
         font-weight="normal"
         font-variant="normal"
         font-style="normal"
         stroke-miterlimit="10.433"
         xml:space="preserve"
         transform="matrix(1.2350124,0,0,-1.2350124,-216.12717,948.26557)"
         id="g1128"
         style="font-style:normal;font-variant:normal;font-weight:normal;font-stretch:normal;letter-spacing:normal;word-spacing:normal;text-anchor:start;fill:none;fill-opacity:1;fill-rule:evenodd;stroke:#000000;stroke-linecap:butt;stroke-linejoin:miter;stroke-miterlimit:10.43299961;stroke-dasharray:none;stroke-dashoffset:0;stroke-opacity:1"><path
           id="path1126"
           d="m 478.19,431.11 v 0.31 l -0.01,0.34 -0.02,0.36 -0.02,0.37 -0.03,0.39 -0.04,0.39 -0.04,0.41 -0.06,0.41 -0.07,0.42 -0.07,0.43 -0.09,0.42 -0.1,0.43 -0.12,0.42 -0.12,0.42 -0.14,0.41 -0.16,0.41 -0.17,0.4 -0.18,0.38 -0.2,0.37 -0.22,0.36 -0.23,0.34 -0.25,0.32 -0.28,0.3 -0.29,0.27 -0.31,0.25 -0.16,0.12 -0.17,0.1 -0.17,0.1 -0.18,0.1 -0.18,0.08 -0.19,0.08 -0.19,0.07 -0.2,0.06 -0.21,0.05 -0.21,0.05 -0.22,0.03 -0.22,0.02 -0.23,0.02 h -0.23 l -0.05,-1.09 c 2.44,0 2.73,-3.19 2.73,-6.03 0,-2.44 -0.39,-4.99 -1.59,-9.92 h -10.41 c 0.85,3.2 1.85,7.18 3.83,10.72 1.36,2.43 3.19,5.23 5.44,5.23 l 0.05,1.09 c -6.92,0 -14.6,-14.04 -14.6,-25.45 0,-4.69 1.44,-10.22 5.99,-10.22 v 1.1 c -1.66,0 -2.71,1.45 -2.71,6.07 0,2.1 0.3,4.99 1.6,9.86 h 10.37 c -0.54,-2.28 -1.59,-6.51 -3.5,-10.11 -1.73,-3.39 -3.62,-5.82 -5.76,-5.82 v -1.1 c 7.01,0 14.59,14.3 14.59,25.46 z"
           inkscape:connector-curvature="0"
           style="fill:#000000;stroke-width:0" /></g>    </g>
    <g
       id="g1290"
       transform="translate(470.73109,258.59905)">
      <g
         word-spacing="normal"
         letter-spacing="normal"
         font-size-adjust="none"
         font-stretch="normal"
         font-weight="normal"
         font-variant="normal"
         font-style="normal"
         stroke-miterlimit="10.433"
         xml:space="preserve"
         transform="matrix(1.2350124,0,0,-1.2350124,-216.12717,948.26557)"
         id="g1288"
         style="font-style:normal;font-variant:normal;font-weight:normal;font-stretch:normal;letter-spacing:normal;word-spacing:normal;text-anchor:start;fill:none;fill-opacity:1;fill-rule:evenodd;stroke:#000000;stroke-linecap:butt;stroke-linejoin:miter;stroke-miterlimit:10.43299961;stroke-dasharray:none;stroke-dashoffset:0;stroke-opacity:1"><path
           id="path1284"
           d="m 478.19,431.11 v 0.31 l -0.01,0.34 -0.02,0.36 -0.02,0.37 -0.03,0.39 -0.04,0.39 -0.04,0.41 -0.06,0.41 -0.07,0.42 -0.07,0.43 -0.09,0.42 -0.1,0.43 -0.12,0.42 -0.12,0.42 -0.14,0.41 -0.16,0.41 -0.17,0.4 -0.18,0.38 -0.2,0.37 -0.22,0.36 -0.23,0.34 -0.25,0.32 -0.28,0.3 -0.29,0.27 -0.31,0.25 -0.16,0.12 -0.17,0.1 -0.17,0.1 -0.18,0.1 -0.18,0.08 -0.19,0.08 -0.19,0.07 -0.2,0.06 -0.21,0.05 -0.21,0.05 -0.22,0.03 -0.22,0.02 -0.23,0.02 h -0.23 l -0.05,-1.09 c 2.44,0 2.73,-3.19 2.73,-6.03 0,-2.44 -0.39,-4.99 -1.59,-9.92 h -10.41 c 0.85,3.2 1.85,7.18 3.83,10.72 1.36,2.43 3.19,5.23 5.44,5.23 l 0.05,1.09 c -6.92,0 -14.6,-14.04 -14.6,-25.45 0,-4.69 1.44,-10.22 5.99,-10.22 v 1.1 c -1.66,0 -2.71,1.45 -2.71,6.07 0,2.1 0.3,4.99 1.6,9.86 h 10.37 c -0.54,-2.28 -1.59,-6.51 -3.5,-10.11 -1.73,-3.39 -3.62,-5.82 -5.76,-5.82 v -1.1 c 7.01,0 14.59,14.3 14.59,25.46 z"
           inkscape:connector-curvature="0"
           style="fill:#000000;stroke-width:0" /><path
           id="path1286"
           d="m 496.91,409.87 -0.01,0.71 -0.02,0.68 -0.03,0.66 -0.04,0.64 -0.06,0.62 -0.07,0.6 -0.09,0.57 -0.11,0.56 -0.13,0.55 -0.15,0.53 -0.16,0.51 -0.2,0.5 -0.21,0.49 -0.24,0.48 -0.26,0.47 -0.14,0.23 -0.15,0.23 c -1.07,1.61 -3.23,3 -6.03,3 v -0.98 c 1.89,0 3.71,-1.14 4.33,-3.17 0.56,-1.88 0.59,-4.39 0.59,-7.43 0,-2.57 0,-5.15 -0.45,-7.34 -0.7,-3.17 -3.06,-3.94 -4.47,-3.94 v 0 c -1.59,0 -3.72,0.94 -4.42,3.8 -0.48,2.05 -0.48,4.91 -0.48,7.48 0,2.55 0,5.21 0.51,7.11 0.74,2.75 2.97,3.49 4.39,3.49 v 0.98 c -8.08,0 -8.08,-9.51 -8.08,-12.03 0,-2.5 0,-11.81 8.08,-11.81 8.1,0 8.1,9.31 8.1,11.81 z"
           inkscape:connector-curvature="0"
           style="fill:#000000;stroke-width:0" /></g>    </g>
    <g
       id="g1363"
       transform="translate(290.37164,58.787413)">
      <g
         word-spacing="normal"
         letter-spacing="normal"
         font-size-adjust="none"
         font-stretch="normal"
         font-weight="normal"
         font-variant="normal"
         font-style="normal"
         stroke-miterlimit="10.433"
         xml:space="preserve"
         transform="matrix(1.2350124,0,0,-1.2350124,-216.12717,948.26557)"
         id="g1361"
         style="font-style:normal;font-variant:normal;font-weight:normal;font-stretch:normal;letter-spacing:normal;word-spacing:normal;text-anchor:start;fill:none;fill-opacity:1;fill-rule:evenodd;stroke:#000000;stroke-linecap:butt;stroke-linejoin:miter;stroke-miterlimit:10.43299961;stroke-dasharray:none;stroke-dashoffset:0;stroke-opacity:1"><path
           id="path1357"
           d="m 478.19,431.11 v 0.31 l -0.01,0.34 -0.02,0.36 -0.02,0.37 -0.03,0.39 -0.04,0.39 -0.04,0.41 -0.06,0.41 -0.07,0.42 -0.07,0.43 -0.09,0.42 -0.1,0.43 -0.12,0.42 -0.12,0.42 -0.14,0.41 -0.16,0.41 -0.17,0.4 -0.18,0.38 -0.2,0.37 -0.22,0.36 -0.23,0.34 -0.25,0.32 -0.28,0.3 -0.29,0.27 -0.31,0.25 -0.16,0.12 -0.17,0.1 -0.17,0.1 -0.18,0.1 -0.18,0.08 -0.19,0.08 -0.19,0.07 -0.2,0.06 -0.21,0.05 -0.21,0.05 -0.22,0.03 -0.22,0.02 -0.23,0.02 h -0.23 l -0.05,-1.09 c 2.44,0 2.73,-3.19 2.73,-6.03 0,-2.44 -0.39,-4.99 -1.59,-9.92 h -10.41 c 0.85,3.2 1.85,7.18 3.83,10.72 1.36,2.43 3.19,5.23 5.44,5.23 l 0.05,1.09 c -6.92,0 -14.6,-14.04 -14.6,-25.45 0,-4.69 1.44,-10.22 5.99,-10.22 v 1.1 c -1.66,0 -2.71,1.45 -2.71,6.07 0,2.1 0.3,4.99 1.6,9.86 h 10.37 c -0.54,-2.28 -1.59,-6.51 -3.5,-10.11 -1.73,-3.39 -3.62,-5.82 -5.76,-5.82 v -1.1 c 7.01,0 14.59,14.3 14.59,25.46 z"
           inkscape:connector-curvature="0"
           style="fill:#000000;stroke-width:0" /><path
           id="path1359"
           d="m 490.59,420.92 v 0.04 0.04 0.05 0.04 0.03 0.04 0.04 0.03 0.04 0.03 l -0.01,0.03 v 0.03 0.03 0.03 l -0.01,0.03 v 0.02 l -0.01,0.03 v 0.02 l -0.01,0.03 v 0.02 l -0.01,0.04 -0.02,0.04 -0.01,0.03 -0.02,0.03 -0.03,0.03 -0.02,0.03 -0.03,0.02 -0.03,0.02 -0.03,0.02 -0.04,0.01 -0.04,0.01 -0.04,0.02 h -0.03 -0.02 l -0.03,0.01 h -0.02 l -0.03,0.01 h -0.03 -0.03 -0.03 -0.03 l -0.04,0.01 h -0.03 -0.04 -0.03 -0.04 -0.04 -0.04 -0.04 -0.04 -0.05 -0.04 c -2.24,-2.2 -5.39,-2.23 -6.83,-2.23 v -1.25 c 0.84,0 3.14,0 5.05,0.97 v -17.77 c 0,-1.16 0,-1.61 -3.49,-1.61 h -1.31 v -1.25 c 0.62,0.03 4.91,0.14 6.2,0.14 1.08,0 5.47,-0.11 6.24,-0.14 v 1.25 h -1.33 c -3.49,0 -3.49,0.45 -3.49,1.61 z"
           inkscape:connector-curvature="0"
           style="fill:#000000;stroke-width:0" /></g>    </g>
    <g
       id="g1436"
       transform="translate(171.72593,58.588847)">
      <g
         word-spacing="normal"
         letter-spacing="normal"
         font-size-adjust="none"
         font-stretch="normal"
         font-weight="normal"
         font-variant="normal"
         font-style="normal"
         stroke-miterlimit="10.433"
         xml:space="preserve"
         transform="matrix(1.2350124,0,0,-1.2350124,-216.12717,948.26557)"
         id="g1434"
         style="font-style:normal;font-variant:normal;font-weight:normal;font-stretch:normal;letter-spacing:normal;word-spacing:normal;text-anchor:start;fill:none;fill-opacity:1;fill-rule:evenodd;stroke:#000000;stroke-linecap:butt;stroke-linejoin:miter;stroke-miterlimit:10.43299961;stroke-dasharray:none;stroke-dashoffset:0;stroke-opacity:1"><path
           id="path1430"
           d="m 478.19,431.11 v 0.31 l -0.01,0.34 -0.02,0.36 -0.02,0.37 -0.03,0.39 -0.04,0.39 -0.04,0.41 -0.06,0.41 -0.07,0.42 -0.07,0.43 -0.09,0.42 -0.1,0.43 -0.12,0.42 -0.12,0.42 -0.14,0.41 -0.16,0.41 -0.17,0.4 -0.18,0.38 -0.2,0.37 -0.22,0.36 -0.23,0.34 -0.25,0.32 -0.28,0.3 -0.29,0.27 -0.31,0.25 -0.16,0.12 -0.17,0.1 -0.17,0.1 -0.18,0.1 -0.18,0.08 -0.19,0.08 -0.19,0.07 -0.2,0.06 -0.21,0.05 -0.21,0.05 -0.22,0.03 -0.22,0.02 -0.23,0.02 h -0.23 l -0.05,-1.09 c 2.44,0 2.73,-3.19 2.73,-6.03 0,-2.44 -0.39,-4.99 -1.59,-9.92 h -10.41 c 0.85,3.2 1.85,7.18 3.83,10.72 1.36,2.43 3.19,5.23 5.44,5.23 l 0.05,1.09 c -6.92,0 -14.6,-14.04 -14.6,-25.45 0,-4.69 1.44,-10.22 5.99,-10.22 v 1.1 c -1.66,0 -2.71,1.45 -2.71,6.07 0,2.1 0.3,4.99 1.6,9.86 h 10.37 c -0.54,-2.28 -1.59,-6.51 -3.5,-10.11 -1.73,-3.39 -3.62,-5.82 -5.76,-5.82 v -1.1 c 7.01,0 14.59,14.3 14.59,25.46 z"
           inkscape:connector-curvature="0"
           style="fill:#000000;stroke-width:0" /><path
           id="path1432"
           d="m 496.52,405.11 h -1.19 c -0.1,-0.77 -0.45,-2.83 -0.91,-3.18 -0.26,-0.2 -2.95,-0.2 -3.44,-0.2 h -6.42 c 3.66,3.23 4.88,4.2 6.97,5.84 2.58,2.07 4.99,4.22 4.99,7.54 0,4.21 -3.69,6.79 -8.16,6.79 -4.31,0 -7.25,-3.03 -7.25,-6.23 0,-1.78 1.5,-1.96 1.86,-1.96 0.83,0 1.84,0.6 1.84,1.85 0,0.62 -0.25,1.84 -2.06,1.84 1.08,2.47 3.45,3.24 5.09,3.24 3.49,0 5.3,-2.71 5.3,-5.53 0,-3.04 -2.16,-5.44 -3.28,-6.69 l -8.39,-8.3 c -0.36,-0.31 -0.36,-0.39 -0.36,-1.36 h 14.36 z"
           inkscape:connector-curvature="0"
           style="fill:#000000;stroke-width:0" /></g>    </g>
    <g
       id="g982"
       transform="translate(-189.90868,-369.71583)">
      <g
         word-spacing="normal"
         letter-spacing="normal"
         font-size-adjust="none"
         font-stretch="normal"
         font-weight="normal"
         font-variant="normal"
         font-style="normal"
         stroke-miterlimit="10.433"
         xml:space="preserve"
         transform="matrix(1.2350124,0,0,-1.2350124,-216.12717,948.26557)"
         id="g980"
         style="font-style:normal;font-variant:normal;font-weight:normal;font-stretch:normal;letter-spacing:normal;word-spacing:normal;text-anchor:start;fill:none;fill-opacity:1;fill-rule:evenodd;stroke:#000000;stroke-linecap:butt;stroke-linejoin:miter;stroke-miterlimit:10.43299961;stroke-dasharray:none;stroke-dashoffset:0;stroke-opacity:1"><path
           id="path972"
           d="m 464.49,410.84 0.24,0.39 0.24,0.38 0.23,0.38 0.21,0.37 0.21,0.37 0.2,0.36 0.18,0.35 0.18,0.35 0.18,0.35 0.16,0.34 0.15,0.33 0.15,0.33 0.14,0.33 0.14,0.32 0.24,0.62 0.23,0.61 0.2,0.6 0.19,0.57 0.16,0.56 0.16,0.54 0.14,0.53 0.13,0.52 0.13,0.5 c 1.73,6.87 3.64,12.86 6.71,16.3 0.61,0.65 1,1.09 2.6,1.09 3.44,0 3.53,-3.44 3.53,-4.12 0,-0.91 -0.25,-1.6 -0.25,-1.85 0,-0.36 0.31,-0.36 0.36,-0.36 0.8,0 2.14,0.55 3.39,1.46 0.89,0.68 1.34,1.18 1.34,3.23 0,2.69 -1.4,4.73 -4.18,4.73 -1.6,0 -5.99,-0.4 -10.86,-5.32 -3.99,-4.1 -6.33,-13.07 -7.28,-16.8 -0.9,-3.44 -1.3,-4.99 -2.79,-7.97 -0.36,-0.59 -1.65,-2.8 -2.34,-3.44 -1.34,-1.25 -1.84,-2.14 -1.84,-2.39 0,-0.09 0.09,-0.29 0.45,-0.29 0.19,0 1.23,0.2 2.53,1.04 0.84,0.5 0.95,0.6 2.09,1.8 2.5,-0.06 4.24,-0.5 7.38,-1.41 2.55,-0.68 5.08,-1.43 7.62,-1.43 4.04,0 8.13,3.03 9.72,5.23 0.99,1.34 1.3,2.58 1.3,2.73 0,0.35 -0.31,0.35 -0.36,0.35 -0.8,0 -1.98,-0.55 -2.84,-1.14 -1.35,-0.85 -1.44,-1.14 -1.74,-2 -0.25,-0.8 -0.54,-1.19 -0.75,-1.49 -0.39,-0.59 -0.45,-0.59 -1.2,-0.59 -2.39,0 -4.88,0.73 -8.16,1.64 -1.4,0.39 -4.14,1.19 -6.64,1.19 -0.64,0 -1.34,-0.05 -1.98,-0.19 z"
           inkscape:connector-curvature="0"
           style="fill:#000000;stroke-width:0" /><path
           id="path974"
           d="m 506.32,394.25 v 0.02 0.03 0.01 l -0.01,0.02 v 0.01 0.02 l -0.01,0.01 -0.01,0.02 v 0.02 l -0.01,0.02 -0.02,0.02 -0.01,0.03 -0.02,0.02 -0.02,0.03 -0.02,0.03 -0.02,0.03 -0.03,0.03 -0.03,0.04 -0.01,0.02 -0.02,0.02 -0.02,0.02 -0.01,0.02 -0.02,0.02 -0.02,0.03 -0.02,0.02 -0.03,0.02 -0.02,0.03 -0.02,0.02 -0.03,0.03 -0.02,0.03 -0.03,0.03 -0.03,0.03 -0.03,0.03 -0.02,0.03 -0.04,0.03 -0.03,0.03 -0.03,0.04 -0.03,0.03 -0.04,0.04 -0.04,0.03 -0.03,0.04 -0.04,0.04 c -6.22,6.28 -7.82,15.69 -7.82,23.31 0,8.67 1.89,17.35 8.02,23.56 0.64,0.61 0.64,0.71 0.64,0.86 0,0.35 -0.19,0.49 -0.48,0.49 -0.5,0 -4.99,-3.38 -7.93,-9.7 -2.54,-5.49 -3.14,-11.02 -3.14,-15.21 0,-3.89 0.55,-9.9 3.28,-15.54 2.99,-6.13 7.29,-9.36 7.79,-9.36 0.29,0 0.48,0.14 0.48,0.5 z"
           inkscape:connector-curvature="0"
           style="fill:#000000;stroke-width:0" /><path
           id="path976"
           d="m 531.82,431.11 v 0.31 l -0.01,0.34 -0.01,0.36 -0.02,0.37 -0.03,0.39 -0.04,0.39 -0.05,0.41 -0.06,0.41 -0.06,0.42 -0.08,0.43 -0.09,0.42 -0.1,0.43 -0.11,0.42 -0.13,0.42 -0.14,0.41 -0.15,0.41 -0.17,0.4 -0.19,0.38 -0.2,0.37 -0.22,0.36 -0.23,0.34 -0.25,0.32 -0.27,0.3 -0.29,0.27 -0.31,0.25 -0.16,0.12 -0.17,0.1 -0.17,0.1 -0.18,0.1 -0.19,0.08 -0.18,0.08 -0.2,0.07 -0.2,0.06 -0.2,0.05 -0.22,0.05 -0.21,0.03 -0.23,0.02 -0.22,0.02 h -0.24 l -0.05,-1.09 c 2.44,0 2.74,-3.19 2.74,-6.03 0,-2.44 -0.39,-4.99 -1.6,-9.92 h -10.4 c 0.84,3.2 1.84,7.18 3.82,10.72 1.37,2.43 3.19,5.23 5.44,5.23 l 0.05,1.09 c -6.92,0 -14.59,-14.04 -14.59,-25.45 0,-4.69 1.43,-10.22 5.98,-10.22 v 1.1 c -1.66,0 -2.7,1.45 -2.7,6.07 0,2.1 0.29,4.99 1.59,9.86 h 10.38 c -0.55,-2.28 -1.6,-6.51 -3.5,-10.11 -1.74,-3.39 -3.63,-5.82 -5.77,-5.82 v -1.1 c 7.02,0 14.59,14.3 14.59,25.46 z"
           inkscape:connector-curvature="0"
           style="fill:#000000;stroke-width:0" /><path
           id="path978"
           d="m 548.38,418.65 v 0.37 0.39 l -0.01,0.39 -0.02,0.41 -0.04,0.84 -0.06,0.88 -0.08,0.92 -0.1,0.95 -0.14,0.97 -0.16,1.01 -0.2,1.02 -0.23,1.03 -0.27,1.05 -0.3,1.06 -0.35,1.07 -0.39,1.07 -0.22,0.53 -0.22,0.53 -0.24,0.53 -0.25,0.53 c -2.98,6.12 -7.26,9.36 -7.76,9.36 -0.3,0 -0.5,-0.19 -0.5,-0.49 0,-0.15 0,-0.25 0.93,-1.15 4.89,-4.92 7.74,-12.85 7.74,-23.27 0,-8.51 -1.85,-17.28 -8.03,-23.56 -0.64,-0.59 -0.64,-0.7 -0.64,-0.84 0,-0.3 0.2,-0.5 0.5,-0.5 0.5,0 4.96,3.39 7.92,9.71 2.53,5.47 3.12,11 3.12,15.19 z"
           inkscape:connector-curvature="0"
           style="fill:#000000;stroke-width:0" /></g>    </g>
    <g
       id="g1075"
       transform="translate(600.0306,-36.365491)">
      <g
         word-spacing="normal"
         letter-spacing="normal"
         font-size-adjust="none"
         font-stretch="normal"
         font-weight="normal"
         font-variant="normal"
         font-style="normal"
         stroke-miterlimit="10.433"
         xml:space="preserve"
         transform="matrix(1.2350124,0,0,-1.2350124,-216.12717,948.26557)"
         id="g1073"
         style="font-style:normal;font-variant:normal;font-weight:normal;font-stretch:normal;letter-spacing:normal;word-spacing:normal;text-anchor:start;fill:none;fill-opacity:1;fill-rule:evenodd;stroke:#000000;stroke-linecap:butt;stroke-linejoin:miter;stroke-miterlimit:10.43299961;stroke-dasharray:none;stroke-dashoffset:0;stroke-opacity:1"><path
           id="path1055"
           d="m 479.82,441.62 -0.05,0.19 -0.06,0.19 -0.06,0.19 -0.07,0.19 -0.07,0.18 -0.09,0.19 -0.08,0.18 -0.1,0.18 -0.11,0.18 -0.11,0.18 -0.12,0.17 -0.12,0.17 -0.14,0.16 -0.14,0.16 -0.15,0.15 -0.15,0.15 -0.17,0.14 -0.17,0.14 -0.19,0.13 -0.19,0.12 -0.2,0.12 -0.21,0.1 -0.21,0.1 -0.23,0.09 -0.23,0.08 -0.25,0.07 -0.25,0.06 -0.27,0.06 -0.27,0.04 -0.28,0.03 -0.29,0.01 -0.3,0.01 0.12,-0.98 c 3.39,0 4.5,-2.64 4.5,-4.74 0,-2.33 -2.26,-9.75 -8.11,-9.75 v 0 c -3.93,0 -4.39,2.95 -4.39,4.03 0,1.36 0.94,4.78 1.28,5.66 0.63,1.59 2.8,4.8 6.72,4.8 l -0.12,0.98 c -4.89,0 -8.92,-3.66 -10.19,-6.8 -0.2,-0.59 -0.69,-2.01 -0.69,-3.42 0,-2.39 1.88,-6.37 7.32,-6.37 9.03,0 12.68,11.26 12.68,16.2 0,5.97 -3.9,9.37 -8.57,9.37 -5.68,0 -7.25,-4.53 -7.25,-5.6 0,-0.29 0.18,-1.25 1.4,-1.25 1.22,0 1.94,1.07 1.94,1.92 0,0.93 -0.69,1.25 -1.34,1.31 1.73,2.62 4.59,2.62 5.18,2.62 2.61,0 5.72,-1.64 5.72,-6.59 0,-1.5 -0.19,-2.72 -0.84,-5.5 z"
           inkscape:connector-curvature="0"
           style="fill:#000000;stroke-width:0" /><path
           id="path1057"
           d="m 492.34,433.26 0.17,0.24 0.17,0.24 0.16,0.23 0.15,0.24 0.14,0.24 0.14,0.23 0.14,0.24 0.12,0.23 0.13,0.23 0.11,0.23 0.11,0.23 0.11,0.23 0.1,0.22 0.1,0.22 0.09,0.22 0.08,0.22 0.09,0.21 0.07,0.21 0.08,0.2 0.07,0.2 0.06,0.2 0.07,0.19 0.05,0.19 0.06,0.19 0.05,0.17 0.05,0.18 0.05,0.17 0.05,0.16 0.04,0.16 0.04,0.15 0.04,0.14 0.03,0.14 c 0.88,3.37 2.52,8.98 5.35,11.67 0.48,0.45 1.17,0.56 1.84,0.56 1.67,0 2.75,-1.26 2.75,-2.97 0,-0.56 -0.11,-0.93 -0.11,-1.04 0,-0.21 0.11,-0.32 0.39,-0.32 0.31,0 1.22,0.25 2.19,0.97 0.73,0.53 1.12,0.91 1.12,2.24 0,1.5 -0.9,3.42 -3.48,3.42 -3,0 -6.25,-1.95 -8.19,-4.16 -3.25,-3.65 -4.61,-8.84 -5.58,-12.64 -1.01,-3.87 -3,-6.09 -3.2,-6.31 -0.28,-0.2 -1.64,-1.36 -1.64,-1.84 0,-0.25 0.34,-0.25 0.41,-0.25 0.25,0 1.57,0.18 3.31,1.92 1.78,0 3.22,-0.25 6.14,-0.97 1.95,-0.5 3.9,-0.95 5.92,-0.95 2.33,0 4.36,1.18 5.47,2.03 2.51,1.84 2.69,3.54 2.69,3.58 0,0.18 -0.11,0.32 -0.39,0.32 -0.52,0 -2.75,-0.84 -3.21,-2.17 -0.48,-1.45 -0.9,-1.45 -1.7,-1.45 -1.89,0 -4.47,0.62 -5.55,0.91 -2.04,0.51 -4.08,1 -6.12,1 -0.42,0 -0.88,0 -1.33,-0.1 z"
           inkscape:connector-curvature="0"
           style="fill:#000000;stroke-width:0" /><path
           id="path1059"
           d="m 524.89,455.98 -0.61,-0.45 -0.57,-0.46 -0.56,-0.47 -0.52,-0.49 -0.5,-0.5 -0.47,-0.51 -0.45,-0.53 -0.42,-0.53 -0.4,-0.54 -0.38,-0.55 -0.35,-0.56 -0.33,-0.56 -0.31,-0.57 -0.29,-0.57 -0.26,-0.58 -0.25,-0.58 -0.23,-0.58 -0.21,-0.58 -0.19,-0.59 -0.17,-0.58 -0.16,-0.58 -0.14,-0.58 -0.12,-0.57 -0.11,-0.57 -0.09,-0.57 -0.08,-0.56 -0.06,-0.55 -0.06,-0.54 -0.04,-0.54 -0.02,-0.53 -0.02,-0.51 v -0.51 c 0,-4.92 1.46,-12.55 8.37,-17.42 0.28,0 0.69,0 0.69,0.4 0,0.22 -0.1,0.29 -0.35,0.54 -4.64,4.18 -6.34,10.1 -6.34,16.45 0,9.4 3.59,14 6.45,16.58 0.14,0.14 0.24,0.25 0.24,0.42 0,0.42 -0.41,0.42 -0.69,0.42 z"
           inkscape:connector-curvature="0"
           style="fill:#000000;stroke-width:0" /><path
           id="path1061"
           d="m 545.93,446.81 -0.01,0.34 -0.01,0.35 -0.02,0.34 -0.03,0.34 -0.04,0.35 -0.05,0.33 -0.05,0.34 -0.07,0.33 -0.07,0.33 -0.08,0.32 -0.1,0.32 -0.1,0.31 -0.11,0.3 -0.12,0.29 -0.13,0.29 -0.14,0.27 -0.15,0.26 -0.16,0.26 -0.18,0.24 -0.18,0.22 -0.19,0.22 -0.2,0.19 -0.21,0.19 -0.23,0.16 -0.23,0.15 -0.25,0.14 -0.25,0.11 -0.27,0.1 -0.28,0.07 -0.29,0.06 -0.3,0.03 -0.32,0.01 -0.03,-0.97 c 2.22,0 2.22,-3.87 2.22,-4.53 0,-1.36 -0.28,-3.39 -1,-6.31 h -8.06 c 1.78,7.53 4.78,10.84 6.84,10.84 l 0.03,0.97 c -5.23,0 -10.81,-9.34 -10.81,-17.31 0,-4.16 1.61,-7.56 4.81,-7.56 l 0.04,0.96 c -1.91,0 -2.22,2.66 -2.22,4.54 0,2.29 0.65,5.01 1,6.31 h 8.06 c -0.99,-3.8 -1.78,-5.69 -2.83,-7.39 -1.08,-1.81 -2.47,-3.46 -4.01,-3.46 l -0.04,-0.96 c 5.3,0 10.82,9.51 10.82,17.31 z"
           inkscape:connector-curvature="0"
           style="fill:#000000;stroke-width:0" /><path
           id="path1063"
           d="m 562.05,432.77 v 0.18 0.21 l -0.01,0.24 -0.01,0.26 -0.01,0.28 -0.02,0.29 -0.02,0.32 -0.03,0.33 -0.05,0.34 -0.05,0.35 -0.07,0.35 -0.08,0.37 -0.09,0.37 -0.11,0.36 -0.12,0.37 -0.15,0.37 -0.16,0.36 -0.18,0.35 -0.2,0.34 -0.23,0.33 -0.25,0.32 -0.28,0.3 -0.14,0.14 -0.16,0.14 -0.16,0.13 -0.17,0.13 -0.17,0.12 -0.18,0.12 -0.19,0.11 -0.2,0.1 -0.2,0.1 -0.22,0.09 -0.22,0.08 -0.23,0.08 -0.23,0.07 -0.25,0.05 -0.26,0.06 -0.26,0.04 -0.27,0.03 -0.28,0.03 -0.29,0.01 h -0.3 c -6.5,0 -6.5,-6.82 -6.5,-8.62 0,-1.81 0,-8.52 6.5,-8.52 v 0.83 c -0.93,0 -3.02,0.31 -3.64,2.83 -0.35,1.34 -0.38,3.13 -0.38,5.16 0,1.84 0,3.56 0.41,4.98 0.62,2.09 2.54,2.52 3.61,2.52 1.84,0 3.17,-0.94 3.65,-2.69 0.36,-1.27 0.36,-3.34 0.36,-4.81 0,-1.69 0,-3.71 -0.37,-5.21 -0.66,-2.42 -2.64,-2.78 -3.64,-2.78 v 0 -0.83 c 6.5,0 6.5,6.71 6.5,8.52 z"
           inkscape:connector-curvature="0"
           style="fill:#000000;stroke-width:0" /><path
           id="path1065"
           d="m 569.66,455.98 h -0.02 -0.03 -0.02 -0.03 -0.03 -0.02 -0.03 l -0.03,-0.01 h -0.03 -0.03 l -0.02,-0.01 h -0.03 l -0.03,-0.01 -0.03,-0.01 h -0.02 l -0.03,-0.01 -0.03,-0.01 -0.02,-0.01 -0.02,-0.02 -0.03,-0.01 -0.02,-0.02 -0.02,-0.02 -0.02,-0.02 v -0.01 l -0.01,-0.01 -0.01,-0.01 -0.01,-0.01 v -0.01 l -0.01,-0.02 -0.01,-0.01 v -0.01 l -0.01,-0.02 V 455.7 L 569,455.68 v -0.01 -0.02 l -0.01,-0.02 v -0.01 -0.02 -0.02 -0.02 c 0,-0.17 0.11,-0.28 0.31,-0.53 3,-2.75 6.35,-7.46 6.35,-16.44 0,-7.28 -2.27,-12.8 -6.04,-16.2 -0.58,-0.6 -0.62,-0.63 -0.62,-0.82 0,-0.17 0.11,-0.4 0.45,-0.4 0.42,0 3.74,2.29 6.03,6.65 1.53,2.89 2.55,6.66 2.55,10.74 0,4.9 -1.47,12.53 -8.36,17.42 z"
           inkscape:connector-curvature="0"
           style="fill:#000000;stroke-width:0" /><polyline
           id="polyline1067"
           points="462,417 582.6,417 582.6,419.04 462,419.04 "
           style="fill:#000000;fill-rule:nonzero;stroke-width:0" /><path
           id="path1069"
           d="m 518.34,400.34 -0.05,0.19 -0.06,0.19 -0.06,0.19 -0.07,0.19 -0.07,0.18 -0.09,0.19 -0.09,0.18 -0.09,0.18 -0.11,0.18 -0.11,0.18 -0.12,0.17 -0.12,0.17 -0.14,0.16 -0.14,0.16 -0.15,0.15 -0.16,0.15 -0.16,0.14 -0.18,0.14 -0.18,0.13 -0.19,0.12 -0.2,0.11 -0.21,0.11 -0.21,0.1 -0.23,0.09 -0.24,0.08 -0.24,0.07 -0.25,0.06 -0.27,0.06 -0.27,0.04 -0.28,0.02 -0.29,0.02 -0.3,0.01 0.12,-0.99 c 3.39,0 4.5,-2.64 4.5,-4.73 0,-2.33 -2.26,-9.75 -8.11,-9.75 v 0 c -3.93,0 -4.39,2.95 -4.39,4.03 0,1.36 0.94,4.78 1.28,5.66 0.63,1.59 2.8,4.79 6.72,4.79 l -0.12,0.99 c -4.89,0 -8.92,-3.66 -10.19,-6.8 -0.2,-0.59 -0.69,-2.01 -0.69,-3.42 0,-2.39 1.88,-6.37 7.32,-6.37 9.03,0 12.68,11.26 12.68,16.2 0,5.97 -3.9,9.37 -8.58,9.37 -5.67,0 -7.25,-4.53 -7.25,-5.61 0,-0.28 0.19,-1.25 1.41,-1.25 1.22,0 1.94,1.08 1.94,1.93 0,0.93 -0.69,1.25 -1.35,1.31 1.74,2.62 4.6,2.62 5.19,2.62 2.61,0 5.72,-1.64 5.72,-6.59 0,-1.5 -0.19,-2.72 -0.84,-5.5 z"
           inkscape:connector-curvature="0"
           style="fill:#000000;stroke-width:0" /><path
           id="path1071"
           d="m 541.25,405.53 v 0.34 l -0.02,0.34 -0.02,0.35 -0.03,0.34 -0.04,0.34 -0.04,0.34 -0.06,0.34 -0.06,0.33 -0.08,0.33 -0.08,0.32 -0.09,0.32 -0.1,0.31 -0.12,0.3 -0.12,0.29 -0.13,0.29 -0.14,0.27 -0.15,0.26 -0.16,0.26 -0.17,0.23 -0.18,0.23 -0.19,0.21 -0.21,0.2 -0.21,0.19 -0.22,0.16 -0.24,0.15 -0.24,0.14 -0.26,0.11 -0.27,0.1 -0.28,0.07 -0.29,0.06 -0.3,0.03 -0.31,0.01 -0.03,-0.97 c 2.21,0 2.21,-3.87 2.21,-4.53 0,-1.36 -0.28,-3.39 -1,-6.31 h -8.06 c 1.78,7.53 4.78,10.84 6.85,10.84 l 0.03,0.97 c -5.24,0 -10.82,-9.34 -10.82,-17.31 0,-4.16 1.61,-7.57 4.82,-7.57 l 0.03,0.97 c -1.91,0 -2.22,2.66 -2.22,4.53 0,2.3 0.66,5.02 1,6.32 h 8.06 c -0.98,-3.8 -1.78,-5.69 -2.83,-7.39 -1.07,-1.82 -2.46,-3.46 -4.01,-3.46 l -0.03,-0.97 c 5.29,0 10.81,9.52 10.81,17.32 z"
           inkscape:connector-curvature="0"
           style="fill:#000000;stroke-width:0" /></g>    </g>
  </g>
</svg>
