<?xml version="1.0" encoding="utf-8"?>
<!-- Generator: Adobe Illustrator 19.1.0, SVG Export Plug-In . SVG Version: 6.00 Build 0)  -->
<svg version="1.1" xmlns="http://www.w3.org/2000/svg" xmlns:xlink="http://www.w3.org/1999/xlink" x="0px" y="0px"
	 viewBox="0 0 270.6155 201.7918" style="enable-background:new 0 0 270.6155 201.7918;" xml:space="preserve">
<style type="text/css">
	.st0{opacity:0.15;fill:#299951;}
	.st1{fill:#131312;}
	.st2{fill:none;stroke:#000000;stroke-width:0.25;}
	.st3{fill:none;stroke:#006699;stroke-linecap:round;}
	.st4{fill:none;stroke:#000000;stroke-width:0.25;stroke-miterlimit:10;}
</style>
<g id="_x3C_Layer_x3E_">
	<path class="st0" d="M216.4166,166.3335c-26.1831,0-156.5417,0-156.5417,0l0.0417-0.125c0,0,0-69.6032,0-83.5833l-0.1699-0.5978
		c25.5568-0.9563,29.4162,38.0627,64.7532,9.0145c51.6987-42.4981,71.8996-49.8783,91.6492-36.2l0.1008,0.45
		c0,18.5798,0,111.0833,0,111.0833L216.4166,166.3335z"/>
	<path class="st1" d="M36.4163,166.459"/>
	<line class="st1" x1="63.3348" y1="166.5405" x2="64.3309" y2="166.5405"/>
	<g>
		<g>
			<line class="st2" x1="0" y1="166.458" x2="264.2191" y2="166.458"/>
			<g>
				<path d="M262.8729,166.458l-1.6436-2.7023l0.0923-0.0612l4.4062,1.7501c1.5352,0.3376,3.0703,0.6753,4.6055,1.0133
					c-1.5352,0.3376-3.0703,0.6753-4.6055,1.0133l-4.4062,1.7501l-0.0923-0.0461L262.8729,166.458z"/>
			</g>
		</g>
	</g>
	<g>
		<path d="M25.0296,14.8135l0.0752-1.1621c0.2554,0.0728,0.5034,0.1094,0.7451,0.1094c0.2505,0,0.4536-0.0571,0.6084-0.1709
			c0.2007-0.1504,0.4194-0.4331,0.6562-0.8477l0.3965-0.7109l-1.21-7.2803h1.2168l0.5469,3.6709
			c0.1094,0.7246,0.2026,1.4492,0.2803,2.1738l3.2471-5.8447h1.292l-4.6279,8.2236c-0.4468,0.8022-0.8433,1.333-1.1895,1.5928
			s-0.7451,0.3896-1.1963,0.3896C25.5833,14.957,25.3031,14.9092,25.0296,14.8135z"/>
	</g>
	<g>
		<path d="M263.0628,179.0093l3.1582-3.6846l-1.8115-3.5752h1.3672l0.6152,1.292c0.2275,0.4829,0.4326,0.9458,0.6152,1.3877
			l2.0918-2.6797h1.5107l-3.0488,3.6709l1.832,3.5889h-1.3672l-0.7246-1.4766c-0.1553-0.3145-0.3301-0.7041-0.5264-1.1689
			l-2.1602,2.6455H263.0628z"/>
	</g>
	<g>
		<g>
			<line class="st2" x1="36.3327" y1="201.7918" x2="36.3327" y2="10.5728"/>
			<g>
				<path d="M36.3327,11.9189l-2.7023,1.6436l-0.0612-0.0923l1.7501-4.4062c0.3376-1.5352,0.6753-3.0703,1.0133-4.6055
					c0.3376,1.5352,0.6753,3.0703,1.0133,4.6055l1.7501,4.4062L39.05,13.5625L36.3327,11.9189z"/>
			</g>
		</g>
	</g>
	<g>
		<path d="M25.6722,174.0669c0-1.1851,0.1221-2.1387,0.3657-2.8608s0.606-1.2793,1.0869-1.6714s1.0859-0.5879,1.8149-0.5879
			c0.5376,0,1.0093,0.1084,1.415,0.3247s0.7407,0.5288,1.0049,0.9365s0.4717,0.9048,0.6221,1.4902s0.2256,1.375,0.2256,2.3687
			c0,1.1758-0.1206,2.125-0.3623,2.8472s-0.6025,1.2808-1.0835,1.6748s-1.0879,0.5913-1.8218,0.5913
			c-0.9663,0-1.7251-0.3462-2.2764-1.0391C26.0028,177.3071,25.6722,175.9492,25.6722,174.0669z M26.9368,174.0669
			c0,1.645,0.1924,2.7402,0.5776,3.2847s0.8604,0.8169,1.4253,0.8169s1.04-0.2734,1.4253-0.8203s0.5776-1.6406,0.5776-3.2812
			c0-1.6499-0.1924-2.7456-0.5776-3.2881s-0.8647-0.8135-1.439-0.8135c-0.5649,0-1.0161,0.2393-1.3535,0.7178
			C27.1488,171.2939,26.9368,172.4219,26.9368,174.0669z"/>
	</g>
	<path class="st3" d="M50,84.1252c34.6667-12.6667,35,39.3333,74.3333,7C189.6,37.4737,204.6667,39.7918,232,69.7918"/>
	<path class="st4" d="M216.0833,55.3752c0,18.5798,0,111.0833,0,111.0833"/>
	<path class="st4" d="M59.75,82.7085c0,13.9801,0,83.5833,0,83.5833"/>
	<g>
		<g>
			<path d="M163.8978,42.8687c0.083-0.0957,0.2041-0.1436,0.3623-0.1436c0.1035,0,0.1953,0.0195,0.2744,0.0596
				c0.0791,0.0391,0.1621,0.0967,0.249,0.1714l0.0879,0.0625c0.0244,0.0205,0.0527,0.0361,0.084,0.0464
				c0.0312,0.0107,0.0654,0.0156,0.1025,0.0156c0.2041,0,0.5312-0.2686,0.9824-0.8062s0.6768-0.9292,0.6768-1.1738
				c0-0.2324-0.0771-0.689-0.2334-1.3701c-0.1562-0.6807-0.3066-1.2866-0.4521-1.8184c-0.2041-0.7471-0.3896-1.2534-0.5586-1.519
				c-0.168-0.2656-0.417-0.3984-0.7451-0.3984c-0.0254,0-0.0684,0.0029-0.1279,0.0093c-0.0605,0.0063-0.1631,0.0176-0.3086,0.0342
				V35.832l1.7021-0.3301l0.1309-0.0127c0.1035-0.0127,0.3037,0.4556,0.5986,1.4033c0.2666,0.853,0.4316,1.4731,0.4961,1.8613
				l0.252,1.4883c0.4365-0.7329,0.7578-1.2949,0.9619-1.686c0.3994-0.7705,0.5986-1.3096,0.5986-1.6177
				c0-0.0708-0.0127-0.1406-0.0371-0.2095c-0.0254-0.0688-0.083-0.1279-0.1748-0.1782l-0.1064-0.0562
				c-0.0664-0.0332-0.1445-0.0957-0.2334-0.187c-0.0898-0.0918-0.1338-0.2148-0.1338-0.3687c0-0.1289,0.041-0.2373,0.124-0.3247
				s0.208-0.1313,0.375-0.1313c0.207,0,0.376,0.0615,0.5049,0.1841c0.1289,0.123,0.1934,0.332,0.1934,0.6274
				c0,0.4453-0.2432,1.1606-0.7295,2.147c-0.375,0.7515-0.793,1.48-1.2539,2.1855c-0.5781,0.8804-1.0752,1.5596-1.4912,2.0371
				c-0.6611,0.752-1.21,1.1279-1.6465,1.1279c-0.1709,0-0.3213-0.0522-0.4521-0.1562s-0.1973-0.2451-0.1973-0.4238
				C163.7728,43.0786,163.8148,42.9644,163.8978,42.8687z"/>
		</g>
		<g>
			<path d="M172.7308,36.1631h6.7178v0.7046h-6.7178V36.1631z M172.7308,38.6455h6.7178v0.6987h-6.7178V38.6455z"/>
		</g>
		<g>
			<path d="M190.0687,33.6553c-0.0918,0.1162-0.2188,0.1748-0.3809,0.1748c-0.1416,0-0.2578-0.0449-0.3496-0.1353
				c-0.0918-0.0898-0.1367-0.1953-0.1367-0.3169c0-0.0835,0.0391-0.2275,0.1182-0.4326c0-0.0542-0.0273-0.1025-0.0811-0.1445
				c-0.0469-0.0376-0.1045-0.0562-0.1709-0.0562c-0.3125,0-0.5732,0.3354-0.7842,1.0063c-0.1172,0.3877-0.25,1.0396-0.3965,1.9565
				h1.3916l-0.0879,0.418h-1.4189l-1.1934,4.0752c-0.252,1.0771-0.5908,1.9482-1.0156,2.6128s-0.9678,0.9971-1.6299,0.9971
				c-0.3037,0-0.5527-0.0811-0.7471-0.2432s-0.291-0.3433-0.291-0.543c0-0.1245,0.04-0.2412,0.1211-0.3491
				c0.0811-0.1084,0.2031-0.1621,0.3652-0.1621c0.1416,0,0.2607,0.0469,0.3584,0.1401c0.0977,0.0938,0.1465,0.209,0.1465,0.3462
				c0,0.0752-0.0215,0.1509-0.0654,0.228c-0.043,0.0767-0.0654,0.1299-0.0654,0.1587c0,0.0376,0.0244,0.0688,0.0723,0.0938
				s0.1094,0.0376,0.1836,0.0376c0.3545,0,0.6543-0.2788,0.9004-0.8359c0.1289-0.2915,0.2471-0.6924,0.3555-1.2041l1.4824-5.3521
				h-1.1543l0.0879-0.418h1.208c0.2275-0.9688,0.4824-1.6865,0.7656-2.1519c0.4209-0.7153,0.9414-1.0732,1.5596-1.0732
				c0.2832,0,0.5186,0.0811,0.707,0.2432c0.1885,0.1626,0.2822,0.3477,0.2822,0.5552
				C190.2054,33.4141,190.1595,33.5391,190.0687,33.6553z"/>
		</g>
		<g>
			<path d="M196.6673,40.3765c0.0996-0.0684,0.2021-0.103,0.3057-0.103c0.0498,0,0.0996,0.0073,0.1504,0.022
				c0.0498,0.0146,0.1035,0.0386,0.1621,0.0718l0.2178,0.1187c0.0293,0.0166,0.0576,0.0278,0.084,0.0342
				c0.0273,0.0063,0.0576,0.0093,0.0908,0.0093c0.1035,0,0.1836-0.0259,0.2402-0.0776c0.0557-0.0522,0.2002-0.2344,0.4336-0.5459
				c0.1533-0.2036,0.5029-0.7007,1.0479-1.4912c0-0.0288-0.0479-0.2524-0.1436-0.6704s-0.1826-0.7725-0.2617-1.0635
				c-0.0791-0.2954-0.1504-0.4897-0.2119-0.5835c-0.0625-0.0933-0.1797-0.1401-0.3496-0.1401c-0.0586,0-0.1729,0.021-0.3428,0.0625
				c-0.1084,0.0249-0.2246,0.0542-0.3496,0.0874l-0.0566-0.1934l0.6924-0.2373c0.1787-0.0625,0.3447-0.1123,0.4961-0.1494
				c0.1523-0.0376,0.2822-0.0562,0.3896-0.0562c0.1748,0,0.3057,0.0518,0.3936,0.1558c0.1328,0.1665,0.2451,0.4951,0.3369,0.9854
				l0.1309,0.7114c0.374-0.5742,0.665-0.9775,0.873-1.2104c0.1875-0.2119,0.3643-0.3701,0.5303-0.4741
				c0.166-0.1035,0.3242-0.1558,0.4746-0.1558c0.1406,0,0.2559,0.021,0.3428,0.0625c0.1582,0.0747,0.2373,0.2163,0.2373,0.4243
				c0,0.1411-0.04,0.2515-0.1191,0.3306s-0.1807,0.1182-0.3057,0.1182c-0.0459,0-0.0889-0.0049-0.1309-0.0156
				c-0.041-0.0103-0.085-0.0259-0.1309-0.0464l-0.1621-0.0688c-0.0459-0.0205-0.0898-0.0386-0.1309-0.0532
				c-0.042-0.0142-0.0732-0.0215-0.0938-0.0215c-0.1875,0-0.4473,0.2422-0.7793,0.7266c-0.333,0.4844-0.499,0.7642-0.499,0.8389
				c0,0.0625,0.0381,0.2651,0.1152,0.6084s0.1611,0.7061,0.2529,1.0884c0.083,0.3618,0.1533,0.6113,0.2119,0.7485
				c0.0957,0.2246,0.2031,0.3369,0.3242,0.3369c0.1123,0,0.2266-0.0625,0.3428-0.187c0.1162-0.125,0.291-0.3496,0.5244-0.6738
				l0.1738,0.106c-0.1787,0.3247-0.3633,0.6011-0.5547,0.8296c-0.3623,0.4326-0.707,0.6489-1.0352,0.6489
				c-0.208,0-0.373-0.0996-0.4932-0.2993c-0.0703-0.1162-0.1396-0.3076-0.2061-0.5737l-0.3867-1.541l-1.2783,1.6782
				c-0.25,0.291-0.4424,0.4863-0.5771,0.5859c-0.1357,0.1001-0.3027,0.1499-0.502,0.1499c-0.2666,0-0.4473-0.083-0.543-0.2495
				c-0.0537-0.0874-0.0811-0.1914-0.0811-0.312C196.5179,40.5605,196.5677,40.4453,196.6673,40.3765z"/>
		</g>
		<g>
			<path d="M195.181,44.5659l-0.125,0.2842c-0.1748,0-0.5283-0.3379-1.0605-1.0137c-0.5693-0.7085-1.0332-1.522-1.3906-2.4409
				c-0.3828-0.9248-0.5742-2.1655-0.5742-3.7222c0-1.5464,0.1875-2.7896,0.5615-3.7305c0.3535-0.9028,0.8174-1.7163,1.3916-2.4409
				c0.5361-0.665,0.8936-0.9976,1.0723-0.9976l0.125,0.2842c-0.6318,0.6538-1.0439,1.23-1.2354,1.7271
				c-0.1953,0.4868-0.3613,1.0273-0.499,1.6221c-0.1416,0.6055-0.2305,1.1758-0.2676,1.7109
				c-0.0508,0.5352-0.0752,1.1436-0.0752,1.8247c0,0.6055,0.0205,1.2056,0.0625,1.8003c0.0332,0.4917,0.1387,1.1162,0.3184,1.873
				c0.1699,0.7139,0.3613,1.2896,0.5732,1.7275C194.2747,43.5171,194.6488,44.0146,195.181,44.5659z"/>
		</g>
		<g>
			<path d="M203.972,44.8501l-0.1309-0.2842c0.6445-0.6646,1.0625-1.2407,1.2539-1.7271c0.1621-0.3945,0.3242-0.9409,0.4863-1.6382
				c0.1367-0.6001,0.2305-1.165,0.2803-1.6948c0.042-0.5947,0.0625-1.2056,0.0625-1.8325c0-0.5947-0.0205-1.1978-0.0625-1.8086
				c-0.0332-0.4971-0.1348-1.1162-0.3057-1.8569c-0.1533-0.6543-0.3486-1.23-0.5859-1.7271
				c-0.2119-0.4326-0.5889-0.9302-1.1289-1.4922l0.1309-0.2842c0.1787,0,0.5361,0.3325,1.0723,0.9976
				c0.5498,0.6973,1.0127,1.5112,1.3916,2.4409c0.374,0.9409,0.5615,2.1841,0.5615,3.7305c0,1.5459-0.1875,2.7866-0.5615,3.7222
				c-0.3574,0.9189-0.8213,1.7324-1.3916,2.4409C204.512,44.5122,204.1546,44.8501,203.972,44.8501z"/>
		</g>
	</g>
	<g>
		<path d="M61.4427,178.1069c-0.4282,0.3691-0.8408,0.6392-1.2373,0.8101s-0.8203,0.2563-1.2715,0.2563
			c-0.6699,0-1.21-0.1973-1.6201-0.5913s-0.6152-0.8989-0.6152-1.5142c0-0.4058,0.0923-0.7646,0.2769-1.0767
			s0.4297-0.563,0.7349-0.752s0.6792-0.3247,1.1211-0.4067c0.2778-0.0547,0.8057-0.0981,1.5825-0.1299s1.334-0.1138,1.6714-0.2461
			c0.0957-0.3374,0.1436-0.6177,0.1436-0.8408c0-0.2871-0.105-0.5127-0.3145-0.6768c-0.2871-0.228-0.7065-0.3418-1.2578-0.3418
			c-0.5195,0-0.9443,0.1152-1.2749,0.3452s-0.5708,0.5571-0.7212,0.981l-1.251-0.1094c0.2554-0.7202,0.6597-1.2715,1.2134-1.6543
			s1.252-0.5742,2.0952-0.5742c0.8979,0,1.6089,0.2144,2.1328,0.6426c0.4009,0.3188,0.6016,0.7339,0.6016,1.2441
			c0,0.3872-0.0571,0.8364-0.1709,1.3467l-0.4033,1.8047c-0.1274,0.5742-0.1914,1.0415-0.1914,1.4014
			c0,0.228,0.0503,0.5562,0.1504,0.9844h-1.251C61.5179,178.7725,61.47,178.4717,61.4427,178.1069z M61.9007,175.3315
			c-0.1733,0.0684-0.3589,0.1206-0.5571,0.1572s-0.5298,0.0752-0.9946,0.1162c-0.7202,0.064-1.228,0.1445-1.5244,0.2427
			s-0.5195,0.2539-0.6699,0.4683s-0.2256,0.4512-0.2256,0.7109c0,0.3462,0.1196,0.6313,0.3589,0.8545s0.5801,0.335,1.022,0.335
			c0.4102,0,0.8042-0.1084,1.1826-0.3247s0.6768-0.5186,0.8955-0.9058S61.7777,176.0469,61.9007,175.3315z"/>
	</g>
	<g>
		<path d="M213.0482,179.0093l2.0918-10.0215h1.2373l-0.7451,3.582c0.3916-0.3599,0.7471-0.6143,1.0664-0.7622
			s0.6514-0.2222,0.998-0.2222c0.6787,0,1.2451,0.2529,1.6992,0.7588c0.4531,0.5059,0.6797,1.2417,0.6797,2.208
			c0,0.6426-0.0908,1.2305-0.2734,1.7637s-0.4082,0.981-0.6768,1.3433s-0.5469,0.6519-0.834,0.8682s-0.5811,0.3784-0.8818,0.4854
			s-0.5898,0.1606-0.8682,0.1606c-0.4785,0-0.9004-0.1265-1.2646-0.3794s-0.6494-0.6392-0.8545-1.1587l-0.2871,1.374H213.0482z
			 M214.8802,176.0288l-0.0068,0.2324c0,0.6196,0.1484,1.0913,0.4443,1.415s0.665,0.4854,1.1074,0.4854
			c0.4326,0,0.8301-0.1514,1.1934-0.4546c0.3613-0.3032,0.6592-0.7759,0.8916-1.4185s0.3486-1.2349,0.3486-1.7773
			c0-0.6108-0.1465-1.0845-0.4414-1.4219c-0.293-0.3374-0.6572-0.5059-1.0898-0.5059c-0.4463,0-0.8564,0.1719-1.2305,0.5161
			s-0.6855,0.874-0.9365,1.5894C214.974,175.2222,214.8802,175.6689,214.8802,176.0288z"/>
	</g>
	<g>
		<path d="M136.5677,121.1021l1.3125-0.123l-0.0137,0.3486c0,0.3872,0.0889,0.7417,0.2666,1.063s0.4717,0.5698,0.8818,0.7451
			s0.8975,0.2632,1.4629,0.2632c0.8018,0,1.4141-0.1753,1.8359-0.5264c0.4209-0.3511,0.6318-0.752,0.6318-1.2031
			c0-0.3145-0.1113-0.6016-0.335-0.8613c-0.2275-0.2554-0.8496-0.6016-1.8662-1.0391c-0.7881-0.3418-1.3262-0.604-1.6133-0.7861
			c-0.4512-0.2964-0.7842-0.6187-0.998-0.9673s-0.3213-0.7461-0.3213-1.1929c0-0.5151,0.1416-0.98,0.4238-1.3945
			s0.6963-0.7314,1.2402-0.9502c0.5449-0.2188,1.1592-0.3281,1.8428-0.3281c0.8154,0,1.5039,0.1367,2.0645,0.4102
			s0.9678,0.6382,1.2197,1.0938c0.2539,0.4556,0.3799,0.8911,0.3799,1.3057c0,0.041-0.002,0.1094-0.0068,0.2051l-1.292,0.1025
			c0-0.2827-0.0254-0.5034-0.0752-0.6631c-0.0908-0.2778-0.2324-0.5127-0.4238-0.7041s-0.4551-0.3452-0.7891-0.4614
			c-0.3359-0.1162-0.71-0.1743-1.125-0.1743c-0.7295,0-1.2969,0.1641-1.7021,0.4922c-0.3096,0.2505-0.4648,0.5835-0.4648,0.998
			c0,0.2461,0.0635,0.4658,0.1914,0.6597s0.3574,0.3838,0.6904,0.5708c0.2373,0.1323,0.7998,0.394,1.6885,0.7861
			c0.7197,0.3188,1.2168,0.5698,1.4902,0.752c0.3643,0.2417,0.6445,0.5342,0.8408,0.8784s0.2939,0.7349,0.2939,1.1724
			c0,0.5425-0.165,1.0425-0.4951,1.5005c-0.3311,0.458-0.7881,0.8125-1.3711,1.063s-1.251,0.376-2.0029,0.376
			c-1.1348,0-2.0615-0.2471-2.7783-0.7417C136.9329,123.2769,136.5726,122.3872,136.5677,121.1021z"/>
	</g>
</g>
<g id="_x3C_Layer_x3E__1_">
	<g>
	</g>
</g>
</svg>
