<?xml version="1.0" encoding="utf-8"?>
<!-- Generator: Adobe Illustrator 16.0.3, SVG Export Plug-In . SVG Version: 6.00 Build 0)  -->
<!DOCTYPE svg PUBLIC "-//W3C//DTD SVG 1.1//EN" "http://www.w3.org/Graphics/SVG/1.1/DTD/svg11.dtd">
<svg version="1.1" id="Ebene_1" xmlns="http://www.w3.org/2000/svg" xmlns:xlink="http://www.w3.org/1999/xlink" x="0px" y="0px"
	 width="202.141px" height="132.083px" viewBox="0 0 202.141 132.083" enable-background="new 0 0 202.141 132.083"
	 xml:space="preserve">
<g>
	<path fill="#003E2F" d="M105.099,33.491c-0.61-1.223-1.528-2.132-2.779-2.688c-0.559-0.253-1.147-0.368-1.76-0.292
		c-1.276,0.154-2.248,0.835-3.039,1.798c-0.358,0.439-0.635,0.923-0.805,1.479h8.504C105.173,33.67,105.143,33.574,105.099,33.491"
		/>
	<path fill="#003E2F" d="M116.52,33.869c0.618,0,1.095-0.473,1.092-1.083c-0.003-0.606-0.484-1.072-1.104-1.068
		c-0.601,0.003-1.073,0.473-1.076,1.068C115.424,33.393,115.906,33.869,116.52,33.869"/>
	<path fill="#003E2F" d="M108.122,33.869c0.635,0.008,1.105-0.445,1.108-1.061c0.002-0.613-0.451-1.083-1.054-1.09
		c-0.637-0.008-1.104,0.442-1.106,1.065C107.064,33.393,107.516,33.859,108.122,33.869"/>
	<path fill="#003E2F" d="M85.455,33.869c0.612-0.003,1.068-0.458,1.068-1.073c0.004-0.62-0.464-1.078-1.089-1.078
		c-0.611,0.003-1.071,0.465-1.075,1.072C84.358,33.411,84.826,33.869,85.455,33.869"/>
	<path fill="#003E2F" d="M93.82,33.869c0.621,0,1.095-0.477,1.089-1.088c-0.008-0.601-0.483-1.063-1.089-1.063
		c-0.608,0-1.073,0.458-1.081,1.063C92.728,33.396,93.198,33.869,93.82,33.869"/>
	<path fill="#003E2F" d="M124.227,44.372c0.026-0.004,0.056-0.018,0.099-0.033V41.83c-0.135,0-0.249,0.003-0.367,0
		c-0.37-0.027-0.631-0.286-0.635-0.651c-0.009-0.825-0.009-1.647,0-2.469c0.005-0.359,0.258-0.611,0.614-0.638
		c0.126-0.006,0.251,0,0.379,0v-2.075h-6.759v-1.38H84.349v1.398h-6.514v2.026c0.646,0.102,0.801,0.288,0.801,0.925v1.875
		c0,0.748-0.082,0.86-0.792,1.045v2.476c0.536,0.056,0.78,0.262,0.788,0.697c0.013,0.804,0.013,1.606,0,2.41
		c-0.005,0.4-0.246,0.637-0.638,0.686c-0.056,0.007-0.11,0.022-0.176,0.039v1.231v1.229c0.67,0.117,0.818,0.296,0.818,0.944v1.873
		c0,0.75-0.085,0.865-0.818,1.054v2.282c0,0.058,0.011,0.114,0.015,0.169c0.622,0.081,0.803,0.288,0.803,0.917
		c0.001,0.636,0,1.27,0,1.905c0,0.736-0.099,0.865-0.794,1.045v2.056h6.516v2.095h33.221v-2.116h6.735v-2.064
		c-0.07-0.003-0.121-0.006-0.169-0.009c-0.596-0.019-0.822-0.247-0.822-0.835c0-0.667,0.028-1.332-0.009-1.995
		c-0.038-0.729,0.257-1.031,0.946-0.98c0.018,0,0.03-0.014,0.064-0.034v-2.453c-0.172-0.018-0.331-0.024-0.484-0.056
		c-0.318-0.074-0.518-0.309-0.518-0.632c-0.003-0.834-0.006-1.664,0-2.498c0.004-0.323,0.239-0.582,0.563-0.625
		c0.144-0.017,0.289-0.024,0.433-0.038V48.17c-0.074-0.008-0.136-0.01-0.191-0.015c-0.608-0.016-0.804-0.22-0.804-0.836v-1.967
		C123.323,44.553,123.438,44.428,124.227,44.372 M109.216,38.862c0.007-0.461,0.354-0.786,0.823-0.79
		c0.763-0.006,1.525-0.003,2.289-0.003c0.744,0,1.487,0,2.225,0.003c0.526,0,0.858,0.329,0.86,0.849
		c0.003,0.684,0.003,1.364,0,2.048c0,0.507-0.34,0.872-0.847,0.875c-1.514,0.012-3.03,0.012-4.543,0
		c-0.466-0.003-0.801-0.349-0.808-0.813C109.204,40.309,109.204,39.583,109.216,38.862 M94.877,38.942
		c0.002-0.606,0.265-0.87,0.866-0.873h5.233h5.206c0.617,0.003,0.886,0.269,0.888,0.89c0.001,0.652,0.001,1.309-0.002,1.96
		c0,0.625-0.31,0.928-0.935,0.928c-3.447,0.004-6.896,0.004-10.349,0c-0.614,0-0.903-0.289-0.907-0.915
		C94.872,40.271,94.873,39.605,94.877,38.942 M94.877,45.206c0.006-0.561,0.28-0.83,0.849-0.83h5.265h5.171
		c0.637,0,0.905,0.269,0.907,0.903c0.001,0.655,0.001,1.31,0,1.967c-0.002,0.594-0.322,0.909-0.916,0.909H95.771
		c-0.597,0-0.888-0.291-0.894-0.897C94.872,46.576,94.872,45.893,94.877,45.206 M106.133,54.457h-5.199h-5.199
		c-0.542,0-0.848-0.286-0.856-0.833c-0.01-0.72-0.008-1.445,0-2.169c0.008-0.47,0.285-0.758,0.758-0.769
		c0.663-0.013,1.327-0.006,1.99-0.006h8.44c0.75,0,1.002,0.249,1.002,0.989c0,0.616,0.001,1.23,0,1.843
		C107.067,54.161,106.773,54.457,106.133,54.457 M107.069,57.869c0.001,0.664,0.001,1.325,0,1.992
		c-0.002,0.61-0.325,0.93-0.939,0.93c-3.444,0.003-6.892,0.003-10.338,0c-0.599,0-0.905-0.295-0.913-0.884
		c-0.007-0.704-0.008-1.41,0-2.111C94.887,57.274,95.174,57,95.703,57c1.754-0.003,3.507,0,5.259,0h5.229
		C106.779,57,107.067,57.283,107.069,57.869 M80.78,38.796c0.005-0.445,0.253-0.714,0.687-0.72c0.722-0.01,1.447-0.014,2.171,0
		c0.455,0.006,0.72,0.298,0.721,0.764c0.004,0.743,0.004,1.487,0,2.227c-0.001,0.462-0.26,0.753-0.721,0.766
		c-0.724,0.023-1.447,0.023-2.167,0.004c-0.449-0.013-0.684-0.277-0.691-0.724c-0.004-0.387,0-0.772,0-1.158
		C80.78,39.569,80.776,39.184,80.78,38.796 M80.78,51.42c0.005-0.435,0.235-0.709,0.659-0.723c0.744-0.017,1.487-0.017,2.226,0.004
		c0.43,0.01,0.691,0.309,0.694,0.733c0.004,0.759,0.004,1.524,0,2.288c-0.003,0.439-0.278,0.726-0.721,0.733
		c-0.724,0.014-1.447,0.011-2.167,0c-0.435-0.007-0.686-0.277-0.691-0.718c-0.004-0.386,0-0.775,0-1.16
		C80.78,52.191,80.776,51.806,80.78,51.42 M83.512,60.791c-0.603,0.007-1.207,0.003-1.811,0c-0.127,0-0.258-0.012-0.383-0.04
		c-0.342-0.074-0.528-0.302-0.535-0.649c-0.009-0.405-0.003-0.813-0.003-1.219c0-0.386-0.004-0.772,0-1.157
		c0.007-0.452,0.268-0.719,0.721-0.726c0.696-0.005,1.389-0.003,2.082,0c0.485,0.007,0.775,0.298,0.776,0.782
		c0.004,0.712,0.004,1.427,0,2.138C84.359,60.496,84.093,60.779,83.512,60.791 M84.359,47.413c-0.007,0.417-0.257,0.715-0.668,0.726
		c-0.764,0.021-1.526,0.021-2.286,0c-0.379-0.011-0.618-0.288-0.621-0.662c-0.008-0.805-0.008-1.607-0.001-2.408
		c0.002-0.406,0.253-0.676,0.663-0.687c0.733-0.014,1.466-0.014,2.198,0c0.442,0.011,0.708,0.302,0.715,0.744
		c0.005,0.386,0,0.773,0,1.158C84.359,46.663,84.367,47.037,84.359,47.413 M86.513,38.983c0.003-0.591,0.325-0.911,0.919-0.914h2.2
		c0.732,0,1.466,0,2.198,0.003c0.565,0,0.899,0.335,0.902,0.905c0.007,0.653,0.009,1.308,0,1.959
		c-0.004,0.562-0.348,0.911-0.905,0.911c-1.456,0.009-2.912,0.009-4.369,0c-0.615,0-0.945-0.345-0.949-0.964
		C86.508,40.248,86.508,39.619,86.513,38.983 M91.799,48.155c-0.723,0.005-1.444,0-2.168,0c-0.731,0-1.466,0.005-2.201,0
		c-0.571-0.007-0.914-0.352-0.917-0.928c-0.005-0.656-0.005-1.307,0-1.961c0.003-0.551,0.335-0.887,0.887-0.89h4.427
		c0.563,0.003,0.902,0.339,0.905,0.908c0.007,0.642,0.007,1.287,0,1.929C92.729,47.819,92.396,48.152,91.799,48.155 M92.732,51.594
		c0.007,0.653,0.007,1.31,0,1.961c-0.004,0.571-0.345,0.902-0.902,0.902c-0.743,0.004-1.486,0-2.229,0c-0.733,0-1.466,0.004-2.199,0
		c-0.532,0-0.886-0.356-0.889-0.893c-0.005-0.66-0.005-1.324,0-1.986c0.003-0.537,0.329-0.892,0.859-0.892
		c1.492-0.01,2.99-0.01,4.484,0C92.401,50.686,92.729,51.041,92.732,51.594 M86.513,57.888C86.516,57.345,86.856,57,87.401,57
		c0.743-0.003,1.485,0,2.227,0c0.747,0,1.487-0.003,2.23,0c0.513,0,0.866,0.34,0.872,0.848c0.013,0.685,0.013,1.368,0,2.052
		c-0.006,0.54-0.359,0.886-0.9,0.891c-1.468,0.003-2.934,0.003-4.4,0c-0.563-0.005-0.914-0.372-0.917-0.94
		C86.508,59.194,86.508,58.542,86.513,57.888 M115.054,63.409c-0.105,0.017-0.217,0.009-0.322,0.009
		c-9.174,0.004-18.342,0.004-27.509,0c-0.11,0-0.221,0.008-0.327-0.009c-0.316-0.049-0.391-0.148-0.368-0.506h28.882
		C115.438,63.254,115.37,63.356,115.054,63.409 M115.413,59.897c0,0.517-0.35,0.889-0.867,0.889c-1.497,0.012-2.991,0.012-4.486,0
		c-0.499,0-0.842-0.351-0.849-0.844c-0.007-0.702-0.007-1.407,0-2.111c0.007-0.498,0.35-0.827,0.854-0.831
		c0.761-0.003,1.522,0,2.287,0c0.729,0,1.464-0.003,2.197,0c0.532,0,0.864,0.336,0.864,0.876
		C115.416,58.549,115.416,59.223,115.413,59.897 M115.418,53.67c-0.009,0.462-0.37,0.785-0.835,0.787c-0.762,0.004-1.525,0-2.285,0
		c-0.743,0-1.485,0.004-2.229,0c-0.486,0-0.837-0.311-0.852-0.798c-0.016-0.723-0.014-1.447,0-2.169
		c0.013-0.455,0.337-0.793,0.793-0.796c1.544-0.014,3.087-0.014,4.633,0c0.439,0.003,0.77,0.337,0.774,0.779
		C115.438,52.206,115.438,52.936,115.418,53.67 M115.424,47.29c-0.008,0.519-0.361,0.858-0.887,0.865c-0.745,0.005-1.488,0-2.23,0
		c-0.722,0-1.443,0.005-2.17,0c-0.585-0.003-0.919-0.325-0.926-0.918c-0.007-0.661-0.007-1.325,0-1.989
		c0.011-0.541,0.344-0.869,0.88-0.869c1.494-0.007,2.99-0.007,4.484,0c0.506,0,0.841,0.323,0.849,0.83
		C115.438,45.902,115.438,46.596,115.424,47.29 M121.162,58.896c0,0.369,0.002,0.735,0,1.102c-0.002,0.473-0.209,0.753-0.673,0.774
		c-0.74,0.033-1.487,0.033-2.227-0.003c-0.451-0.021-0.684-0.315-0.688-0.774c-0.011-0.734-0.011-1.466,0-2.199
		c0.004-0.522,0.291-0.792,0.824-0.796c0.663-0.003,1.327-0.003,1.986,0c0.505,0.004,0.772,0.267,0.776,0.768
		C121.164,58.146,121.162,58.522,121.162,58.896 M121.162,52.577c0,0.385,0.007,0.77,0,1.155c-0.006,0.453-0.27,0.72-0.721,0.725
		c-0.705,0.009-1.407,0.009-2.112,0c-0.474-0.005-0.75-0.286-0.754-0.766c-0.011-0.743-0.011-1.483,0.002-2.229
		c0.002-0.477,0.264-0.754,0.751-0.768c0.703-0.018,1.406-0.018,2.107,0c0.492,0.014,0.727,0.285,0.727,0.782
		C121.164,51.844,121.162,52.208,121.162,52.577 M121.162,46.268c0,0.377,0.002,0.753,0,1.127c-0.004,0.467-0.244,0.744-0.694,0.753
		c-0.724,0.014-1.449,0.019-2.17,0c-0.442-0.013-0.717-0.293-0.721-0.742c-0.014-0.761-0.018-1.525,0-2.287
		c0.007-0.456,0.294-0.733,0.754-0.74c0.705-0.011,1.406-0.011,2.112,0c0.468,0.007,0.715,0.28,0.719,0.76
		C121.164,45.517,121.162,45.893,121.162,46.268 M121.162,41.088c-0.006,0.476-0.25,0.742-0.73,0.753
		c-0.699,0.015-1.404,0.019-2.107-0.004c-0.5-0.013-0.747-0.293-0.751-0.802c-0.005-0.723-0.005-1.444,0-2.167
		c0.004-0.517,0.271-0.788,0.785-0.796c0.682-0.006,1.368-0.006,2.051,0c0.489,0.008,0.747,0.264,0.753,0.757
		c0.004,0.377,0,0.751,0,1.131C121.162,40.333,121.169,40.709,121.162,41.088"/>
	<path fill="#003E2F" d="M78.376,101.051l-0.242-0.513c-0.055-0.108-0.177-0.177-0.34-0.094c-0.229,0.106-0.743,0.256-1.107,0.256
		c-1.339,0-2.299-1.066-2.299-3.61c0-2.473,0.811-3.529,2.325-3.529c0.419,0,0.73,0.109,1.041,0.258
		c0.162,0.083,0.299,0.026,0.366-0.107l0.216-0.419c0.081-0.15,0.026-0.313-0.108-0.392c-0.474-0.285-1.027-0.353-1.555-0.353
		c-2.069,0-3.503,1.677-3.503,4.527c0,2.977,1.259,4.667,3.422,4.667c0.825,0,1.31-0.191,1.663-0.365
		C78.362,101.323,78.443,101.2,78.376,101.051 M85.747,101.404v-8.521c0-0.161-0.135-0.269-0.284-0.269H84.95
		c-0.149,0-0.285,0.107-0.285,0.269v3.502h-3.421v-3.502c0-0.161-0.136-0.269-0.284-0.269h-0.515c-0.148,0-0.282,0.107-0.282,0.269
		v8.521c0,0.146,0.134,0.271,0.282,0.271h0.515c0.148,0,0.284-0.124,0.284-0.271V97.36h3.421v4.044c0,0.146,0.136,0.271,0.285,0.271
		h0.513C85.612,101.675,85.747,101.551,85.747,101.404 M92.742,101.404v-0.486c0-0.163-0.137-0.284-0.301-0.284h-3.284v-3.259h3.029
		c0.164,0,0.285-0.122,0.285-0.3v-0.416c0-0.15-0.121-0.273-0.285-0.273h-3.029v-2.758h3.3c0.176,0,0.285-0.135,0.285-0.296v-0.448
		c0-0.161-0.137-0.269-0.285-0.269h-4.109c-0.151,0-0.285,0.107-0.285,0.269v8.521c0,0.146,0.134,0.271,0.285,0.271h4.109
		C92.605,101.675,92.742,101.551,92.742,101.404 M102.424,101.444l-0.676-8.571c-0.014-0.177-0.137-0.258-0.298-0.258h-1.014
		c-0.135,0-0.256,0.095-0.285,0.216l-1.471,5.626c-0.122,0.445-0.162,1.027-0.203,1.526c-0.056-0.499-0.097-1.096-0.205-1.514
		L96.8,92.831c-0.028-0.108-0.136-0.216-0.272-0.216h-1.042c-0.16,0-0.296,0.107-0.308,0.258l-0.691,8.531
		c-0.012,0.146,0.081,0.271,0.217,0.271h0.675c0.137,0,0.217-0.096,0.231-0.245l0.391-6.286c0.026-0.338,0.026-1.393,0.026-1.824
		c0.082,0.458,0.136,1.229,0.3,1.824l1.445,5.326c0.055,0.191,0.123,0.272,0.285,0.272h0.796c0.165,0,0.231-0.081,0.286-0.272
		l1.447-5.326c0.147-0.554,0.228-1.445,0.282-1.824c0,0.458,0.028,1.513,0.043,1.838l0.351,6.287c0.014,0.135,0.094,0.23,0.258,0.23
		h0.715C102.385,101.675,102.438,101.579,102.424,101.444 M110.459,101.417v-8.544c0-0.15-0.135-0.258-0.283-0.258h-0.475
		c-0.146,0-0.283,0.107-0.283,0.258v6.015c0,0.663,0.081,1.395,0.163,1.989c-0.163-0.461-0.313-1.068-0.582-1.677l-2.811-6.397
		c-0.055-0.12-0.166-0.188-0.314-0.188h-1.026c-0.161,0-0.284,0.081-0.284,0.258v8.544c0,0.134,0.135,0.258,0.284,0.258h0.473
		c0.151,0,0.285-0.124,0.285-0.258v-6.124c0-0.515-0.092-1.419-0.164-2.001c0.164,0.582,0.341,1.203,0.598,1.768l2.866,6.398
		c0.067,0.136,0.19,0.217,0.325,0.217h0.945C110.324,101.675,110.459,101.551,110.459,101.417 M115.049,101.39v-0.297
		c0-0.15-0.108-0.285-0.27-0.285h-0.675v-7.325h0.675c0.161,0,0.27-0.138,0.27-0.287V92.9c0-0.15-0.108-0.285-0.27-0.285h-2.432
		c-0.165,0-0.272,0.135-0.272,0.285v0.295c0,0.149,0.107,0.287,0.272,0.287h0.675v7.325h-0.675c-0.165,0-0.272,0.135-0.272,0.285
		v0.297c0,0.149,0.107,0.285,0.272,0.285h2.432C114.94,101.675,115.049,101.539,115.049,101.39 M122.028,93.332v-0.448
		c0-0.161-0.121-0.269-0.27-0.269h-5.205c-0.163,0-0.296,0.107-0.296,0.269v0.448c0,0.161,0.133,0.27,0.296,0.27h2.054v7.803
		c0,0.146,0.135,0.271,0.285,0.271h0.526c0.149,0,0.285-0.124,0.285-0.271v-7.803h2.055
		C121.907,93.602,122.028,93.493,122.028,93.332 M128.496,101.404v-0.476c0-0.147-0.119-0.268-0.269-0.268h-3.476
		c-0.271,0-0.539,0.053-0.704,0.081c0.165-0.123,0.354-0.326,0.5-0.598l3.651-6.326c0.081-0.137,0.149-0.3,0.149-0.444v-0.49
		c0-0.161-0.121-0.269-0.271-0.269h-4.569c-0.162,0-0.297,0.107-0.297,0.269v0.448c0,0.15,0.135,0.27,0.297,0.27h3.109
		c0.313,0,0.579-0.026,0.783-0.083c-0.161,0.138-0.365,0.342-0.5,0.571l-3.689,6.38c-0.058,0.095-0.123,0.23-0.123,0.38v0.555
		c0,0.146,0.123,0.271,0.271,0.271h4.868C128.377,101.675,128.496,101.551,128.496,101.404"/>
	<path fill="#003E2F" d="M36.016,77.106v-0.447c0-0.162-0.122-0.271-0.27-0.271H30.54c-0.162,0-0.297,0.108-0.297,0.271v0.447
		c0,0.163,0.135,0.271,0.297,0.271h2.056v7.8c0,0.15,0.135,0.273,0.284,0.273h0.528c0.148,0,0.283-0.123,0.283-0.273v-7.8h2.055
		C35.894,77.377,36.016,77.27,36.016,77.106 M42.045,85.177v-0.484c0-0.162-0.135-0.283-0.297-0.283h-3.286v-3.261h3.03
		c0.161,0,0.282-0.12,0.282-0.297v-0.419c0-0.147-0.121-0.27-0.282-0.27h-3.03v-2.758h3.299c0.176,0,0.284-0.136,0.284-0.299v-0.447
		c0-0.162-0.135-0.271-0.284-0.271h-4.11c-0.149,0-0.283,0.108-0.283,0.271v8.518c0,0.15,0.134,0.273,0.283,0.273h4.11
		C41.91,85.45,42.045,85.327,42.045,85.177 M48.688,84.826l-0.243-0.512c-0.055-0.107-0.177-0.178-0.339-0.098
		c-0.229,0.109-0.743,0.26-1.11,0.26c-1.335,0-2.297-1.067-2.297-3.609c0-2.478,0.812-3.531,2.325-3.531
		c0.421,0,0.731,0.109,1.042,0.256c0.163,0.082,0.298,0.029,0.365-0.106l0.217-0.42c0.081-0.149,0.026-0.312-0.11-0.393
		c-0.472-0.284-1.026-0.351-1.553-0.351c-2.071,0-3.504,1.677-3.504,4.529c0,2.975,1.259,4.663,3.422,4.663
		c0.825,0,1.311-0.188,1.663-0.362C48.673,85.097,48.754,84.976,48.688,84.826 M56.058,85.177v-8.518
		c0-0.162-0.136-0.271-0.284-0.271h-0.514c-0.149,0-0.284,0.108-0.284,0.271v3.504h-3.42v-3.504c0-0.162-0.136-0.271-0.284-0.271
		h-0.515c-0.148,0-0.284,0.108-0.284,0.271v8.518c0,0.15,0.136,0.273,0.284,0.273h0.515c0.148,0,0.284-0.123,0.284-0.273v-4.042
		h3.42v4.042c0,0.15,0.135,0.273,0.284,0.273h0.514C55.921,85.45,56.058,85.327,56.058,85.177 M64.269,85.192v-8.546
		c0-0.149-0.136-0.258-0.284-0.258h-0.475c-0.148,0-0.284,0.108-0.284,0.258v6.019c0,0.66,0.082,1.391,0.162,1.986
		c-0.162-0.46-0.31-1.068-0.579-1.676l-2.815-6.396c-0.053-0.122-0.161-0.191-0.31-0.191h-1.026c-0.164,0-0.285,0.083-0.285,0.258
		v8.546c0,0.135,0.134,0.258,0.285,0.258h0.471c0.149,0,0.284-0.123,0.284-0.258v-6.126c0-0.513-0.094-1.419-0.162-2.001
		c0.162,0.582,0.339,1.205,0.595,1.771l2.866,6.396c0.068,0.136,0.19,0.218,0.325,0.218h0.948
		C64.132,85.45,64.269,85.327,64.269,85.192 M68.858,85.166v-0.298c0-0.151-0.11-0.284-0.271-0.284h-0.676v-7.328h0.676
		c0.161,0,0.271-0.135,0.271-0.284v-0.299c0-0.148-0.11-0.284-0.271-0.284h-2.433c-0.163,0-0.271,0.136-0.271,0.284v0.299
		c0,0.149,0.108,0.284,0.271,0.284h0.674v7.328h-0.674c-0.163,0-0.271,0.133-0.271,0.284v0.298c0,0.149,0.108,0.284,0.271,0.284
		h2.433C68.749,85.45,68.858,85.315,68.858,85.166 M75.36,82.921c0-1.448-0.703-2.029-1.703-2.462l-0.743-0.325
		c-0.757-0.323-1.393-0.646-1.393-1.443c0-0.84,0.459-1.343,1.568-1.343c0.554,0,0.946,0.124,1.392,0.259
		c0.109,0.026,0.27-0.067,0.311-0.218l0.11-0.432c0.039-0.148-0.042-0.311-0.162-0.351c-0.407-0.135-1.097-0.284-1.651-0.284
		c-1.758,0-2.731,1.025-2.731,2.407c0,1.514,1.026,2.002,2.014,2.419l0.635,0.271c0.717,0.312,1.163,0.704,1.163,1.541
		c0,0.907-0.553,1.517-1.635,1.517c-0.676,0-1.327-0.219-1.812-0.394c-0.189-0.066-0.312,0.041-0.352,0.19l-0.135,0.525
		c-0.04,0.15,0.014,0.271,0.189,0.339c0.514,0.189,1.353,0.377,2.096,0.377C74.509,85.515,75.36,84.286,75.36,82.921 M82.086,84.826
		l-0.245-0.512c-0.054-0.107-0.175-0.178-0.337-0.098c-0.23,0.109-0.743,0.26-1.108,0.26c-1.34,0-2.3-1.067-2.3-3.609
		c0-2.478,0.812-3.531,2.325-3.531c0.42,0,0.732,0.109,1.042,0.256c0.162,0.082,0.298,0.029,0.366-0.106l0.216-0.42
		c0.081-0.149,0.028-0.312-0.108-0.393c-0.474-0.284-1.027-0.351-1.556-0.351c-2.068,0-3.502,1.677-3.502,4.529
		c0,2.975,1.259,4.663,3.422,4.663c0.824,0,1.312-0.188,1.662-0.362C82.073,85.097,82.154,84.976,82.086,84.826 M89.458,85.177
		v-8.518c0-0.162-0.134-0.271-0.284-0.271h-0.514c-0.149,0-0.284,0.108-0.284,0.271v3.504h-3.421v-3.504
		c0-0.162-0.135-0.271-0.285-0.271h-0.512c-0.15,0-0.285,0.108-0.285,0.271v8.518c0,0.15,0.135,0.273,0.285,0.273h0.512
		c0.15,0,0.285-0.123,0.285-0.273v-4.042h3.421v4.042c0,0.15,0.135,0.273,0.284,0.273h0.514
		C89.323,85.45,89.458,85.327,89.458,85.177 M96.451,85.177v-0.484c0-0.162-0.138-0.283-0.299-0.283h-3.285v-3.261h3.029
		c0.161,0,0.283-0.12,0.283-0.297v-0.419c0-0.147-0.122-0.27-0.283-0.27h-3.029v-2.758h3.297c0.177,0,0.287-0.136,0.287-0.299
		v-0.447c0-0.162-0.138-0.271-0.287-0.271h-4.109c-0.149,0-0.283,0.108-0.283,0.271v8.518c0,0.15,0.134,0.273,0.283,0.273h4.109
		C96.313,85.45,96.451,85.327,96.451,85.177 M107.658,82.731v-6.072c0-0.162-0.135-0.271-0.284-0.271h-0.515
		c-0.146,0-0.283,0.108-0.283,0.271v5.991c0,1.607-0.756,1.934-1.757,1.934c-1.299,0-1.703-0.798-1.703-2.096v-5.829
		c0-0.162-0.137-0.271-0.286-0.271h-0.514c-0.149,0-0.282,0.108-0.282,0.271v6.072c0,1.704,0.796,2.783,2.785,2.783
		C106.698,85.515,107.658,84.515,107.658,82.731 M115.857,85.192v-8.546c0-0.149-0.136-0.258-0.284-0.258h-0.471
		c-0.15,0-0.286,0.108-0.286,0.258v6.019c0,0.66,0.08,1.391,0.163,1.986c-0.163-0.46-0.313-1.068-0.582-1.676l-2.813-6.396
		c-0.054-0.122-0.163-0.191-0.313-0.191h-1.028c-0.161,0-0.28,0.083-0.28,0.258v8.546c0,0.135,0.133,0.258,0.28,0.258h0.474
		c0.151,0,0.285-0.123,0.285-0.258v-6.126c0-0.513-0.093-1.419-0.161-2.001c0.161,0.582,0.336,1.205,0.595,1.771l2.865,6.396
		c0.067,0.136,0.191,0.218,0.325,0.218h0.946C115.722,85.45,115.857,85.327,115.857,85.192 M120.448,85.166v-0.298
		c0-0.151-0.109-0.284-0.272-0.284h-0.674v-7.328h0.674c0.163,0,0.272-0.135,0.272-0.284v-0.299c0-0.148-0.109-0.284-0.272-0.284
		h-2.432c-0.163,0-0.272,0.136-0.272,0.284v0.299c0,0.149,0.109,0.284,0.272,0.284h0.675v7.328h-0.675
		c-0.163,0-0.272,0.133-0.272,0.284v0.298c0,0.149,0.109,0.284,0.272,0.284h2.432C120.339,85.45,120.448,85.315,120.448,85.166
		 M128.057,76.659c0.042-0.147-0.064-0.271-0.216-0.271h-0.581c-0.147,0-0.281,0.108-0.323,0.271l-1.759,6.547
		c-0.095,0.335-0.218,1.025-0.297,1.486c-0.067-0.476-0.188-1.151-0.285-1.486l-1.756-6.547c-0.054-0.188-0.177-0.271-0.354-0.271
		h-0.688c-0.147,0-0.257,0.123-0.203,0.284l2.529,8.504c0.041,0.15,0.216,0.273,0.364,0.273h0.756c0.151,0,0.326-0.123,0.366-0.273
		L128.057,76.659z M134.291,85.177v-0.484c0-0.162-0.134-0.283-0.297-0.283h-3.285v-3.261h3.029c0.162,0,0.284-0.12,0.284-0.297
		v-0.419c0-0.147-0.122-0.27-0.284-0.27h-3.029v-2.758h3.298c0.178,0,0.284-0.136,0.284-0.299v-0.447
		c0-0.162-0.134-0.271-0.284-0.271h-4.109c-0.149,0-0.282,0.108-0.282,0.271v8.518c0,0.15,0.133,0.273,0.282,0.273h4.109
		C134.157,85.45,134.291,85.327,134.291,85.177 M141.885,85.124c-0.542-1.514-0.944-2.54-1.067-2.798
		c-0.296-0.636-0.838-1.338-1.649-1.475c1.217-0.08,2.162-0.921,2.162-2.259c0-0.85-0.471-2.204-2.689-2.204h-2.285
		c-0.149,0-0.284,0.108-0.284,0.271v8.518c0,0.15,0.135,0.273,0.284,0.273h0.528c0.146,0,0.283-0.123,0.283-0.273v-3.866h0.716
		c1.001,0,1.419,0.597,1.731,1.149c0.392,0.691,0.648,1.65,1.028,2.826c0.039,0.122,0.136,0.164,0.242,0.164h0.812
		C141.898,85.45,141.953,85.315,141.885,85.124 M140.208,78.756c0,1.001-0.661,1.583-1.729,1.583h-1.312v-2.962h1.459
		C139.669,77.377,140.208,77.958,140.208,78.756 M148.442,82.921c0-1.448-0.704-2.029-1.703-2.462l-0.745-0.325
		c-0.756-0.323-1.392-0.646-1.392-1.443c0-0.84,0.458-1.343,1.565-1.343c0.556,0,0.95,0.124,1.396,0.259
		c0.108,0.026,0.27-0.067,0.309-0.218l0.109-0.432c0.04-0.148-0.04-0.311-0.161-0.351c-0.406-0.135-1.097-0.284-1.652-0.284
		c-1.757,0-2.729,1.025-2.729,2.407c0,1.514,1.027,2.002,2.015,2.419l0.635,0.271c0.717,0.312,1.164,0.704,1.164,1.541
		c0,0.907-0.555,1.517-1.637,1.517c-0.676,0-1.325-0.219-1.811-0.394c-0.19-0.066-0.312,0.041-0.353,0.19l-0.134,0.525
		c-0.04,0.15,0.012,0.271,0.188,0.339c0.514,0.189,1.354,0.377,2.097,0.377C147.59,85.515,148.442,84.286,148.442,82.921
		 M152.564,85.166v-0.298c0-0.151-0.109-0.284-0.271-0.284h-0.675v-7.328h0.675c0.161,0,0.271-0.135,0.271-0.284v-0.299
		c0-0.148-0.109-0.284-0.271-0.284h-2.434c-0.162,0-0.271,0.136-0.271,0.284v0.299c0,0.149,0.108,0.284,0.271,0.284h0.676v7.328
		h-0.676c-0.162,0-0.271,0.133-0.271,0.284v0.298c0,0.149,0.108,0.284,0.271,0.284h2.434
		C152.455,85.45,152.564,85.315,152.564,85.166 M159.543,77.106v-0.447c0-0.162-0.121-0.271-0.268-0.271h-5.207
		c-0.161,0-0.297,0.108-0.297,0.271v0.447c0,0.163,0.136,0.271,0.297,0.271h2.055v7.8c0,0.15,0.135,0.273,0.285,0.273h0.526
		c0.147,0,0.283-0.123,0.283-0.273v-7.8h2.058C159.422,77.377,159.543,77.27,159.543,77.106 M166.081,85.152l-2.651-8.493
		c-0.056-0.188-0.215-0.271-0.364-0.271h-0.851c-0.15,0-0.312,0.083-0.367,0.271l-2.486,8.493c-0.056,0.163,0.041,0.298,0.188,0.298
		h0.663c0.149,0,0.283-0.123,0.323-0.273l0.61-2.256h3.027l0.648,2.256c0.042,0.15,0.217,0.273,0.366,0.273h0.702
		C166.039,85.45,166.134,85.315,166.081,85.152 M163.916,82.002h-2.528l1.042-3.922c0.094-0.351,0.161-0.732,0.202-1.108
		c0.056,0.364,0.109,0.771,0.204,1.108L163.916,82.002z M162.16,75.267c0-0.363-0.286-0.636-0.665-0.636
		c-0.322,0-0.62,0.272-0.62,0.636c0,0.38,0.298,0.663,0.635,0.663C161.889,75.93,162.16,75.646,162.16,75.267 M164.525,75.267
		c0-0.363-0.284-0.636-0.662-0.636c-0.326,0-0.622,0.272-0.622,0.636c0,0.38,0.296,0.663,0.634,0.663
		C164.256,75.93,164.525,75.646,164.525,75.267 M171.9,77.106v-0.447c0-0.162-0.121-0.271-0.271-0.271h-5.205
		c-0.162,0-0.297,0.108-0.297,0.271v0.447c0,0.163,0.135,0.271,0.297,0.271h2.056v7.8c0,0.15,0.135,0.273,0.284,0.273h0.527
		c0.148,0,0.284-0.123,0.284-0.273v-7.8h2.054C171.779,77.377,171.9,77.27,171.9,77.106"/>
</g>
<g>
	<rect x="-0.237" fill="none" width="202.141" height="132.083"/>
</g>
</svg>
