<?xml version="1.0" encoding="UTF-8" standalone="no"?>
<svg
   xmlns:dc="http://purl.org/dc/elements/1.1/"
   xmlns:cc="http://creativecommons.org/ns#"
   xmlns:rdf="http://www.w3.org/1999/02/22-rdf-syntax-ns#"
   xmlns:svg="http://www.w3.org/2000/svg"
   xmlns="http://www.w3.org/2000/svg"
   xmlns:sodipodi="http://sodipodi.sourceforge.net/DTD/sodipodi-0.dtd"
   xmlns:inkscape="http://www.inkscape.org/namespaces/inkscape"
   sodipodi:docname="linearperceptron.svg"
   inkscape:version="1.0 (4035a4fb49, 2020-05-01)"
   id="svg8"
   version="1.1"
   viewBox="0 0 220.42647 193.03976"
   height="193.03976mm"
   width="220.42647mm">
  <defs
     id="defs2">
    <marker
       inkscape:stockid="Arrow1Lend"
       orient="auto"
       refY="0.0"
       refX="0.0"
       id="marker1262"
       style="overflow:visible;"
       inkscape:isstock="true">
      <path
         id="path1260"
         d="M 0.0,0.0 L 5.0,-5.0 L -12.5,0.0 L 5.0,5.0 L 0.0,0.0 z "
         style="fill-rule:evenodd;stroke:#000000;stroke-width:1pt;stroke-opacity:1;fill:#000000;fill-opacity:1"
         transform="scale(0.8) rotate(180) translate(12.5,0)" />
    </marker>
    <marker
       inkscape:stockid="Arrow1Lend"
       orient="auto"
       refY="0.0"
       refX="0.0"
       id="marker1252"
       style="overflow:visible;"
       inkscape:isstock="true">
      <path
         id="path1250"
         d="M 0.0,0.0 L 5.0,-5.0 L -12.5,0.0 L 5.0,5.0 L 0.0,0.0 z "
         style="fill-rule:evenodd;stroke:#000000;stroke-width:1pt;stroke-opacity:1;fill:#000000;fill-opacity:1"
         transform="scale(0.8) rotate(180) translate(12.5,0)" />
    </marker>
    <marker
       inkscape:stockid="Arrow1Lend"
       orient="auto"
       refY="0.0"
       refX="0.0"
       id="marker1242"
       style="overflow:visible;"
       inkscape:isstock="true">
      <path
         id="path1240"
         d="M 0.0,0.0 L 5.0,-5.0 L -12.5,0.0 L 5.0,5.0 L 0.0,0.0 z "
         style="fill-rule:evenodd;stroke:#000000;stroke-width:1pt;stroke-opacity:1;fill:#000000;fill-opacity:1"
         transform="scale(0.8) rotate(180) translate(12.5,0)" />
    </marker>
    <marker
       inkscape:collect="always"
       inkscape:isstock="true"
       style="overflow:visible;"
       id="Arrow1Lend"
       refX="0.0"
       refY="0.0"
       orient="auto"
       inkscape:stockid="Arrow1Lend">
      <path
         transform="scale(0.8) rotate(180) translate(12.5,0)"
         style="fill-rule:evenodd;stroke:#000000;stroke-width:1.0pt;"
         d="M 0.0,0.0 L 5.0,-5.0 L -12.5,0.0 L 5.0,5.0 L 0.0,0.0 z "
         id="path881" />
    </marker>
    <marker
       inkscape:stockid="Arrow1Lstart"
       orient="auto"
       refY="0.0"
       refX="0.0"
       id="marker1170"
       style="overflow:visible"
       inkscape:isstock="true">
      <path
         id="path1168"
         d="M 0.0,0.0 L 5.0,-5.0 L -12.5,0.0 L 5.0,5.0 L 0.0,0.0 z "
         style="fill-rule:evenodd;stroke:#000000;stroke-width:1pt;stroke-opacity:1;fill:#000000;fill-opacity:1"
         transform="scale(0.8) translate(12.5,0)" />
    </marker>
    <marker
       inkscape:stockid="Arrow1Lstart"
       orient="auto"
       refY="0.0"
       refX="0.0"
       id="marker1160"
       style="overflow:visible"
       inkscape:isstock="true">
      <path
         id="path1158"
         d="M 0.0,0.0 L 5.0,-5.0 L -12.5,0.0 L 5.0,5.0 L 0.0,0.0 z "
         style="fill-rule:evenodd;stroke:#000000;stroke-width:1pt;stroke-opacity:1;fill:#000000;fill-opacity:1"
         transform="scale(0.8) translate(12.5,0)" />
    </marker>
    <marker
       inkscape:stockid="Arrow1Lstart"
       orient="auto"
       refY="0.0"
       refX="0.0"
       id="marker1150"
       style="overflow:visible"
       inkscape:isstock="true">
      <path
         id="path1148"
         d="M 0.0,0.0 L 5.0,-5.0 L -12.5,0.0 L 5.0,5.0 L 0.0,0.0 z "
         style="fill-rule:evenodd;stroke:#000000;stroke-width:1pt;stroke-opacity:1;fill:#000000;fill-opacity:1"
         transform="scale(0.8) translate(12.5,0)" />
    </marker>
  </defs>
  <sodipodi:namedview
     inkscape:document-rotation="0"
     fit-margin-bottom="0"
     fit-margin-right="0"
     fit-margin-left="0"
     fit-margin-top="0"
     inkscape:window-maximized="1"
     inkscape:window-y="0"
     inkscape:window-x="0"
     inkscape:window-height="1408"
     inkscape:window-width="2560"
     showgrid="false"
     inkscape:current-layer="layer1"
     inkscape:document-units="mm"
     inkscape:cy="378.21299"
     inkscape:cx="429.7084"
     inkscape:zoom="0.98994949"
     inkscape:pageshadow="2"
     inkscape:pageopacity="0.0"
     borderopacity="1.0"
     bordercolor="#666666"
     pagecolor="#ffffff"
     id="base" />
  <metadata
     id="metadata5">
    <rdf:RDF>
      <cc:Work
         rdf:about="">
        <dc:format>image/svg+xml</dc:format>
        <dc:type
           rdf:resource="http://purl.org/dc/dcmitype/StillImage" />
        <dc:title />
      </cc:Work>
    </rdf:RDF>
  </metadata>
  <g
     transform="translate(-15.888884,-94.788539)"
     id="layer1"
     inkscape:groupmode="layer"
     inkscape:label="Layer 1">
    <ellipse
       ry="13.630746"
       rx="12.962572"
       cy="127.28384"
       cx="29.301456"
       id="path815"
       style="fill:none;fill-opacity:0.42276426;stroke:#000000;stroke-width:0.89999998;stroke-miterlimit:4;stroke-dasharray:none;stroke-dashoffset:0;stroke-opacity:1" />
    <ellipse
       ry="13.630746"
       rx="12.962572"
       cy="163.89978"
       cx="29.301456"
       id="path815-3"
       style="fill:none;fill-opacity:0.42276426;stroke:#000000;stroke-width:0.90000004;stroke-miterlimit:4;stroke-dasharray:none;stroke-dashoffset:0;stroke-opacity:1" />
    <ellipse
       ry="13.630746"
       rx="12.962572"
       cy="200.51569"
       cx="29.301456"
       id="path815-6"
       style="fill:none;fill-opacity:0.42276426;stroke:#000000;stroke-width:0.90000004;stroke-miterlimit:4;stroke-dasharray:none;stroke-dashoffset:0;stroke-opacity:1" />
    <ellipse
       ry="13.630746"
       rx="12.962572"
       cy="237.13162"
       cx="29.301456"
       id="path815-7"
       style="fill:none;fill-opacity:0.42276426;stroke:#000000;stroke-width:0.90000004;stroke-miterlimit:4;stroke-dasharray:none;stroke-dashoffset:0;stroke-opacity:1" />
    <ellipse
       ry="13.630746"
       rx="12.962572"
       cy="273.74756"
       cx="29.301456"
       id="path815-5"
       style="fill:none;fill-opacity:0.42276426;stroke:#000000;stroke-width:0.90000004;stroke-miterlimit:4;stroke-dasharray:none;stroke-dashoffset:0;stroke-opacity:1" />
    <ellipse
       ry="13.630746"
       rx="12.962572"
       cy="160.15799"
       cx="139.51469"
       id="path815-6-2"
       style="fill:none;fill-opacity:0.42276426;stroke:#000000;stroke-width:0.9000001;stroke-miterlimit:4;stroke-dasharray:none;stroke-dashoffset:0;stroke-opacity:1" />
    <ellipse
       ry="13.630746"
       rx="12.962572"
       cy="196.77393"
       cx="139.51469"
       id="path815-7-9"
       style="fill:none;fill-opacity:0.42276426;stroke:#000000;stroke-width:0.9000001;stroke-miterlimit:4;stroke-dasharray:none;stroke-dashoffset:0;stroke-opacity:1" />
    <ellipse
       ry="13.630746"
       rx="12.962572"
       cy="233.38986"
       cx="139.51469"
       id="path815-5-1"
       style="fill:none;fill-opacity:0.42276426;stroke:#000000;stroke-width:0.9000001;stroke-miterlimit:4;stroke-dasharray:none;stroke-dashoffset:0;stroke-opacity:1" />
    <ellipse
       ry="13.630746"
       rx="12.962572"
       cy="160.69252"
       cx="222.90279"
       id="path815-6-2-2"
       style="fill:none;fill-opacity:0.42276426;stroke:#000000;stroke-width:0.9000001;stroke-miterlimit:4;stroke-dasharray:none;stroke-dashoffset:0;stroke-opacity:1" />
    <ellipse
       ry="13.630746"
       rx="12.962572"
       cy="197.30846"
       cx="222.90279"
       id="path815-7-9-7"
       style="fill:none;fill-opacity:0.42276426;stroke:#000000;stroke-width:0.9000001;stroke-miterlimit:4;stroke-dasharray:none;stroke-dashoffset:0;stroke-opacity:1" />
    <ellipse
       ry="13.630746"
       rx="12.962572"
       cy="233.92439"
       cx="222.90279"
       id="path815-5-1-0"
       style="fill:none;fill-opacity:0.42276426;stroke:#000000;stroke-width:0.9000001;stroke-miterlimit:4;stroke-dasharray:none;stroke-dashoffset:0;stroke-opacity:1" />
    <path
       sodipodi:nodetypes="cc"
       inkscape:connector-curvature="0"
       id="path898"
       d="M 41.961314,128.08566 128.0221,154.01081"
       style="fill:none;stroke:#000000;stroke-width:0.86500001;stroke-linecap:butt;stroke-linejoin:miter;stroke-miterlimit:4;stroke-dasharray:none;stroke-opacity:1" />
    <path
       sodipodi:nodetypes="cc"
       inkscape:connector-curvature="0"
       id="path898-9"
       d="M 41.961314,128.08566 128.0221,189.15675"
       style="fill:none;stroke:#000000;stroke-width:0.86500001;stroke-linecap:butt;stroke-linejoin:miter;stroke-miterlimit:4;stroke-dasharray:none;stroke-opacity:1" />
    <path
       sodipodi:nodetypes="cc"
       inkscape:connector-curvature="0"
       id="path898-9-3"
       d="M 41.961314,128.08566 129.89299,223.5677"
       style="fill:none;stroke:#000000;stroke-width:0.86500001;stroke-linecap:butt;stroke-linejoin:miter;stroke-miterlimit:4;stroke-dasharray:none;stroke-opacity:1" />
    <path
       sodipodi:nodetypes="cc"
       inkscape:connector-curvature="0"
       id="path898-9-6"
       d="m 42.228586,164.3675 83.388094,-5.47903"
       style="fill:none;stroke:#000000;stroke-width:0.86500001;stroke-linecap:butt;stroke-linejoin:miter;stroke-miterlimit:4;stroke-dasharray:none;stroke-opacity:1" />
    <path
       sodipodi:nodetypes="cc"
       inkscape:connector-curvature="0"
       id="path898-9-6-0"
       d="m 42.228586,164.3675 83.922634,30.20145"
       style="fill:none;stroke:#000000;stroke-width:0.86500001;stroke-linecap:butt;stroke-linejoin:miter;stroke-miterlimit:4;stroke-dasharray:none;stroke-opacity:1" />
    <path
       sodipodi:nodetypes="cc"
       inkscape:connector-curvature="0"
       id="path898-9-6-6"
       d="m 42.228586,164.3675 84.724434,64.41195"
       style="fill:none;stroke:#000000;stroke-width:0.86500001;stroke-linecap:butt;stroke-linejoin:miter;stroke-miterlimit:4;stroke-dasharray:none;stroke-opacity:1" />
    <path
       sodipodi:nodetypes="cc"
       inkscape:connector-curvature="0"
       id="path898-9-6-2"
       d="m 42.228586,200.98343 83.388094,33.67595"
       style="fill:none;stroke:#000000;stroke-width:0.86500001;stroke-linecap:butt;stroke-linejoin:miter;stroke-miterlimit:4;stroke-dasharray:none;stroke-opacity:1" />
    <path
       sodipodi:nodetypes="cc"
       inkscape:connector-curvature="0"
       id="path898-9-6-2-6"
       d="m 42.228586,200.98343 84.189904,-1.00228"
       style="fill:none;stroke:#000000;stroke-width:0.86500001;stroke-linecap:butt;stroke-linejoin:miter;stroke-miterlimit:4;stroke-dasharray:none;stroke-opacity:1" />
    <path
       sodipodi:nodetypes="cc"
       inkscape:connector-curvature="0"
       id="path898-9-6-2-6-1"
       d="M 42.629488,237.90004 130.82843,169.81311"
       style="fill:none;stroke:#000000;stroke-width:0.86500001;stroke-linecap:butt;stroke-linejoin:miter;stroke-miterlimit:4;stroke-dasharray:none;stroke-opacity:1" />
    <path
       sodipodi:nodetypes="cc"
       inkscape:connector-curvature="0"
       id="path898-9-6-2-6-8"
       d="M 42.228586,200.98343 127.35393,164.73499"
       style="fill:none;stroke:#000000;stroke-width:0.86500001;stroke-linecap:butt;stroke-linejoin:miter;stroke-miterlimit:4;stroke-dasharray:none;stroke-opacity:1" />
    <path
       sodipodi:nodetypes="cc"
       inkscape:connector-curvature="0"
       id="path898-9-6-2-6-1-7"
       d="M 42.629488,237.90004 129.09118,204.69178"
       style="fill:none;stroke:#000000;stroke-width:0.86500001;stroke-linecap:butt;stroke-linejoin:miter;stroke-miterlimit:4;stroke-dasharray:none;stroke-opacity:1" />
    <path
       sodipodi:nodetypes="cc"
       inkscape:connector-curvature="0"
       id="path898-9-6-2-6-1-9"
       d="m 42.629488,237.90004 85.927162,2.33858"
       style="fill:none;stroke:#000000;stroke-width:0.86500001;stroke-linecap:butt;stroke-linejoin:miter;stroke-miterlimit:4;stroke-dasharray:none;stroke-opacity:1" />
    <path
       sodipodi:nodetypes="cc"
       inkscape:connector-curvature="0"
       id="path898-9-6-2-6-1-9-2"
       d="M 42.562668,274.44915 131.69706,244.71539"
       style="fill:none;stroke:#000000;stroke-width:0.86500001;stroke-linecap:butt;stroke-linejoin:miter;stroke-miterlimit:4;stroke-dasharray:none;stroke-opacity:1" />
    <path
       sodipodi:nodetypes="cc"
       inkscape:connector-curvature="0"
       id="path898-9-6-2-6-1-9-2-0"
       d="M 42.562668,274.44915 134.10248,209.70309"
       style="fill:none;stroke:#000000;stroke-width:0.86500001;stroke-linecap:butt;stroke-linejoin:miter;stroke-miterlimit:4;stroke-dasharray:none;stroke-opacity:1" />
    <path
       sodipodi:nodetypes="cc"
       inkscape:connector-curvature="0"
       id="path898-9-6-2-6-1-9-2-0-2"
       d="M 42.562668,274.44915 135.83973,173.22079"
       style="fill:none;stroke:#000000;stroke-width:0.86500001;stroke-linecap:butt;stroke-linejoin:miter;stroke-miterlimit:4;stroke-dasharray:none;stroke-opacity:1" />
    <path
       sodipodi:nodetypes="cc"
       inkscape:connector-curvature="0"
       id="path898-9-6-2-6-1-9-2-0-3"
       d="m 152.81135,159.38961 56.79477,0.20043"
       style="fill:none;stroke:#000000;stroke-width:0.865;stroke-linecap:butt;stroke-linejoin:miter;stroke-miterlimit:4;stroke-dasharray:none;stroke-opacity:1;marker-start:url(#marker1150);marker-end:url(#marker1242)" />
    <path
       sodipodi:nodetypes="cc"
       inkscape:connector-curvature="0"
       id="path898-9-6-2-6-1-9-2-0-3-7"
       d="m 152.81135,196.13917 56.79477,0.20043"
       style="fill:none;stroke:#000000;stroke-width:0.865;stroke-linecap:butt;stroke-linejoin:miter;stroke-miterlimit:4;stroke-dasharray:none;stroke-opacity:1;marker-start:url(#marker1160);marker-end:url(#marker1252)" />
    <path
       sodipodi:nodetypes="cc"
       inkscape:connector-curvature="0"
       id="path898-9-6-2-6-1-9-2-0-3-5"
       d="m 152.00955,233.82418 56.79477,0.20043"
       style="fill:none;stroke:#000000;stroke-width:0.865;stroke-linecap:butt;stroke-linejoin:miter;stroke-miterlimit:4;stroke-dasharray:none;stroke-opacity:1;marker-start:url(#marker1170);marker-end:url(#marker1262)" />
    <g
       transform="translate(-59.333835,0.53453906)"
       id="g1127">
      <g
         style="font-style:normal;font-variant:normal;font-weight:normal;font-stretch:normal;letter-spacing:normal;word-spacing:normal;text-anchor:start;fill:none;fill-opacity:1;fill-rule:evenodd;stroke:#000000;stroke-linecap:butt;stroke-linejoin:miter;stroke-miterlimit:10.43299961;stroke-dasharray:none;stroke-dashoffset:0;stroke-opacity:1"
         id="content"
         transform="matrix(0.3,0,0,-0.3,-52.5,222.75)"
         xml:space="preserve"
         stroke-miterlimit="10.433"
         font-style="normal"
         font-variant="normal"
         font-weight="normal"
         font-stretch="normal"
         font-size-adjust="none"
         letter-spacing="normal"
         word-spacing="normal"><path
           style="fill:#000000;stroke-width:0"
           inkscape:connector-curvature="0"
           d="m 472.75,418.45 5.83,6.48 c 0.66,0.71 0.96,1.05 5.1,1.05 v 2.34 c -1.75,-0.11 -4.35,-0.15 -4.6,-0.15 -1.25,0 -3.73,0.11 -5.12,0.15 v -2.34 c 0.68,0 1.29,-0.11 1.89,-0.45 -0.21,-0.3 -0.21,-0.39 -0.41,-0.6 l -4.17,-4.68 -4.89,5.73 h 2 v 2.34 c -1.3,-0.04 -4.44,-0.15 -6.03,-0.15 -1.6,0 -3.85,0.11 -5.49,0.15 v -2.34 h 3.53 l 7.79,-9.17 -6.54,-7.33 c -0.84,-0.94 -2.64,-0.94 -5.03,-0.94 v -2.34 c 1.75,0.09 4.35,0.16 4.58,0.16 1.25,0 4.14,-0.11 5.14,-0.16 v 2.34 c -0.89,0 -1.84,0.25 -1.84,0.55 0,0.05 0,0.09 0.34,0.5 l 4.85,5.42 5.46,-6.47 h -1.93 v -2.34 c 1.29,0.05 4.33,0.16 5.98,0.16 1.6,0 3.83,-0.11 5.47,-0.16 v 2.34 h -3.53 z"
           id="path1124" /></g>
    </g>
    <g
       transform="translate(51.04848,27.796031)"
       id="g1173">
      <g
         style="font-style:normal;font-variant:normal;font-weight:normal;font-stretch:normal;letter-spacing:normal;word-spacing:normal;text-anchor:start;fill:none;fill-opacity:1;fill-rule:evenodd;stroke:#000000;stroke-linecap:butt;stroke-linejoin:miter;stroke-miterlimit:10.43299961;stroke-dasharray:none;stroke-dashoffset:0;stroke-opacity:1"
         id="g1171"
         transform="matrix(0.3,0,0,-0.3,-52.5,222.75)"
         xml:space="preserve"
         stroke-miterlimit="10.433"
         font-style="normal"
         font-variant="normal"
         font-weight="normal"
         font-stretch="normal"
         font-size-adjust="none"
         letter-spacing="normal"
         word-spacing="normal"><path
           style="fill:#000000;stroke-width:0"
           inkscape:connector-curvature="0"
           d="m 480.72,424.93 0.07,0.13 0.06,0.12 0.04,0.06 0.03,0.05 0.04,0.05 0.04,0.05 0.05,0.05 0.05,0.05 0.05,0.04 0.06,0.04 0.06,0.04 0.07,0.04 0.08,0.04 0.09,0.03 0.09,0.03 0.1,0.03 0.12,0.03 0.12,0.02 0.13,0.03 0.07,0.01 0.07,0.01 0.08,0.01 0.08,0.01 0.08,0.01 0.09,0.01 h 0.09 l 0.09,0.01 0.1,0.01 h 0.1 l 0.1,0.01 h 0.11 l 0.11,0.01 h 0.11 l 0.12,0.01 h 0.12 0.13 l 0.13,0.01 h 0.13 0.14 0.14 0.15 v 2.34 c -1.19,-0.11 -2.69,-0.15 -3.94,-0.15 -1.23,0 -3.48,0.11 -4.53,0.15 v -2.34 c 0.11,0 2.35,0 2.35,-0.59 0,-0.07 -0.21,-0.55 -0.25,-0.61 l -5.72,-12.25 -6.33,13.45 h 2.69 v 2.34 c -1.64,-0.11 -6.13,-0.15 -6.19,-0.15 -1.39,0 -3.63,0.11 -5.67,0.15 v -2.34 H 460 l 9.32,-19.78 -1.14,-2.39 c -1.1,-2.39 -2.69,-5.78 -6.24,-5.78 -0.69,0 -0.8,0.04 -1.19,0.2 0.44,0.2 1.6,0.89 1.6,2.64 0,1.64 -1.21,2.84 -2.89,2.84 -1.39,0 -2.85,-0.95 -2.85,-2.89 0,-2.54 2.35,-4.59 5.33,-4.59 3.85,0 6.74,3.09 8.08,5.94 z"
           id="path1169" /></g>
    </g>
    <g
       transform="translate(136.30746,29.132379)"
       id="g1222">
      <g
         style="font-style:normal;font-variant:normal;font-weight:normal;font-stretch:normal;letter-spacing:normal;word-spacing:normal;text-anchor:start;fill:none;fill-opacity:1;fill-rule:evenodd;stroke:#000000;stroke-linecap:butt;stroke-linejoin:miter;stroke-miterlimit:10.43299961;stroke-dasharray:none;stroke-dashoffset:0;stroke-opacity:1"
         id="g1220"
         transform="matrix(0.3,0,0,-0.3,-52.5,222.75)"
         xml:space="preserve"
         stroke-miterlimit="10.433"
         font-style="normal"
         font-variant="normal"
         font-weight="normal"
         font-stretch="normal"
         font-size-adjust="none"
         letter-spacing="normal"
         word-spacing="normal"><path
           style="fill:#000000;stroke-width:0"
           inkscape:connector-curvature="0"
           d="m 460.64,425.98 v -13.66 c 0,-5.32 4.35,-6.42 7.88,-6.42 3.8,0 6.03,2.85 6.03,6.47 v 2.64 h -2.34 v -2.53 c 0,-3.39 -1.6,-4.59 -2.99,-4.59 -2.89,0 -2.89,3.18 -2.89,4.34 v 13.75 h 7.27 v 2.34 h -7.27 v 9.52 h -2.34 c -0.05,-4.98 -2.49,-9.92 -7.42,-10.06 v -1.8 z"
           id="path1218" /></g>
    </g>
    <g
       transform="translate(-13.898015,29.666918)"
       id="g1278">
      <g
         style="font-style:normal;font-variant:normal;font-weight:normal;font-stretch:normal;letter-spacing:normal;word-spacing:normal;text-anchor:start;fill:none;fill-opacity:1;fill-rule:evenodd;stroke:#000000;stroke-linecap:butt;stroke-linejoin:miter;stroke-miterlimit:10.43299961;stroke-dasharray:none;stroke-dashoffset:0;stroke-opacity:1"
         id="g1276"
         transform="matrix(0.3,0,0,-0.3,-52.5,222.75)"
         xml:space="preserve"
         stroke-miterlimit="10.433"
         font-style="normal"
         font-variant="normal"
         font-weight="normal"
         font-stretch="normal"
         font-size-adjust="none"
         letter-spacing="normal"
         word-spacing="normal"><path
           style="fill:#000000;stroke-width:0"
           inkscape:connector-curvature="0"
           d="m 501.21,434.45 0.23,0.4 0.24,0.4 0.24,0.38 0.24,0.37 0.13,0.18 0.13,0.17 0.14,0.17 0.13,0.16 0.14,0.16 0.15,0.16 0.15,0.15 0.16,0.14 0.16,0.14 0.17,0.13 0.17,0.13 0.18,0.12 0.19,0.11 0.19,0.11 0.2,0.1 0.21,0.09 0.22,0.09 0.23,0.08 0.24,0.07 0.25,0.06 0.25,0.05 0.27,0.05 0.28,0.04 0.29,0.02 c 0.45,0.05 0.95,0.05 0.95,1 0,0.19 -0.2,0.55 -0.61,0.55 -1.19,0 -2.58,-0.16 -3.83,-0.16 -1.7,0 -3.55,0.16 -5.19,0.16 -0.29,0 -0.93,0 -0.93,-0.95 0,-0.55 0.43,-0.6 0.73,-0.6 1.2,-0.04 2.95,-0.45 2.95,-1.93 0,-0.55 -0.25,-0.96 -0.65,-1.66 l -13.46,-23.45 -1.84,24.7 c -0.05,1 -0.14,2.3 3.48,2.34 0.86,0 1.36,0 1.36,1 0,0.5 -0.56,0.55 -0.75,0.55 -2,0 -4.09,-0.16 -6.07,-0.16 -1.16,0 -4.1,0.16 -5.24,0.16 -0.3,0 -0.95,0 -0.95,-1 0,-0.55 0.5,-0.55 1.2,-0.55 2.19,0 2.53,-0.29 2.64,-1.25 l 0.3,-3.82 -12.61,-21.97 -1.89,25.25 c 0,0.59 0,1.75 3.78,1.79 0.5,0 1.05,0 1.05,1 0,0.55 -0.6,0.55 -0.69,0.55 -2,0 -4.09,-0.16 -6.13,-0.16 -1.75,0 -3.54,0.16 -5.23,0.16 -0.25,0 -0.91,0 -0.91,-0.95 0,-0.6 0.46,-0.6 1.25,-0.6 2.5,0 2.55,-0.45 2.64,-1.84 l 2.25,-30.44 c 0.05,-0.9 0.1,-1.29 0.8,-1.29 0.6,0 0.74,0.29 1.19,1.04 l 14.66,25.41 1.84,-25.16 c 0.09,-1.04 0.19,-1.29 0.8,-1.29 0.64,0 0.93,0.5 1.18,0.93 z"
           id="path1270" /><path
           style="fill:#000000;stroke-width:0"
           inkscape:connector-curvature="0"
           d="m 511.23,406.25 -0.01,0.3 -0.01,0.3 -0.02,0.29 -0.02,0.28 -0.03,0.27 -0.04,0.26 -0.04,0.26 -0.06,0.24 -0.05,0.24 -0.07,0.23 -0.07,0.22 -0.08,0.21 -0.08,0.2 -0.09,0.19 -0.09,0.19 -0.1,0.17 -0.11,0.16 -0.11,0.16 -0.12,0.14 -0.12,0.13 -0.13,0.13 -0.14,0.11 -0.14,0.1 -0.14,0.1 -0.15,0.08 -0.15,0.07 -0.16,0.06 -0.16,0.05 -0.17,0.04 -0.17,0.03 -0.18,0.01 -0.18,0.01 c -1.64,0 -2.64,-1.25 -2.64,-2.64 0,-1.34 1,-2.64 2.64,-2.64 0.59,0 1.25,0.2 1.75,0.64 0.14,0.11 0.2,0.16 0.25,0.16 0.05,0 0.09,-0.05 0.09,-0.75 0,-3.69 -1.73,-6.68 -3.39,-8.32 -0.54,-0.54 -0.54,-0.65 -0.54,-0.79 0,-0.36 0.25,-0.55 0.5,-0.55 0.54,0 4.53,3.83 4.53,9.66 z"
           id="path1272" /><path
           style="fill:#000000;stroke-width:0"
           inkscape:connector-curvature="0"
           d="m 533.85,426.18 v 14.6 l -8.81,-0.41 v -2.34 c 3.09,0 3.44,0 3.44,-1.94 V 406.2 h 2.34 l 2.44,2.8 c 0.4,-0.41 2.84,-3.1 7.28,-3.1 l -0.45,1.8 c -3.49,0 -5.44,2.69 -5.94,3.44 v 0 12.5 c 1.36,1.75 3.75,3.18 6.48,3.18 6.08,0 6.08,-6.03 6.08,-9.51 0,-2.35 0,-5.08 -1.3,-7.03 -1.43,-2.03 -3.73,-2.58 -5.32,-2.58 l 0.45,-1.8 c 7.42,0 12.55,4.49 12.55,11.41 0,6.62 -4.69,11.31 -11.91,11.31 -3.64,0 -6.13,-1.45 -7.33,-2.44 z"
           id="path1274" /></g>
    </g>
    <g
       transform="translate(82.319015,47.573976)"
       id="g1341">
      <g
         style="font-style:normal;font-variant:normal;font-weight:normal;font-stretch:normal;letter-spacing:normal;word-spacing:normal;text-anchor:start;fill:none;fill-opacity:1;fill-rule:evenodd;stroke:#000000;stroke-linecap:butt;stroke-linejoin:miter;stroke-miterlimit:10.43299961;stroke-dasharray:none;stroke-dashoffset:0;stroke-opacity:1"
         id="g1339"
         transform="matrix(0.3,0,0,-0.3,-52.5,222.75)"
         xml:space="preserve"
         stroke-miterlimit="10.433"
         font-style="normal"
         font-variant="normal"
         font-weight="normal"
         font-stretch="normal"
         font-size-adjust="none"
         letter-spacing="normal"
         word-spacing="normal"><path
           style="fill:#000000;stroke-width:0"
           inkscape:connector-curvature="0"
           d="m 461,423.34 v -13.36 c 0,-2.23 -0.54,-2.23 -3.89,-2.23 v -1.55 c 1.75,0.05 4.28,0.16 5.63,0.16 1.3,0 3.89,-0.11 5.58,-0.16 v 1.55 c -3.33,0 -3.88,0 -3.88,2.23 v 9.17 c 0,5.19 3.53,7.97 6.72,7.97 3.14,0 3.69,-2.69 3.69,-5.53 v -11.61 c 0,-2.23 -0.55,-2.23 -3.89,-2.23 v -1.55 c 1.75,0.05 4.29,0.16 5.64,0.16 1.29,0 3.87,-0.11 5.58,-0.16 v 1.55 c -3.35,0 -3.89,0 -3.89,2.23 v 9.17 c 0,5.19 3.54,7.97 6.73,7.97 3.14,0 3.69,-2.69 3.69,-5.53 v -11.61 c 0,-2.23 -0.55,-2.23 -3.89,-2.23 v -1.55 c 1.73,0.05 4.28,0.16 5.62,0.16 1.3,0 3.89,-0.11 5.58,-0.16 v 1.55 c -2.58,0 -3.83,0 -3.88,1.5 v 9.51 c 0,4.28 0,5.83 -1.54,7.61 -0.71,0.86 -2.35,1.84 -5.24,1.84 -4.18,0 -6.37,-2.98 -7.22,-4.87 -0.7,4.33 -4.39,4.87 -6.62,4.87 -3.64,0 -5.98,-2.14 -7.38,-5.21 v 5.21 l -7.03,-0.54 v -1.55 c 3.49,0 3.89,-0.34 3.89,-2.78 z"
           id="path1333" /><path
           style="fill:#000000;stroke-width:0"
           inkscape:connector-curvature="0"
           d="m 507.4,415.87 0.11,-0.02 0.13,-0.02 0.14,-0.03 0.16,-0.04 0.16,-0.04 0.18,-0.04 0.19,-0.05 0.2,-0.06 0.21,-0.06 0.21,-0.07 0.21,-0.08 0.22,-0.08 0.22,-0.1 0.22,-0.1 0.22,-0.11 0.22,-0.12 0.22,-0.14 0.21,-0.14 0.2,-0.15 0.2,-0.16 0.19,-0.18 0.18,-0.19 0.17,-0.2 0.16,-0.21 0.14,-0.22 0.07,-0.12 0.06,-0.12 0.06,-0.13 0.05,-0.12 0.05,-0.14 0.05,-0.13 0.04,-0.14 0.03,-0.14 0.03,-0.15 0.03,-0.15 0.02,-0.16 0.01,-0.15 0.01,-0.17 0.01,-0.16 c 0,-2.53 -1.75,-4.53 -5.63,-4.53 -4.19,0 -5.98,2.84 -6.94,7.07 -0.14,0.64 -0.18,0.85 -0.68,0.85 -0.66,0 -0.66,-0.35 -0.66,-1.25 v -6.58 c 0,-0.84 0,-1.19 0.55,-1.19 0.25,0 0.29,0.05 1.25,1 0.09,0.1 0.09,0.19 1,1.14 2.18,-2.09 4.43,-2.14 5.48,-2.14 5.72,0 8.02,3.35 8.02,6.92 0,2.64 -1.5,4.14 -2.1,4.74 -1.64,1.59 -3.59,2 -5.68,2.39 -2.79,0.55 -6.13,1.2 -6.13,4.09 0,1.74 1.3,3.78 5.58,3.78 5.48,0 5.73,-4.48 5.83,-6.03 0.06,-0.45 0.5,-0.45 0.61,-0.45 0.64,0 0.64,0.25 0.64,1.2 v 5.03 c 0,0.85 0,1.19 -0.55,1.19 -0.25,0 -0.34,0 -1,-0.59 -0.14,-0.21 -0.64,-0.64 -0.84,-0.8 -1.89,1.39 -3.94,1.39 -4.69,1.39 -6.08,0 -7.97,-3.33 -7.97,-6.12 0,-1.74 0.8,-3.14 2.14,-4.24 1.59,-1.29 3,-1.59 6.58,-2.28 z"
           id="path1335" /><path
           style="fill:#000000;stroke-width:0"
           inkscape:connector-curvature="0"
           d="m 522.25,417.71 0.05,1.05 c 0.29,7.42 4.48,8.66 6.18,8.66 5.13,0 5.63,-6.72 5.63,-8.66 H 522.3 l -0.05,-1.05 h 13.91 c 1.09,0 1.23,0 1.23,1.05 0,4.92 -2.69,9.75 -8.91,9.75 -5.78,0 -10.37,-5.12 -10.37,-11.36 0,-6.67 5.23,-11.5 10.97,-11.5 6.08,0 8.31,5.53 8.31,6.47 0,0.5 -0.39,0.61 -0.64,0.61 -0.45,0 -0.55,-0.3 -0.66,-0.7 -1.73,-5.13 -6.21,-5.13 -6.71,-5.13 -2.5,0 -4.49,1.49 -5.63,3.33 -1.5,2.39 -1.5,5.69 -1.5,7.48 z"
           id="path1337" /></g>
    </g>
  </g>
</svg>
