<?xml version="1.0" encoding="utf-8"?>
<!-- Generator: Adobe Illustrator 19.1.0, SVG Export Plug-In . SVG Version: 6.00 Build 0)  -->
<svg version="1.1" xmlns="http://www.w3.org/2000/svg" xmlns:xlink="http://www.w3.org/1999/xlink" x="0px" y="0px"
	 viewBox="0 0 270.6155 205.7918" style="enable-background:new 0 0 270.6155 205.7918;" xml:space="preserve">
<style type="text/css">
	.st0{opacity:0.15;fill:#299951;}
	.st1{fill:#131312;}
	.st2{fill:none;stroke:#000000;stroke-width:0.25;}
	.st3{fill:none;stroke:#000000;stroke-width:0.25;stroke-miterlimit:10;}
	.st4{fill:none;stroke:#000000;stroke-width:0.25;stroke-miterlimit:10;stroke-dasharray:2.8798,1.9199;}
	.st5{fill:none;stroke:#000000;stroke-width:0.25;stroke-miterlimit:10;stroke-dasharray:2.9135,1.9423;}
	.st6{fill:none;stroke:#000000;stroke-width:0.25;stroke-miterlimit:10;stroke-dasharray:2.9329,1.9553;}
	.st7{fill:none;stroke:#000000;stroke-width:0.25;stroke-miterlimit:10;stroke-dasharray:3.1129,2.0753;}
	.st8{fill:none;stroke:#000000;stroke-width:0.25;stroke-miterlimit:10;stroke-dasharray:2.9087,1.9391;}
	.st9{fill:none;stroke:#000000;stroke-width:0.25;stroke-miterlimit:10;stroke-dasharray:3.021,2.014;}
	.st10{fill:none;stroke:#000000;stroke-width:0.25;stroke-miterlimit:10;stroke-dasharray:3.058,2.0387;}
	.st11{fill:none;stroke:#000000;stroke-width:0.25;stroke-miterlimit:10;stroke-dasharray:3.2109,2.1406;}
	.st12{fill:none;stroke:#000000;stroke-width:0.25;stroke-miterlimit:10;stroke-dasharray:2.7273,1.8182;}
	.st13{fill:none;stroke:#000000;stroke-width:0.25;stroke-miterlimit:10;stroke-dasharray:3,2;}
	.st14{fill:none;stroke:#000000;stroke-width:0.25;stroke-miterlimit:10;stroke-dasharray:3.0299,2.0199;}
	.st15{fill:none;stroke:#006699;stroke-linecap:round;}
</style>
<g id="_x3C_Layer_x3E_">
	<rect x="200.1624" y="50.9347" class="st0" width="15.9038" height="115.4893"/>
	<rect x="182.7874" y="49.2264" class="st0" width="17.2661" height="117.1585"/>
	<rect x="165.4958" y="55.7264" class="st0" width="17.2238" height="110.7412"/>
	<rect x="145.7874" y="66.7506" class="st0" width="19.6032" height="99.6566"/>
	<rect x="122.8291" y="83.1842" class="st0" width="22.8109" height="83.2629"/>
	<rect x="101.7874" y="99.0885" class="st0" width="20.9196" height="67.291"/>
	<rect x="80.2874" y="99.0959" class="st0" width="21.375" height="67.446"/>
	<rect x="59.6986" y="84.0897" class="st0" width="20.5514" height="82.2021"/>
	<path class="st1" d="M36.4163,166.459"/>
	<line class="st1" x1="63.3348" y1="166.5405" x2="64.3309" y2="166.5405"/>
	<g>
		<g>
			<line class="st2" x1="0" y1="166.458" x2="264.2191" y2="166.458"/>
			<g>
				<path d="M262.8729,166.458l-1.6436-2.7023l0.0923-0.0612l4.4062,1.7501c1.5352,0.3376,3.0703,0.6753,4.6055,1.0133
					c-1.5352,0.3376-3.0703,0.6753-4.6055,1.0133l-4.4062,1.7501l-0.0923-0.0461L262.8729,166.458z"/>
			</g>
		</g>
	</g>
	<g>
		<path d="M25.0296,14.8135l0.0752-1.1621c0.2554,0.0728,0.5034,0.1094,0.7451,0.1094c0.2505,0,0.4536-0.0571,0.6084-0.1709
			c0.2007-0.1504,0.4194-0.4331,0.6562-0.8477l0.3965-0.7109l-1.21-7.2803h1.2168l0.5469,3.6709
			c0.1094,0.7246,0.2026,1.4492,0.2803,2.1738l3.2471-5.8447h1.292l-4.6279,8.2236c-0.4468,0.8022-0.8433,1.333-1.1895,1.5928
			s-0.7451,0.3896-1.1963,0.3896C25.5833,14.957,25.3031,14.9092,25.0296,14.8135z"/>
	</g>
	<g>
		<path d="M263.0628,179.0093l3.1582-3.6846l-1.8115-3.5752h1.3672l0.6152,1.292c0.2275,0.4829,0.4326,0.9458,0.6152,1.3877
			l2.0918-2.6797h1.5107l-3.0488,3.6709l1.832,3.5889h-1.3672l-0.7246-1.4766c-0.1553-0.3145-0.3301-0.7041-0.5264-1.1689
			l-2.1602,2.6455H263.0628z"/>
	</g>
	<g>
		<g>
			<line class="st2" x1="36.3327" y1="205.7918" x2="36.3327" y2="10.5728"/>
			<g>
				<path d="M36.3327,11.9189l-2.7023,1.6436l-0.0612-0.0923l1.7501-4.4062c0.3376-1.5352,0.6753-3.0703,1.0133-4.6055
					c0.3376,1.5352,0.6753,3.0703,1.0133,4.6055l1.7501,4.4062L39.05,13.5625L36.3327,11.9189z"/>
			</g>
		</g>
	</g>
	<g>
		<path d="M25.6722,174.0669c0-1.1851,0.1221-2.1387,0.3657-2.8608s0.606-1.2793,1.0869-1.6714s1.0859-0.5879,1.8149-0.5879
			c0.5376,0,1.0093,0.1084,1.415,0.3247s0.7407,0.5288,1.0049,0.9365s0.4717,0.9048,0.6221,1.4902s0.2256,1.375,0.2256,2.3687
			c0,1.1758-0.1206,2.125-0.3623,2.8472s-0.6025,1.2808-1.0835,1.6748s-1.0879,0.5913-1.8218,0.5913
			c-0.9663,0-1.7251-0.3462-2.2764-1.0391C26.0028,177.3071,25.6722,175.9492,25.6722,174.0669z M26.9368,174.0669
			c0,1.645,0.1924,2.7402,0.5776,3.2847s0.8604,0.8169,1.4253,0.8169s1.04-0.2734,1.4253-0.8203s0.5776-1.6406,0.5776-3.2812
			c0-1.6499-0.1924-2.7456-0.5776-3.2881s-0.8647-0.8135-1.439-0.8135c-0.5649,0-1.0161,0.2393-1.3535,0.7178
			C27.1488,171.2939,26.9368,172.4219,26.9368,174.0669z"/>
	</g>
	<path class="st3" d="M216.0833,50.9168c0,19.3255,0,115.5417,0,115.5417"/>
	<g>
		<g>
			<path d="M163.8978,42.8687c0.083-0.0957,0.2041-0.1436,0.3623-0.1436c0.1035,0,0.1953,0.0195,0.2744,0.0596
				c0.0791,0.0391,0.1621,0.0967,0.249,0.1714l0.0879,0.0625c0.0244,0.0205,0.0527,0.0361,0.084,0.0464
				c0.0312,0.0107,0.0654,0.0156,0.1025,0.0156c0.2041,0,0.5312-0.2686,0.9824-0.8062s0.6768-0.9292,0.6768-1.1738
				c0-0.2324-0.0771-0.689-0.2334-1.3701c-0.1562-0.6807-0.3066-1.2866-0.4521-1.8184c-0.2041-0.7471-0.3896-1.2534-0.5586-1.519
				c-0.168-0.2656-0.417-0.3984-0.7451-0.3984c-0.0254,0-0.0684,0.0029-0.1279,0.0093c-0.0605,0.0063-0.1631,0.0176-0.3086,0.0342
				V35.832l1.7021-0.3301l0.1309-0.0127c0.1035-0.0127,0.3037,0.4556,0.5986,1.4033c0.2666,0.853,0.4316,1.4731,0.4961,1.8613
				l0.252,1.4883c0.4365-0.7329,0.7578-1.2949,0.9619-1.686c0.3994-0.7705,0.5986-1.3096,0.5986-1.6177
				c0-0.0708-0.0127-0.1406-0.0371-0.2095c-0.0254-0.0688-0.083-0.1279-0.1748-0.1782l-0.1064-0.0562
				c-0.0664-0.0332-0.1445-0.0957-0.2334-0.187c-0.0898-0.0918-0.1338-0.2148-0.1338-0.3687c0-0.1289,0.041-0.2373,0.124-0.3247
				s0.208-0.1313,0.375-0.1313c0.207,0,0.376,0.0615,0.5049,0.1841c0.1289,0.123,0.1934,0.332,0.1934,0.6274
				c0,0.4453-0.2432,1.1606-0.7295,2.147c-0.375,0.7515-0.793,1.48-1.2539,2.1855c-0.5781,0.8804-1.0752,1.5596-1.4912,2.0371
				c-0.6611,0.752-1.21,1.1279-1.6465,1.1279c-0.1709,0-0.3213-0.0522-0.4521-0.1562s-0.1973-0.2451-0.1973-0.4238
				C163.7728,43.0786,163.8148,42.9644,163.8978,42.8687z"/>
		</g>
		<g>
			<path d="M172.7308,36.1631h6.7178v0.7046h-6.7178V36.1631z M172.7308,38.6455h6.7178v0.6987h-6.7178V38.6455z"/>
		</g>
		<g>
			<path d="M190.0687,33.6553c-0.0918,0.1162-0.2188,0.1748-0.3809,0.1748c-0.1416,0-0.2578-0.0449-0.3496-0.1353
				c-0.0918-0.0898-0.1367-0.1953-0.1367-0.3169c0-0.0835,0.0391-0.2275,0.1182-0.4326c0-0.0542-0.0273-0.1025-0.0811-0.1445
				c-0.0469-0.0376-0.1045-0.0562-0.1709-0.0562c-0.3125,0-0.5732,0.3354-0.7842,1.0063c-0.1172,0.3877-0.25,1.0396-0.3965,1.9565
				h1.3916l-0.0879,0.418h-1.4189l-1.1934,4.0752c-0.252,1.0771-0.5908,1.9482-1.0156,2.6128s-0.9678,0.9971-1.6299,0.9971
				c-0.3037,0-0.5527-0.0811-0.7471-0.2432s-0.291-0.3433-0.291-0.543c0-0.1245,0.04-0.2412,0.1211-0.3491
				c0.0811-0.1084,0.2031-0.1621,0.3652-0.1621c0.1416,0,0.2607,0.0469,0.3584,0.1401c0.0977,0.0938,0.1465,0.209,0.1465,0.3462
				c0,0.0752-0.0215,0.1509-0.0654,0.228c-0.043,0.0767-0.0654,0.1299-0.0654,0.1587c0,0.0376,0.0244,0.0688,0.0723,0.0938
				s0.1094,0.0376,0.1836,0.0376c0.3545,0,0.6543-0.2788,0.9004-0.8359c0.1289-0.2915,0.2471-0.6924,0.3555-1.2041l1.4824-5.3521
				h-1.1543l0.0879-0.418h1.208c0.2275-0.9688,0.4824-1.6865,0.7656-2.1519c0.4209-0.7153,0.9414-1.0732,1.5596-1.0732
				c0.2832,0,0.5186,0.0811,0.707,0.2432c0.1885,0.1626,0.2822,0.3477,0.2822,0.5552
				C190.2054,33.4141,190.1595,33.5391,190.0687,33.6553z"/>
		</g>
		<g>
			<path d="M196.6673,40.3765c0.0996-0.0684,0.2021-0.103,0.3057-0.103c0.0498,0,0.0996,0.0073,0.1504,0.022
				c0.0498,0.0146,0.1035,0.0386,0.1621,0.0718l0.2178,0.1187c0.0293,0.0166,0.0576,0.0278,0.084,0.0342
				c0.0273,0.0063,0.0576,0.0093,0.0908,0.0093c0.1035,0,0.1836-0.0259,0.2402-0.0776c0.0557-0.0522,0.2002-0.2344,0.4336-0.5459
				c0.1533-0.2036,0.5029-0.7007,1.0479-1.4912c0-0.0288-0.0479-0.2524-0.1436-0.6704s-0.1826-0.7725-0.2617-1.0635
				c-0.0791-0.2954-0.1504-0.4897-0.2119-0.5835c-0.0625-0.0933-0.1797-0.1401-0.3496-0.1401c-0.0586,0-0.1729,0.021-0.3428,0.0625
				c-0.1084,0.0249-0.2246,0.0542-0.3496,0.0874l-0.0566-0.1934l0.6924-0.2373c0.1787-0.0625,0.3447-0.1123,0.4961-0.1494
				c0.1523-0.0376,0.2822-0.0562,0.3896-0.0562c0.1748,0,0.3057,0.0518,0.3936,0.1558c0.1328,0.1665,0.2451,0.4951,0.3369,0.9854
				l0.1309,0.7114c0.374-0.5742,0.665-0.9775,0.873-1.2104c0.1875-0.2119,0.3643-0.3701,0.5303-0.4741
				c0.166-0.1035,0.3242-0.1558,0.4746-0.1558c0.1406,0,0.2559,0.021,0.3428,0.0625c0.1582,0.0747,0.2373,0.2163,0.2373,0.4243
				c0,0.1411-0.04,0.2515-0.1191,0.3306s-0.1807,0.1182-0.3057,0.1182c-0.0459,0-0.0889-0.0049-0.1309-0.0156
				c-0.041-0.0103-0.085-0.0259-0.1309-0.0464l-0.1621-0.0688c-0.0459-0.0205-0.0898-0.0386-0.1309-0.0532
				c-0.042-0.0142-0.0732-0.0215-0.0938-0.0215c-0.1875,0-0.4473,0.2422-0.7793,0.7266c-0.333,0.4844-0.499,0.7642-0.499,0.8389
				c0,0.0625,0.0381,0.2651,0.1152,0.6084s0.1611,0.7061,0.2529,1.0884c0.083,0.3618,0.1533,0.6113,0.2119,0.7485
				c0.0957,0.2246,0.2031,0.3369,0.3242,0.3369c0.1123,0,0.2266-0.0625,0.3428-0.187c0.1162-0.125,0.291-0.3496,0.5244-0.6738
				l0.1738,0.106c-0.1787,0.3247-0.3633,0.6011-0.5547,0.8296c-0.3623,0.4326-0.707,0.6489-1.0352,0.6489
				c-0.208,0-0.373-0.0996-0.4932-0.2993c-0.0703-0.1162-0.1396-0.3076-0.2061-0.5737l-0.3867-1.541l-1.2783,1.6782
				c-0.25,0.291-0.4424,0.4863-0.5771,0.5859c-0.1357,0.1001-0.3027,0.1499-0.502,0.1499c-0.2666,0-0.4473-0.083-0.543-0.2495
				c-0.0537-0.0874-0.0811-0.1914-0.0811-0.312C196.5179,40.5605,196.5677,40.4453,196.6673,40.3765z"/>
		</g>
		<g>
			<path d="M195.181,44.5659l-0.125,0.2842c-0.1748,0-0.5283-0.3379-1.0605-1.0137c-0.5693-0.7085-1.0332-1.522-1.3906-2.4409
				c-0.3828-0.9248-0.5742-2.1655-0.5742-3.7222c0-1.5464,0.1875-2.7896,0.5615-3.7305c0.3535-0.9028,0.8174-1.7163,1.3916-2.4409
				c0.5361-0.665,0.8936-0.9976,1.0723-0.9976l0.125,0.2842c-0.6318,0.6538-1.0439,1.23-1.2354,1.7271
				c-0.1953,0.4868-0.3613,1.0273-0.499,1.6221c-0.1416,0.6055-0.2305,1.1758-0.2676,1.7109
				c-0.0508,0.5352-0.0752,1.1436-0.0752,1.8247c0,0.6055,0.0205,1.2056,0.0625,1.8003c0.0332,0.4917,0.1387,1.1162,0.3184,1.873
				c0.1699,0.7139,0.3613,1.2896,0.5732,1.7275C194.2747,43.5171,194.6488,44.0146,195.181,44.5659z"/>
		</g>
		<g>
			<path d="M203.972,44.8501l-0.1309-0.2842c0.6445-0.6646,1.0625-1.2407,1.2539-1.7271c0.1621-0.3945,0.3242-0.9409,0.4863-1.6382
				c0.1367-0.6001,0.2305-1.165,0.2803-1.6948c0.042-0.5947,0.0625-1.2056,0.0625-1.8325c0-0.5947-0.0205-1.1978-0.0625-1.8086
				c-0.0332-0.4971-0.1348-1.1162-0.3057-1.8569c-0.1533-0.6543-0.3486-1.23-0.5859-1.7271
				c-0.2119-0.4326-0.5889-0.9302-1.1289-1.4922l0.1309-0.2842c0.1787,0,0.5361,0.3325,1.0723,0.9976
				c0.5498,0.6973,1.0127,1.5112,1.3916,2.4409c0.374,0.9409,0.5615,2.1841,0.5615,3.7305c0,1.5459-0.1875,2.7866-0.5615,3.7222
				c-0.3574,0.9189-0.8213,1.7324-1.3916,2.4409C204.512,44.5122,204.1546,44.8501,203.972,44.8501z"/>
		</g>
	</g>
	<g>
		<path d="M60.4427,178.1069c-0.4282,0.3691-0.8408,0.6392-1.2373,0.8101s-0.8203,0.2563-1.2715,0.2563
			c-0.6699,0-1.21-0.1973-1.6201-0.5913s-0.6152-0.8989-0.6152-1.5142c0-0.4058,0.0923-0.7646,0.2769-1.0767
			s0.4297-0.563,0.7349-0.752s0.6792-0.3247,1.1211-0.4067c0.2778-0.0547,0.8057-0.0981,1.5825-0.1299s1.334-0.1138,1.6714-0.2461
			c0.0957-0.3374,0.1436-0.6177,0.1436-0.8408c0-0.2871-0.105-0.5127-0.3145-0.6768c-0.2871-0.228-0.7065-0.3418-1.2578-0.3418
			c-0.5195,0-0.9443,0.1152-1.2749,0.3452s-0.5708,0.5571-0.7212,0.981l-1.251-0.1094c0.2554-0.7202,0.6597-1.2715,1.2134-1.6543
			s1.252-0.5742,2.0952-0.5742c0.8979,0,1.6089,0.2144,2.1328,0.6426c0.4009,0.3188,0.6016,0.7339,0.6016,1.2441
			c0,0.3872-0.0571,0.8364-0.1709,1.3467l-0.4033,1.8047c-0.1274,0.5742-0.1914,1.0415-0.1914,1.4014
			c0,0.228,0.0503,0.5562,0.1504,0.9844h-1.251C60.5179,178.7725,60.47,178.4717,60.4427,178.1069z M60.9007,175.3315
			c-0.1733,0.0684-0.3589,0.1206-0.5571,0.1572s-0.5298,0.0752-0.9946,0.1162c-0.7202,0.064-1.228,0.1445-1.5244,0.2427
			s-0.5195,0.2539-0.6699,0.4683s-0.2256,0.4512-0.2256,0.7109c0,0.3462,0.1196,0.6313,0.3589,0.8545s0.5801,0.335,1.022,0.335
			c0.4102,0,0.8042-0.1084,1.1826-0.3247s0.6768-0.5186,0.8955-0.9058S60.7777,176.0469,60.9007,175.3315z"/>
	</g>
	<g>
		<path d="M214.0482,179.0093l2.0918-10.0215h1.2373l-0.7451,3.582c0.3916-0.3599,0.7471-0.6143,1.0664-0.7622
			s0.6514-0.2222,0.998-0.2222c0.6787,0,1.2451,0.2529,1.6992,0.7588c0.4531,0.5059,0.6797,1.2417,0.6797,2.208
			c0,0.6426-0.0908,1.2305-0.2734,1.7637s-0.4082,0.981-0.6768,1.3433s-0.5469,0.6519-0.834,0.8682s-0.5811,0.3784-0.8818,0.4854
			s-0.5898,0.1606-0.8682,0.1606c-0.4785,0-0.9004-0.1265-1.2646-0.3794s-0.6494-0.6392-0.8545-1.1587l-0.2871,1.374H214.0482z
			 M215.8802,176.0288l-0.0068,0.2324c0,0.6196,0.1484,1.0913,0.4443,1.415s0.665,0.4854,1.1074,0.4854
			c0.4326,0,0.8301-0.1514,1.1934-0.4546c0.3613-0.3032,0.6592-0.7759,0.8916-1.4185s0.3486-1.2349,0.3486-1.7773
			c0-0.6108-0.1465-1.0845-0.4414-1.4219c-0.293-0.3374-0.6572-0.5059-1.0898-0.5059c-0.4463,0-0.8564,0.1719-1.2305,0.5161
			s-0.6855,0.874-0.9365,1.5894C215.974,175.2222,215.8802,175.6689,215.8802,176.0288z"/>
	</g>
	<path class="st3" d="M101.75,99.1252c0,11.2482,0,67.25,0,67.25"/>
	<path class="st3" d="M122.75,83.1252c0,13.9244,0,83.25,0,83.25"/>
	<path class="st3" d="M145.75,66.7502c0,16.6633,0,99.625,0,99.625"/>
	<path class="st3" d="M165.4167,55.7085c0,18.5101,0,110.6667,0,110.6667"/>
	<path class="st3" d="M200.0833,48.8335c0,19.66,0,117.5417,0,117.5417"/>
	<path class="st3" d="M182.75,49.2085c0,19.5973,0,117.1667,0,117.1667"/>
	<g>
		<g>
			<path class="st3" d="M70.0417,131.5418c0,0.4218,0,0.9236,0,1.4968"/>
			<path class="st4" d="M70.0417,134.9547c0,11.3058,0,38.6908,0,47.0439"/>
			<path class="st3" d="M70.0417,182.9613c0,0.9628,0,1.4972,0,1.4972"/>
		</g>
	</g>
	<g>
		<g>
			<path class="st3" d="M91.0417,130.9585c0,0.4224,0,0.9241,0,1.4967"/>
			<path class="st5" d="M91.0417,134.3936c0,11.4282,0,39.1639,0,47.5939"/>
			<path class="st3" d="M91.0417,182.9614c0,0.963,0,1.4971,0,1.4971"/>
		</g>
	</g>
	<g>
		<g>
			<path class="st3" d="M134.1667,83.1252c0,0.4441,0,0.9446,0,1.4974"/>
			<path class="st6" d="M134.1667,86.5738c0,16.9769,0,65.6896,0,77.2403"/>
			<path class="st3" d="M134.1667,164.7958c0,0.9698,0,1.496,0,1.496"/>
		</g>
	</g>
	<g>
		<g>
			<path class="st3" d="M112.5,99.0418c0,0.4338,0,0.9341,0,1.4951"/>
			<path class="st7" d="M112.5,102.6102c0,14.1324,0,51.191,0,61.2272"/>
			<path class="st3" d="M112.5,164.8796c0,0.9662,0,1.4955,0,1.4955"/>
		</g>
	</g>
	<g>
		<g>
			<path class="st3" d="M156.0417,131.0418c0,0.4223,0,0.9241,0,1.4968"/>
			<path class="st8" d="M156.0417,134.4738c0,11.4106,0,39.0963,0,47.5153"/>
			<path class="st3" d="M156.0417,182.9614c0,0.963,0,1.4971,0,1.4971"/>
		</g>
	</g>
	<g>
		<g>
			<path class="st3" d="M174,55.6252c0,0.4551,0,0.9547,0,1.4963"/>
			<path class="st9" d="M174,59.1329c0,21.925,0,90.7291,0,104.7379"/>
			<path class="st3" d="M174,164.8786c0,0.9741,0,1.4966,0,1.4966"/>
		</g>
	</g>
	<g>
		<g>
			<path class="st3" d="M191.5833,49.1252c0,0.457,0,0.9564,0,1.496"/>
			<path class="st10" d="M191.5833,52.6569c0,23.0652,0,96.5591,0,111.1155"/>
			<path class="st3" d="M191.5833,164.7961c0,0.9742,0,1.4957,0,1.4957"/>
		</g>
	</g>
	<g>
		<g>
			<path class="st3" d="M208.6667,130.8752c0,0.4223,0,0.924,0,1.4967"/>
			<path class="st8" d="M208.6667,134.3071c0,11.4106,0,39.0963,0,47.5153"/>
			<path class="st3" d="M208.6667,182.7947c0,0.963,0,1.4971,0,1.4971"/>
		</g>
	</g>
	<g>
		<g>
			<path d="M65.5379,129.9736c0.2812-0.0234,0.4746-0.0742,0.5801-0.1523c0.1641-0.1172,0.2988-0.3613,0.4043-0.7324l1.4707-5.3105
				c0.0312-0.1055,0.0615-0.2295,0.0908-0.3711c0.0293-0.1426,0.0439-0.2666,0.0439-0.3721c0-0.1836-0.0664-0.3086-0.1992-0.377
				s-0.3477-0.1104-0.6445-0.126v-0.1934h2.9741c0.5708,0,1.0464,0.0703,1.4258,0.2109c0.7192,0.2695,1.0791,0.7676,1.0791,1.4941
				c0,0.6953-0.313,1.2354-0.939,1.6182c-0.3403,0.207-0.8159,0.377-1.4263,0.5098l1.1113,2.9404
				c0.1094,0.2891,0.2344,0.502,0.375,0.6387s0.3496,0.2109,0.627,0.2227v0.1934h-1.7754l-1.4766-3.8848l-0.7827-0.0586
				l-0.6738,2.5029c-0.0293,0.1045-0.0557,0.2041-0.0791,0.2979c-0.0391,0.1914-0.0586,0.3398-0.0586,0.4453
				c0,0.1836,0.0645,0.3105,0.1934,0.3809s0.3379,0.1113,0.627,0.123v0.1934h-2.9473V129.9736z M69.1292,125.8223
				c0.0625,0.0059,0.1309,0.0088,0.2046,0.0088c0.6045,0,1.1157-0.1396,1.5352-0.418c0.4189-0.2793,0.6284-0.75,0.6284-1.4121
				c0-0.5039-0.1431-0.8447-0.4292-1.0234c-0.2866-0.1797-0.6548-0.2695-1.106-0.2695c-0.1606,0-0.2861,0.0195-0.3765,0.0586
				c-0.0898,0.0391-0.1548,0.127-0.1938,0.2627l-0.7651,2.7432C68.8992,125.7998,69.0667,125.8164,69.1292,125.8223z"/>
		</g>
		<g>
			<path d="M74.1199,128.5381c0.0015,0.0059,0.002,0.0186,0.002,0.0391v4.0781c0,0.1738,0.0464,0.2852,0.1396,0.332
				c0.0928,0.0479,0.2666,0.0762,0.521,0.085v0.0947h-1.9141v-0.1016c0.2729-0.0137,0.4517-0.0508,0.5352-0.1123
				c0.0835-0.0605,0.1255-0.1924,0.1255-0.3955v-3.1367c0-0.1084-0.0137-0.1914-0.0405-0.248
				c-0.0273-0.0557-0.0859-0.084-0.1763-0.084c-0.0591,0-0.1353,0.0156-0.229,0.0488c-0.0938,0.0322-0.1812,0.0674-0.2622,0.1035
				v-0.0947l1.2432-0.6338h0.0405C74.1141,128.5244,74.119,128.5322,74.1199,128.5381z"/>
		</g>
	</g>
	<g>
		<g>
			<path d="M86.7044,129.9736c0.2812-0.0234,0.4746-0.0742,0.5801-0.1523c0.1641-0.1172,0.2988-0.3613,0.4043-0.7324l1.4707-5.3105
				c0.0312-0.1055,0.0615-0.2295,0.0908-0.3711c0.0293-0.1426,0.0439-0.2666,0.0439-0.3721c0-0.1836-0.0664-0.3086-0.1992-0.377
				s-0.3477-0.1104-0.6445-0.126v-0.1934h2.9741c0.5708,0,1.0464,0.0703,1.4258,0.2109c0.7192,0.2695,1.0791,0.7676,1.0791,1.4941
				c0,0.6953-0.313,1.2354-0.939,1.6182c-0.3403,0.207-0.8159,0.377-1.4263,0.5098l1.1113,2.9404
				c0.1094,0.2891,0.2344,0.502,0.375,0.6387s0.3496,0.2109,0.627,0.2227v0.1934h-1.7754l-1.4766-3.8848l-0.7827-0.0586
				l-0.6738,2.5029c-0.0293,0.1045-0.0557,0.2041-0.0791,0.2979c-0.0391,0.1914-0.0586,0.3398-0.0586,0.4453
				c0,0.1836,0.0645,0.3105,0.1934,0.3809s0.3379,0.1113,0.627,0.123v0.1934h-2.9473V129.9736z M90.2957,125.8223
				c0.0625,0.0059,0.1309,0.0088,0.2046,0.0088c0.6045,0,1.1157-0.1396,1.5352-0.418c0.4189-0.2793,0.6284-0.75,0.6284-1.4121
				c0-0.5039-0.1431-0.8447-0.4292-1.0234c-0.2866-0.1797-0.6548-0.2695-1.106-0.2695c-0.1606,0-0.2861,0.0195-0.3765,0.0586
				c-0.0898,0.0391-0.1548,0.127-0.1938,0.2627l-0.7651,2.7432C90.0658,125.7998,90.2332,125.8164,90.2957,125.8223z"/>
		</g>
		<g>
			<path d="M94.0189,133.0889c0.8267-0.8574,1.3877-1.4873,1.6836-1.8887s0.4438-0.793,0.4438-1.1748
				c0-0.333-0.0903-0.5879-0.271-0.7627S95.4788,129,95.2283,129c-0.3096,0-0.5601,0.1133-0.752,0.3389
				c-0.1064,0.124-0.208,0.3145-0.3052,0.5723l-0.1455-0.0312c0.1128-0.5186,0.3042-0.8789,0.5742-1.0811
				s0.5596-0.3027,0.8687-0.3027c0.3818,0,0.6904,0.1201,0.9268,0.3604c0.2358,0.2402,0.354,0.5342,0.354,0.8818
				c0,0.3701-0.1279,0.7266-0.3828,1.0693c-0.2554,0.3428-0.8101,0.9531-1.6641,1.8311h1.5552c0.2168,0,0.3696-0.0264,0.4575-0.0781
				c0.0884-0.0518,0.1875-0.1777,0.2983-0.3789l0.0879,0.041l-0.376,0.9443h-2.7065V133.0889z"/>
		</g>
	</g>
	<g>
		<g>
			<path d="M152.0794,129.9736c0.2812-0.0234,0.4746-0.0742,0.5801-0.1523c0.1641-0.1172,0.2988-0.3613,0.4043-0.7324l1.4707-5.3105
				c0.0312-0.1055,0.0615-0.2295,0.0908-0.3711c0.0293-0.1426,0.0439-0.2666,0.0439-0.3721c0-0.1836-0.0664-0.3086-0.1992-0.377
				s-0.3477-0.1104-0.6445-0.126v-0.1934h2.9746c0.5703,0,1.0459,0.0703,1.4258,0.2109c0.7188,0.2695,1.0791,0.7676,1.0791,1.4941
				c0,0.6953-0.3135,1.2354-0.9395,1.6182c-0.3398,0.207-0.8154,0.377-1.4258,0.5098l1.1113,2.9404
				c0.1094,0.2891,0.2344,0.502,0.375,0.6387s0.3496,0.2109,0.627,0.2227v0.1934h-1.7754l-1.4766-3.8848l-0.7832-0.0586
				l-0.6738,2.5029c-0.0293,0.1045-0.0557,0.2041-0.0791,0.2979c-0.0391,0.1914-0.0586,0.3398-0.0586,0.4453
				c0,0.1836,0.0645,0.3105,0.1934,0.3809s0.3379,0.1113,0.627,0.123v0.1934h-2.9473V129.9736z M155.6712,125.8223
				c0.0625,0.0059,0.1309,0.0088,0.2041,0.0088c0.6045,0,1.1162-0.1396,1.5352-0.418c0.4189-0.2793,0.6289-0.75,0.6289-1.4121
				c0-0.5039-0.1436-0.8447-0.4297-1.0234c-0.2861-0.1797-0.6543-0.2695-1.1055-0.2695c-0.1611,0-0.2861,0.0195-0.377,0.0586
				c-0.0898,0.0391-0.1543,0.127-0.1934,0.2627l-0.7656,2.7432C155.4408,125.7998,155.6087,125.8164,155.6712,125.8223z"/>
		</g>
		<g>
			<path d="M160.6048,130.0967c0.0117,0.0078,0.0166,0.0176,0.0146,0.0283l-0.6836,2.4189
				c-0.0322,0.1289-0.0479,0.2051-0.0479,0.2305c0,0.0332,0.0068,0.0625,0.0205,0.0879c0.0117,0.0273,0.04,0.04,0.085,0.04
				c0.0762,0,0.1787-0.0664,0.3047-0.1992c0.0742-0.0791,0.166-0.1924,0.2744-0.3389l0.0879,0.0742l-0.0332,0.0479
				c-0.1699,0.2373-0.3096,0.4072-0.4209,0.5117c-0.1738,0.1621-0.3428,0.2432-0.5078,0.2432c-0.0967,0-0.1777-0.04-0.2422-0.1221
				c-0.0645-0.0811-0.0967-0.1768-0.0967-0.2871c0-0.0654,0.0049-0.123,0.0137-0.1719c0.0088-0.0479,0.0264-0.1201,0.0508-0.2148
				l0.4824-1.7412c0.0068-0.0273,0.0127-0.0518,0.0166-0.0742c0.0049-0.0225,0.0068-0.0449,0.0068-0.0674
				c0-0.082-0.0293-0.1318-0.0898-0.1514c-0.0596-0.0186-0.1777-0.0283-0.3535-0.0283v-0.1123
				c0.1865-0.0225,0.3203-0.04,0.4023-0.0527c0.0811-0.0117,0.1641-0.0254,0.2471-0.0381c0.1074-0.0186,0.209-0.0391,0.3057-0.0615
				C160.5374,130.0957,160.5921,130.0889,160.6048,130.0967z M160.2845,129.248c-0.0654-0.0723-0.0977-0.1592-0.0977-0.2607
				c0-0.1045,0.0322-0.1924,0.0977-0.2646s0.1445-0.1084,0.2373-0.1084s0.1719,0.0361,0.2393,0.1084
				c0.0664,0.0723,0.0996,0.1602,0.0996,0.2646c0,0.1035-0.0332,0.1914-0.0996,0.2617c-0.0674,0.0713-0.1465,0.1074-0.2393,0.1074
				S160.3499,129.3203,160.2845,129.248z"/>
		</g>
	</g>
	<g>
		<g>
			<path d="M203.9544,129.9736c0.2812-0.0234,0.4746-0.0742,0.5801-0.1523c0.1641-0.1172,0.2988-0.3613,0.4043-0.7324l1.4707-5.3105
				c0.0312-0.1055,0.0615-0.2295,0.0908-0.3711c0.0293-0.1426,0.0439-0.2666,0.0439-0.3721c0-0.1836-0.0664-0.3086-0.1992-0.377
				s-0.3477-0.1104-0.6445-0.126v-0.1934h2.9746c0.5703,0,1.0459,0.0703,1.4258,0.2109c0.7188,0.2695,1.0791,0.7676,1.0791,1.4941
				c0,0.6953-0.3135,1.2354-0.9395,1.6182c-0.3398,0.207-0.8154,0.377-1.4258,0.5098l1.1113,2.9404
				c0.1094,0.2891,0.2344,0.502,0.375,0.6387s0.3496,0.2109,0.627,0.2227v0.1934h-1.7754l-1.4766-3.8848l-0.7832-0.0586
				l-0.6738,2.5029c-0.0293,0.1045-0.0557,0.2041-0.0791,0.2979c-0.0391,0.1914-0.0586,0.3398-0.0586,0.4453
				c0,0.1836,0.0645,0.3105,0.1934,0.3809s0.3379,0.1113,0.627,0.123v0.1934h-2.9473V129.9736z M207.5462,125.8223
				c0.0625,0.0059,0.1309,0.0088,0.2041,0.0088c0.6045,0,1.1162-0.1396,1.5352-0.418c0.4189-0.2793,0.6289-0.75,0.6289-1.4121
				c0-0.5039-0.1436-0.8447-0.4297-1.0234c-0.2861-0.1797-0.6543-0.2695-1.1055-0.2695c-0.1611,0-0.2861,0.0195-0.377,0.0586
				c-0.0898,0.0391-0.1543,0.127-0.1934,0.2627l-0.7656,2.7432C207.3158,125.7998,207.4837,125.8164,207.5462,125.8223z"/>
		</g>
		<g>
			<path d="M211.1878,133.167l0.5801-2.0938c0.0498-0.1768,0.0781-0.2842,0.0859-0.3213c0.0078-0.0381,0.0117-0.0781,0.0117-0.1211
				c0-0.0654-0.0186-0.1172-0.0557-0.1553c-0.0371-0.0371-0.1104-0.0557-0.2188-0.0557c-0.0264,0-0.0537,0.002-0.0791,0.0049
				c-0.0264,0.0039-0.0547,0.0078-0.0869,0.0117v-0.1113c0.1465-0.0225,0.25-0.04,0.3115-0.0508
				c0.0615-0.0117,0.1289-0.0254,0.2002-0.041l0.6025-0.1318c0.0137,0.0088,0.0225,0.0186,0.0264,0.0303l-0.4482,1.457
				c0.2773-0.4229,0.5088-0.7363,0.6953-0.9424c0.3271-0.3633,0.6211-0.5449,0.8799-0.5449c0.1006,0,0.1865,0.0186,0.2598,0.0576
				c0.1377,0.0742,0.207,0.209,0.207,0.4033c0,0.0537-0.0059,0.1104-0.0166,0.1689c-0.0117,0.0586-0.0264,0.1221-0.0439,0.1895
				l-0.4463,1.623c-0.0088,0.0332-0.0186,0.0752-0.0303,0.123c-0.0117,0.0488-0.0166,0.083-0.0166,0.1035
				c0,0.0342,0.0078,0.0645,0.0234,0.0918s0.041,0.04,0.0762,0.04c0.0557,0,0.1211-0.0342,0.1943-0.1025
				c0.0732-0.0693,0.1943-0.2168,0.3604-0.4424l0.0986,0.0879c-0.1816,0.251-0.3252,0.4268-0.4316,0.5283
				c-0.1816,0.1787-0.3555,0.2676-0.5215,0.2676c-0.0752,0-0.1484-0.0254-0.2178-0.0762c-0.0703-0.0508-0.1055-0.1426-0.1055-0.2754
				c0-0.0391,0.0029-0.0791,0.0088-0.1221s0.0127-0.0801,0.0215-0.1123l0.4326-1.6465c0.0225-0.0898,0.0381-0.1641,0.0459-0.2217
				s0.0117-0.0986,0.0117-0.123c0-0.0547-0.0127-0.1016-0.0391-0.1406c-0.0264-0.04-0.0723-0.0596-0.1387-0.0596
				c-0.1719,0-0.3877,0.1533-0.6484,0.46c-0.1533,0.1826-0.3086,0.4004-0.4668,0.6533c-0.1182,0.1963-0.2109,0.3877-0.2783,0.5732
				c-0.0684,0.1865-0.1758,0.5254-0.3232,1.0166H211.1878z"/>
		</g>
	</g>
	<g>
		<g>
			<path class="st3" d="M70.0417,84.2918c0,0.4008,0,0.9042,0,1.4952"/>
			<path class="st11" d="M70.0417,87.9241c0,8.1699,0,24.6934,0,31.0476"/>
			<path class="st3" d="M70.0417,120.0463c0,0.9541,0,1.4955,0,1.4955"/>
		</g>
	</g>
	<g>
		<g>
			<path class="st3" d="M91.0417,98.8752c0,0.3682,0,0.8766,0,1.4951"/>
			<path class="st12" d="M91.0417,102.1915c0,4.9423,0,13.2117,0,17.2776"/>
			<path class="st3" d="M91.0417,120.3777c0,0.9415,0,1.4974,0,1.4974"/>
		</g>
	</g>
	<g>
		<g>
			<path class="st3" d="M156.0417,66.6252c0,0.4238,0,0.9254,0,1.4965"/>
			<path class="st13" d="M156.0417,70.1174c0,11.7426,0,40.3811,0,49.0081"/>
			<path class="st3" d="M156.0417,120.1285c0,0.9633,0,1.4967,0,1.4967"/>
		</g>
	</g>
	<g>
		<g>
			<path class="st3" d="M208.6667,50.9585c0,0.4369,0,0.938,0,1.498"/>
			<path class="st14" d="M208.6667,54.4741c0,14.7297,0,54.2943,0,64.645"/>
			<path class="st3" d="M208.6667,120.1284c0,0.9678,0,1.4968,0,1.4968"/>
		</g>
	</g>
	<g>
		<g>
			<path d="M76.7235,175.2349c0.0938-0.0645,0.1895-0.0967,0.2871-0.0967c0.0469,0,0.0938,0.0068,0.1406,0.0205
				s0.0977,0.0361,0.1523,0.0674l0.2051,0.1113c0.0273,0.0156,0.0537,0.0264,0.0791,0.0322s0.0537,0.0088,0.085,0.0088
				c0.0977,0,0.1729-0.0244,0.2256-0.0732s0.1885-0.2197,0.4072-0.5127c0.1445-0.1914,0.4727-0.6582,0.9844-1.4004
				c0-0.0273-0.0449-0.2373-0.1348-0.6299s-0.1719-0.7256-0.2461-0.999c-0.0742-0.2773-0.1406-0.46-0.1992-0.5479
				s-0.168-0.1318-0.3281-0.1318c-0.0547,0-0.1621,0.0195-0.3223,0.0586c-0.1016,0.0234-0.2109,0.0508-0.3281,0.082l-0.0527-0.1816
				l0.6504-0.2227c0.168-0.0586,0.3232-0.1055,0.4658-0.1406s0.2646-0.0527,0.3662-0.0527c0.1641,0,0.2871,0.0488,0.3691,0.1465
				c0.125,0.1562,0.2305,0.4648,0.3164,0.9258l0.123,0.668c0.3516-0.5391,0.625-0.918,0.8203-1.1367
				c0.1758-0.1992,0.3418-0.3477,0.498-0.4453s0.3047-0.1465,0.4453-0.1465c0.1328,0,0.2402,0.0195,0.3223,0.0586
				c0.1484,0.0703,0.2227,0.2031,0.2227,0.3984c0,0.1328-0.0371,0.2363-0.1113,0.3105s-0.1699,0.1113-0.2871,0.1113
				c-0.043,0-0.084-0.0049-0.123-0.0146s-0.0801-0.0244-0.123-0.0439l-0.1523-0.0645c-0.043-0.0195-0.084-0.0361-0.123-0.0498
				s-0.0684-0.0205-0.0879-0.0205c-0.1758,0-0.4199,0.2275-0.7324,0.6826s-0.4688,0.7178-0.4688,0.7881
				c0,0.0586,0.0361,0.249,0.1084,0.5713s0.1514,0.6631,0.2373,1.0225c0.0781,0.3398,0.1445,0.5742,0.1992,0.7031
				c0.0898,0.2109,0.1914,0.3164,0.3047,0.3164c0.1055,0,0.2129-0.0586,0.3223-0.1758s0.2734-0.3281,0.4922-0.6328l0.1641,0.0996
				c-0.168,0.3047-0.3418,0.5645-0.5215,0.7793c-0.3398,0.4062-0.6641,0.6094-0.9727,0.6094c-0.1953,0-0.3496-0.0938-0.4629-0.2812
				c-0.0664-0.1094-0.1309-0.2891-0.1934-0.5391l-0.3633-1.4473l-1.2012,1.5762c-0.2344,0.2734-0.415,0.457-0.542,0.5508
				s-0.2842,0.1406-0.4717,0.1406c-0.25,0-0.4199-0.0781-0.5098-0.2344c-0.0508-0.082-0.0762-0.1797-0.0762-0.293
				C76.5828,175.4077,76.6297,175.2993,76.7235,175.2349z"/>
		</g>
		<g>
			<path d="M83.8597,174.3296c0.0015,0.0059,0.002,0.0186,0.002,0.0391v4.0781c0,0.1738,0.0464,0.2852,0.1396,0.332
				c0.0928,0.0479,0.2666,0.0762,0.521,0.085v0.0947h-1.9141v-0.1016c0.2729-0.0137,0.4517-0.0508,0.5352-0.1123
				c0.0835-0.0605,0.1255-0.1924,0.1255-0.3955v-3.1367c0-0.1084-0.0137-0.1914-0.0405-0.248
				c-0.0273-0.0557-0.0859-0.084-0.1763-0.084c-0.0591,0-0.1353,0.0156-0.229,0.0488c-0.0938,0.0322-0.1812,0.0674-0.2622,0.1035
				v-0.0947l1.2432-0.6338h0.0405C83.8538,174.3159,83.8587,174.3237,83.8597,174.3296z"/>
		</g>
	</g>
	<g>
		<g>
			<path d="M98.39,175.2349c0.0938-0.0645,0.1895-0.0967,0.2871-0.0967c0.0469,0,0.0938,0.0068,0.1406,0.0205
				s0.0977,0.0361,0.1523,0.0674l0.2051,0.1113c0.0273,0.0156,0.0537,0.0264,0.0791,0.0322s0.0537,0.0088,0.085,0.0088
				c0.0977,0,0.1729-0.0244,0.2256-0.0732s0.1885-0.2197,0.4072-0.5127c0.1445-0.1914,0.4727-0.6582,0.9844-1.4004
				c0-0.0273-0.0449-0.2373-0.1348-0.6299s-0.1719-0.7256-0.2461-0.999c-0.0742-0.2773-0.1406-0.46-0.1992-0.5479
				s-0.168-0.1318-0.3281-0.1318c-0.0547,0-0.1621,0.0195-0.3223,0.0586c-0.1016,0.0234-0.2109,0.0508-0.3281,0.082l-0.0527-0.1816
				l0.6504-0.2227c0.168-0.0586,0.3232-0.1055,0.4658-0.1406s0.2646-0.0527,0.3662-0.0527c0.1641,0,0.2871,0.0488,0.3691,0.1465
				c0.125,0.1562,0.2305,0.4648,0.3164,0.9258l0.123,0.668c0.3516-0.5391,0.625-0.918,0.8203-1.1367
				c0.1758-0.1992,0.3418-0.3477,0.498-0.4453s0.3047-0.1465,0.4453-0.1465c0.1328,0,0.2402,0.0195,0.3223,0.0586
				c0.1484,0.0703,0.2227,0.2031,0.2227,0.3984c0,0.1328-0.0371,0.2363-0.1113,0.3105s-0.1699,0.1113-0.2871,0.1113
				c-0.043,0-0.084-0.0049-0.123-0.0146s-0.0801-0.0244-0.123-0.0439l-0.1523-0.0645c-0.043-0.0195-0.084-0.0361-0.123-0.0498
				s-0.0684-0.0205-0.0879-0.0205c-0.1758,0-0.4199,0.2275-0.7324,0.6826s-0.4688,0.7178-0.4688,0.7881
				c0,0.0586,0.0361,0.249,0.1084,0.5713s0.1514,0.6631,0.2373,1.0225c0.0781,0.3398,0.1445,0.5742,0.1992,0.7031
				c0.0898,0.2109,0.1914,0.3164,0.3047,0.3164c0.1055,0,0.2129-0.0586,0.3223-0.1758s0.2734-0.3281,0.4922-0.6328l0.1641,0.0996
				c-0.168,0.3047-0.3418,0.5645-0.5215,0.7793c-0.3398,0.4062-0.6641,0.6094-0.9727,0.6094c-0.1953,0-0.3496-0.0938-0.4629-0.2812
				c-0.0664-0.1094-0.1309-0.2891-0.1934-0.5391l-0.3633-1.4473l-1.2012,1.5762c-0.2344,0.2734-0.415,0.457-0.542,0.5508
				s-0.2842,0.1406-0.4717,0.1406c-0.25,0-0.4199-0.0781-0.5098-0.2344c-0.0508-0.082-0.0762-0.1797-0.0762-0.293
				C98.2493,175.4077,98.2962,175.2993,98.39,175.2349z"/>
		</g>
		<g>
			<path d="M104.2586,178.8804c0.8267-0.8574,1.3877-1.4873,1.6836-1.8887s0.4438-0.793,0.4438-1.1748
				c0-0.333-0.0903-0.5879-0.271-0.7627s-0.3965-0.2627-0.647-0.2627c-0.3096,0-0.5601,0.1133-0.752,0.3389
				c-0.1064,0.124-0.208,0.3145-0.3052,0.5723l-0.1455-0.0312c0.1128-0.5186,0.3042-0.8789,0.5742-1.0811
				s0.5596-0.3027,0.8687-0.3027c0.3818,0,0.6904,0.1201,0.9268,0.3604c0.2358,0.2402,0.354,0.5342,0.354,0.8818
				c0,0.3701-0.1279,0.7266-0.3828,1.0693c-0.2554,0.3428-0.8101,0.9531-1.6641,1.8311h1.5552c0.2168,0,0.3696-0.0264,0.4575-0.0781
				c0.0884-0.0518,0.1875-0.1777,0.2983-0.3789l0.0879,0.041l-0.376,0.9443h-2.7065V178.8804z"/>
		</g>
	</g>
	<g>
		<g>
			<path d="M141.057,175.2349c0.0938-0.0645,0.1895-0.0967,0.2871-0.0967c0.0469,0,0.0938,0.0068,0.1406,0.0205
				s0.0977,0.0361,0.1523,0.0674l0.2051,0.1113c0.0273,0.0156,0.0537,0.0264,0.0791,0.0322s0.0537,0.0088,0.085,0.0088
				c0.0977,0,0.1729-0.0244,0.2256-0.0732s0.1885-0.2197,0.4072-0.5127c0.1445-0.1914,0.4727-0.6582,0.9844-1.4004
				c0-0.0273-0.0449-0.2373-0.1348-0.6299s-0.1719-0.7256-0.2461-0.999c-0.0742-0.2773-0.1406-0.46-0.1992-0.5479
				s-0.168-0.1318-0.3281-0.1318c-0.0547,0-0.1621,0.0195-0.3223,0.0586c-0.1016,0.0234-0.2109,0.0508-0.3281,0.082l-0.0527-0.1816
				l0.6504-0.2227c0.168-0.0586,0.3232-0.1055,0.4658-0.1406s0.2646-0.0527,0.3662-0.0527c0.1641,0,0.2871,0.0488,0.3691,0.1465
				c0.125,0.1562,0.2305,0.4648,0.3164,0.9258l0.123,0.668c0.3516-0.5391,0.625-0.918,0.8203-1.1367
				c0.1758-0.1992,0.3418-0.3477,0.498-0.4453s0.3047-0.1465,0.4453-0.1465c0.1328,0,0.2402,0.0195,0.3223,0.0586
				c0.1484,0.0703,0.2227,0.2031,0.2227,0.3984c0,0.1328-0.0371,0.2363-0.1113,0.3105s-0.1699,0.1113-0.2871,0.1113
				c-0.043,0-0.084-0.0049-0.123-0.0146s-0.0801-0.0244-0.123-0.0439l-0.1523-0.0645c-0.043-0.0195-0.084-0.0361-0.123-0.0498
				s-0.0684-0.0205-0.0879-0.0205c-0.1758,0-0.4199,0.2275-0.7324,0.6826s-0.4688,0.7178-0.4688,0.7881
				c0,0.0586,0.0361,0.249,0.1084,0.5713s0.1514,0.6631,0.2373,1.0225c0.0781,0.3398,0.1445,0.5742,0.1992,0.7031
				c0.0898,0.2109,0.1914,0.3164,0.3047,0.3164c0.1055,0,0.2129-0.0586,0.3223-0.1758s0.2734-0.3281,0.4922-0.6328l0.1641,0.0996
				c-0.168,0.3047-0.3418,0.5645-0.5215,0.7793c-0.3398,0.4062-0.6641,0.6094-0.9727,0.6094c-0.1953,0-0.3496-0.0938-0.4629-0.2812
				c-0.0664-0.1094-0.1309-0.2891-0.1934-0.5391l-0.3633-1.4473l-1.2012,1.5762c-0.2344,0.2734-0.415,0.457-0.542,0.5508
				s-0.2842,0.1406-0.4717,0.1406c-0.25,0-0.4199-0.0781-0.5098-0.2344c-0.0508-0.082-0.0762-0.1797-0.0762-0.293
				C140.9163,175.4077,140.9632,175.2993,141.057,175.2349z"/>
		</g>
		<g>
			<path d="M148.1361,175.8882c0.0117,0.0078,0.0166,0.0176,0.0146,0.0283l-0.6836,2.4189
				c-0.0322,0.1289-0.0479,0.2051-0.0479,0.2305c0,0.0332,0.0068,0.0625,0.0205,0.0879c0.0117,0.0273,0.04,0.04,0.085,0.04
				c0.0762,0,0.1787-0.0664,0.3047-0.1992c0.0742-0.0791,0.166-0.1924,0.2744-0.3389l0.0879,0.0742l-0.0332,0.0479
				c-0.1699,0.2373-0.3096,0.4072-0.4209,0.5117c-0.1738,0.1621-0.3428,0.2432-0.5078,0.2432c-0.0967,0-0.1777-0.04-0.2422-0.1221
				c-0.0645-0.0811-0.0967-0.1768-0.0967-0.2871c0-0.0654,0.0049-0.123,0.0137-0.1719c0.0088-0.0479,0.0264-0.1201,0.0508-0.2148
				l0.4824-1.7412c0.0068-0.0273,0.0127-0.0518,0.0166-0.0742c0.0049-0.0225,0.0068-0.0449,0.0068-0.0674
				c0-0.082-0.0293-0.1318-0.0898-0.1514c-0.0596-0.0186-0.1777-0.0283-0.3535-0.0283v-0.1123
				c0.1865-0.0225,0.3203-0.04,0.4023-0.0527c0.0811-0.0117,0.1641-0.0254,0.2471-0.0381c0.1074-0.0186,0.209-0.0391,0.3057-0.0615
				C148.0687,175.8872,148.1234,175.8804,148.1361,175.8882z M147.8158,175.0396c-0.0654-0.0723-0.0977-0.1592-0.0977-0.2607
				c0-0.1045,0.0322-0.1924,0.0977-0.2646s0.1445-0.1084,0.2373-0.1084s0.1719,0.0361,0.2393,0.1084
				c0.0664,0.0723,0.0996,0.1602,0.0996,0.2646c0,0.1035-0.0332,0.1914-0.0996,0.2617c-0.0674,0.0713-0.1465,0.1074-0.2393,0.1074
				S147.8812,175.1118,147.8158,175.0396z"/>
		</g>
		<rect x="148.9217" y="176.9601" width="3.6347" height="0.3828"/>
		<g>
			<path d="M154.474,174.3296c0.002,0.0059,0.002,0.0186,0.002,0.0391v4.0781c0,0.1738,0.0469,0.2852,0.1396,0.332
				c0.0928,0.0479,0.2666,0.0762,0.5215,0.085v0.0947h-1.9141v-0.1016c0.2725-0.0137,0.4512-0.0508,0.5352-0.1123
				c0.083-0.0605,0.125-0.1924,0.125-0.3955v-3.1367c0-0.1084-0.0137-0.1914-0.04-0.248c-0.0273-0.0557-0.0859-0.084-0.1768-0.084
				c-0.0586,0-0.1348,0.0156-0.2285,0.0488c-0.0938,0.0322-0.1816,0.0674-0.2627,0.1035v-0.0947l1.2432-0.6338h0.041
				C154.4681,174.3159,154.473,174.3237,154.474,174.3296z"/>
		</g>
	</g>
	<g>
		<g>
			<path d="M162.39,175.3433c0.0938-0.0645,0.1895-0.0967,0.2871-0.0967c0.0469,0,0.0938,0.0068,0.1406,0.0205
				s0.0977,0.0361,0.1523,0.0674l0.2051,0.1113c0.0273,0.0156,0.0537,0.0264,0.0791,0.0322s0.0537,0.0088,0.085,0.0088
				c0.0977,0,0.1729-0.0244,0.2256-0.0732s0.1885-0.2197,0.4072-0.5127c0.1445-0.1914,0.4727-0.6582,0.9844-1.4004
				c0-0.0273-0.0449-0.2373-0.1348-0.6299s-0.1719-0.7256-0.2461-0.999c-0.0742-0.2773-0.1406-0.46-0.1992-0.5479
				s-0.168-0.1318-0.3281-0.1318c-0.0547,0-0.1621,0.0195-0.3223,0.0586c-0.1016,0.0234-0.2109,0.0508-0.3281,0.082l-0.0527-0.1816
				l0.6504-0.2227c0.168-0.0586,0.3232-0.1055,0.4658-0.1406s0.2646-0.0527,0.3662-0.0527c0.1641,0,0.2871,0.0488,0.3691,0.1465
				c0.125,0.1562,0.2305,0.4648,0.3164,0.9258l0.123,0.668c0.3516-0.5391,0.625-0.918,0.8203-1.1367
				c0.1758-0.1992,0.3418-0.3477,0.498-0.4453s0.3047-0.1465,0.4453-0.1465c0.1328,0,0.2402,0.0195,0.3223,0.0586
				c0.1484,0.0703,0.2227,0.2031,0.2227,0.3984c0,0.1328-0.0371,0.2363-0.1113,0.3105s-0.1699,0.1113-0.2871,0.1113
				c-0.043,0-0.084-0.0049-0.123-0.0146s-0.0801-0.0244-0.123-0.0439l-0.1523-0.0645c-0.043-0.0195-0.084-0.0361-0.123-0.0498
				s-0.0684-0.0205-0.0879-0.0205c-0.1758,0-0.4199,0.2275-0.7324,0.6826s-0.4688,0.7178-0.4688,0.7881
				c0,0.0586,0.0361,0.249,0.1084,0.5713s0.1514,0.6631,0.2373,1.0225c0.0781,0.3398,0.1445,0.5742,0.1992,0.7031
				c0.0898,0.2109,0.1914,0.3164,0.3047,0.3164c0.1055,0,0.2129-0.0586,0.3223-0.1758s0.2734-0.3281,0.4922-0.6328l0.1641,0.0996
				c-0.168,0.3047-0.3418,0.5645-0.5215,0.7793c-0.3398,0.4062-0.6641,0.6094-0.9727,0.6094c-0.1953,0-0.3496-0.0938-0.4629-0.2812
				c-0.0664-0.1094-0.1309-0.2891-0.1934-0.5391l-0.3633-1.4473l-1.2012,1.5762c-0.2344,0.2734-0.415,0.457-0.542,0.5508
				s-0.2842,0.1406-0.4717,0.1406c-0.25,0-0.4199-0.0781-0.5098-0.2344c-0.0508-0.082-0.0762-0.1797-0.0762-0.293
				C162.2493,175.5161,162.2962,175.4077,162.39,175.3433z"/>
		</g>
		<g>
			<path d="M169.4691,175.9966c0.0127,0.0078,0.0166,0.0176,0.0146,0.0283l-0.6836,2.4189
				c-0.0312,0.1289-0.0469,0.2051-0.0469,0.2305c0,0.0332,0.0059,0.0625,0.0195,0.0879c0.0117,0.0273,0.04,0.04,0.085,0.04
				c0.0771,0,0.1787-0.0664,0.3057-0.1992c0.0742-0.0791,0.166-0.1924,0.2734-0.3389l0.0879,0.0742l-0.0332,0.0479
				c-0.1699,0.2373-0.3096,0.4072-0.4199,0.5117c-0.1738,0.1621-0.3438,0.2432-0.5078,0.2432c-0.0977,0-0.1787-0.04-0.2422-0.1221
				c-0.0645-0.0811-0.0977-0.1768-0.0977-0.2871c0-0.0654,0.0049-0.123,0.0137-0.1719c0.0098-0.0479,0.0264-0.1201,0.0508-0.2148
				l0.4824-1.7412c0.0068-0.0273,0.0127-0.0518,0.0176-0.0742c0.0039-0.0225,0.0059-0.0449,0.0059-0.0674
				c0-0.082-0.0293-0.1318-0.0898-0.1514c-0.0586-0.0186-0.1777-0.0283-0.3535-0.0283v-0.1123
				c0.1865-0.0225,0.3203-0.04,0.4023-0.0527c0.082-0.0117,0.1641-0.0254,0.2471-0.0381c0.1074-0.0186,0.21-0.0391,0.3057-0.0615
				S169.4564,175.9888,169.4691,175.9966z M169.1497,175.1479c-0.0664-0.0723-0.0986-0.1592-0.0986-0.2607
				c0-0.1045,0.0322-0.1924,0.0986-0.2646c0.0645-0.0723,0.1445-0.1084,0.2363-0.1084c0.0928,0,0.1719,0.0361,0.2393,0.1084
				c0.0664,0.0723,0.0996,0.1602,0.0996,0.2646c0,0.1035-0.0332,0.1914-0.0996,0.2617c-0.0674,0.0713-0.1465,0.1074-0.2393,0.1074
				C169.2943,175.2563,169.2142,175.2202,169.1497,175.1479z"/>
		</g>
	</g>
	<g>
		<g>
			<path d="M192.39,175.2349c0.0938-0.0645,0.1895-0.0967,0.2871-0.0967c0.0469,0,0.0938,0.0068,0.1406,0.0205
				s0.0977,0.0361,0.1523,0.0674l0.2051,0.1113c0.0273,0.0156,0.0537,0.0264,0.0791,0.0322s0.0537,0.0088,0.085,0.0088
				c0.0977,0,0.1729-0.0244,0.2256-0.0732s0.1885-0.2197,0.4072-0.5127c0.1445-0.1914,0.4727-0.6582,0.9844-1.4004
				c0-0.0273-0.0449-0.2373-0.1348-0.6299s-0.1719-0.7256-0.2461-0.999c-0.0742-0.2773-0.1406-0.46-0.1992-0.5479
				s-0.168-0.1318-0.3281-0.1318c-0.0547,0-0.1621,0.0195-0.3223,0.0586c-0.1016,0.0234-0.2109,0.0508-0.3281,0.082l-0.0527-0.1816
				l0.6504-0.2227c0.168-0.0586,0.3232-0.1055,0.4658-0.1406s0.2646-0.0527,0.3662-0.0527c0.1641,0,0.2871,0.0488,0.3691,0.1465
				c0.125,0.1562,0.2305,0.4648,0.3164,0.9258l0.123,0.668c0.3516-0.5391,0.625-0.918,0.8203-1.1367
				c0.1758-0.1992,0.3418-0.3477,0.498-0.4453s0.3047-0.1465,0.4453-0.1465c0.1328,0,0.2402,0.0195,0.3223,0.0586
				c0.1484,0.0703,0.2227,0.2031,0.2227,0.3984c0,0.1328-0.0371,0.2363-0.1113,0.3105s-0.1699,0.1113-0.2871,0.1113
				c-0.043,0-0.084-0.0049-0.123-0.0146s-0.0801-0.0244-0.123-0.0439l-0.1523-0.0645c-0.043-0.0195-0.084-0.0361-0.123-0.0498
				s-0.0684-0.0205-0.0879-0.0205c-0.1758,0-0.4199,0.2275-0.7324,0.6826s-0.4688,0.7178-0.4688,0.7881
				c0,0.0586,0.0361,0.249,0.1084,0.5713s0.1514,0.6631,0.2373,1.0225c0.0781,0.3398,0.1445,0.5742,0.1992,0.7031
				c0.0898,0.2109,0.1914,0.3164,0.3047,0.3164c0.1055,0,0.2129-0.0586,0.3223-0.1758s0.2734-0.3281,0.4922-0.6328l0.1641,0.0996
				c-0.168,0.3047-0.3418,0.5645-0.5215,0.7793c-0.3398,0.4062-0.6641,0.6094-0.9727,0.6094c-0.1953,0-0.3496-0.0938-0.4629-0.2812
				c-0.0664-0.1094-0.1309-0.2891-0.1934-0.5391l-0.3633-1.4473l-1.2012,1.5762c-0.2344,0.2734-0.415,0.457-0.542,0.5508
				s-0.2842,0.1406-0.4717,0.1406c-0.25,0-0.4199-0.0781-0.5098-0.2344c-0.0508-0.082-0.0762-0.1797-0.0762-0.293
				C192.2493,175.4077,192.2962,175.2993,192.39,175.2349z"/>
		</g>
		<g>
			<path d="M198.1771,178.9585l0.5801-2.0938c0.0498-0.1768,0.0781-0.2842,0.0859-0.3213c0.0078-0.0381,0.0117-0.0781,0.0117-0.1211
				c0-0.0654-0.0176-0.1172-0.0547-0.1553c-0.0381-0.0371-0.1113-0.0557-0.2188-0.0557c-0.0273,0-0.0547,0.002-0.0801,0.0049
				c-0.0254,0.0039-0.0547,0.0078-0.0859,0.0117v-0.1113c0.1455-0.0225,0.249-0.04,0.3105-0.0508
				c0.0625-0.0117,0.1289-0.0254,0.2012-0.041l0.6016-0.1318c0.0137,0.0088,0.0225,0.0186,0.0273,0.0303l-0.4492,1.457
				c0.2773-0.4229,0.5098-0.7363,0.6953-0.9424c0.3281-0.3633,0.6211-0.5449,0.8809-0.5449c0.0996,0,0.1855,0.0186,0.2588,0.0576
				c0.1377,0.0742,0.208,0.209,0.208,0.4033c0,0.0537-0.0059,0.1104-0.0176,0.1689s-0.0254,0.1221-0.0439,0.1895l-0.4463,1.623
				c-0.0078,0.0332-0.0186,0.0752-0.0293,0.123c-0.0117,0.0488-0.0176,0.083-0.0176,0.1035c0,0.0342,0.0078,0.0645,0.0234,0.0918
				s0.041,0.04,0.0762,0.04c0.0566,0,0.1211-0.0342,0.1953-0.1025c0.0723-0.0693,0.1934-0.2168,0.3594-0.4424l0.0986,0.0879
				c-0.1816,0.251-0.3252,0.4268-0.4316,0.5283c-0.1816,0.1787-0.3555,0.2676-0.5215,0.2676c-0.0752,0-0.1475-0.0254-0.2178-0.0762
				s-0.1055-0.1426-0.1055-0.2754c0-0.0391,0.0039-0.0791,0.0088-0.1221c0.0059-0.043,0.0127-0.0801,0.0225-0.1123l0.4316-1.6465
				c0.0234-0.0898,0.0381-0.1641,0.0459-0.2217s0.0117-0.0986,0.0117-0.123c0-0.0547-0.0127-0.1016-0.0391-0.1406
				c-0.0264-0.04-0.0723-0.0596-0.1377-0.0596c-0.1719,0-0.3887,0.1533-0.6484,0.46c-0.1543,0.1826-0.3096,0.4004-0.4668,0.6533
				c-0.1191,0.1963-0.2109,0.3877-0.2793,0.5732c-0.0684,0.1865-0.1758,0.5254-0.3232,1.0166H198.1771z"/>
		</g>
		<rect x="201.8487" y="176.9599" width="3.6347" height="0.3828"/>
		<g>
			<path d="M207.4017,174.3296c0.001,0.0059,0.002,0.0186,0.002,0.0391v4.0781c0,0.1738,0.0459,0.2852,0.1387,0.332
				c0.0938,0.0479,0.2676,0.0762,0.5215,0.085v0.0947h-1.9141v-0.1016c0.2734-0.0137,0.4512-0.0508,0.5352-0.1123
				c0.084-0.0605,0.125-0.1924,0.125-0.3955v-3.1367c0-0.1084-0.0137-0.1914-0.04-0.248c-0.0273-0.0557-0.0859-0.084-0.1768-0.084
				c-0.0586,0-0.1348,0.0156-0.2285,0.0488c-0.0938,0.0322-0.1816,0.0674-0.2617,0.1035v-0.0947l1.2422-0.6338h0.041
				C207.3958,174.3159,207.3997,174.3237,207.4017,174.3296z"/>
		</g>
	</g>
	<g>
		<path d="M208.5809,186.0902c0.043,0.0157,0.0605,0.0234,0.0527,0.0234l-0.0249,0.1934c-0.1592,0.0586-0.3472,0.1387-0.564,0.2402
			c-0.128,0.0742-0.2124,0.1934-0.2534,0.3574c-0.0098,0.0391-0.0132,0.0996-0.0103,0.1816
			c-0.002,0.1016,0.0503,0.1816,0.1567,0.2402c0.0976,0.0782,0.2173,0.123,0.3589,0.1348l0.7354-0.4805
			c0.2383-0.1562,0.4843-0.2812,0.7383-0.375c0.2246-0.0703,0.4307-0.1055,0.6182-0.1055c0.1289,0,0.2197,0.0352,0.2725,0.1055
			c0.0517,0.0742,0.0659,0.1582,0.0425,0.252c-0.0146,0.0586-0.0425,0.123-0.0835,0.1934
			c-0.0469,0.0782-0.1382,0.1699-0.2739,0.2754c-0.1241,0.1055-0.2905,0.2012-0.4995,0.2871
			c-0.1885,0.082-0.3677,0.1426-0.5376,0.1816c-0.2032,0.0469-0.4907,0.0879-0.8628,0.123
			c-0.1963,0.1133-0.397,0.2598-0.6021,0.4395c-0.1788,0.168-0.2993,0.377-0.3618,0.627c-0.083,0.3321,0.0527,0.6719,0.4072,1.0195
			c0.2988-0.1328,0.5708-0.2441,0.8159-0.334c0.1748-0.0586,0.3627-0.1074,0.564-0.1465c0.1894-0.0234,0.3681-0.0352,0.5361-0.0352
			c0.293,0,0.497,0.0352,0.6123,0.1055c0.1162,0.082,0.1587,0.1856,0.1274,0.3105c-0.0166,0.0665-0.0601,0.1387-0.1304,0.2168
			c-0.0723,0.1016-0.2046,0.1856-0.397,0.252c-0.1885,0.082-0.3931,0.1348-0.6138,0.1582c-0.209,0.0234-0.3877,0.0352-0.5361,0.0352
			c-0.2383,0-0.4346-0.0195-0.5889-0.0586c-0.0879-0.0234-0.1532-0.04-0.1956-0.0498c-0.0425-0.0097-0.0965-0.0244-0.1619-0.0439
			c-0.417,0.2149-0.7862,0.4415-1.1074,0.6797c-0.3145,0.2422-0.5347,0.498-0.6606,0.7676
			c-0.1348,0.2891-0.2139,0.4649-0.2373,0.5273c-0.045,0.1172-0.0688,0.1816-0.0718,0.1934
			c-0.043,0.1719-0.0455,0.4005-0.0073,0.6855c0.0449,0.2891,0.1757,0.5001,0.3926,0.6328
			c0.2041,0.1523,0.4702,0.2285,0.7983,0.2285l1.3638,0.0527c0.3203,0,0.5566,0.0157,0.709,0.0469
			c0.1748,0.0352,0.3256,0.1192,0.4526,0.252c0.1299,0.1368,0.2207,0.3203,0.2725,0.5508c0.0449,0.2422,0.0318,0.5058-0.0396,0.791
			c-0.0361,0.1445-0.1197,0.3457-0.2505,0.6035c-0.1162,0.2304-0.293,0.4609-0.5303,0.6914
			c-0.2598,0.2578-0.4639,0.4336-0.6123,0.5273c-0.168,0.1093-0.3413,0.1934-0.52,0.252c-0.1709,0.0586-0.3463,0.0879-0.5259,0.0879
			c-0.168,0-0.3086-0.0157-0.4219-0.0469c-0.1328-0.0469-0.2271-0.0996-0.2827-0.1582c-0.0713-0.0742-0.1128-0.1504-0.1245-0.2285
			c-0.0166-0.0899-0.0151-0.1739,0.0044-0.252c0.0293-0.1172,0.0942-0.2207,0.1948-0.3105
			c0.1103-0.0977,0.2436-0.1465,0.3999-0.1465h0.1406l0.772,0.0996c0.2656,0,0.4917-0.0606,0.6782-0.1816
			c0.2011-0.1328,0.3394-0.3496,0.4146-0.6504c0.082-0.3281,0.039-0.5391-0.1289-0.6328c-0.167-0.0977-0.3873-0.1465-0.6606-0.1465
			c-0.2305,0-0.4424,0.0038-0.6357,0.0117c-0.1934,0.0078-0.3994,0.0117-0.6182,0.0117c-0.6524,0-1.1041-0.1152-1.355-0.3457
			c-0.25-0.2344-0.4097-0.4863-0.479-0.7559c-0.085-0.2382-0.1226-0.455-0.1128-0.6504c0.0077-0.2031,0.0161-0.3378,0.0249-0.4043
			c0.0087-0.0664,0.0278-0.1582,0.0571-0.2754c0.1035-0.414,0.2866-0.8105,0.5493-1.1895c0.2539-0.3593,0.4575-0.6113,0.6108-0.7559
			c0.1132-0.1093,0.4496-0.3535,1.0093-0.7324c-0.1719-0.2812-0.2779-0.5136-0.3179-0.6973
			c-0.0479-0.1836-0.0488-0.3671-0.0029-0.5508c0.0254-0.1015,0.0752-0.2539,0.1494-0.457
			c0.0586-0.1875,0.2514-0.4121,0.5786-0.6738c-0.0391-0.0156-0.1016-0.039-0.1875-0.0703
			c-0.086-0.0312-0.1485-0.0547-0.1875-0.0703c-0.1348-0.0859-0.2178-0.1992-0.249-0.3398c-0.0518-0.121-0.0601-0.252-0.0249-0.3926
			c0.0469-0.1875,0.1464-0.3437,0.2988-0.4688c0.1308-0.1172,0.3013-0.2206,0.5112-0.3105c0.1729-0.082,0.3472-0.123,0.5229-0.123
			H208.5809L208.5809,186.0902z"/>
		<g>
			<path d="M210.7279,198.2837l0.5801-2.0938c0.0498-0.1768,0.0781-0.2842,0.0859-0.3213c0.0078-0.0381,0.0117-0.0781,0.0117-0.1211
				c0-0.0654-0.0176-0.1172-0.0547-0.1553c-0.0381-0.0371-0.1113-0.0557-0.2188-0.0557c-0.0273,0-0.0547,0.002-0.0801,0.0049
				c-0.0254,0.0039-0.0547,0.0078-0.0859,0.0117v-0.1113c0.1455-0.0225,0.249-0.04,0.3105-0.0508
				c0.0625-0.0117,0.1289-0.0254,0.2012-0.041l0.6016-0.1318c0.0137,0.0088,0.0225,0.0186,0.0273,0.0303l-0.4492,1.457
				c0.2773-0.4229,0.5098-0.7363,0.6953-0.9424c0.3281-0.3633,0.6211-0.5449,0.8809-0.5449c0.0996,0,0.1855,0.0186,0.2588,0.0576
				c0.1377,0.0742,0.208,0.209,0.208,0.4033c0,0.0537-0.0059,0.1104-0.0176,0.1689s-0.0254,0.1221-0.0439,0.1895l-0.4463,1.623
				c-0.0078,0.0332-0.0186,0.0752-0.0293,0.123c-0.0117,0.0488-0.0176,0.083-0.0176,0.1035c0,0.0342,0.0078,0.0645,0.0234,0.0918
				s0.041,0.04,0.0762,0.04c0.0566,0,0.1211-0.0342,0.1953-0.1025c0.0723-0.0693,0.1934-0.2168,0.3594-0.4424l0.0986,0.0879
				c-0.1816,0.251-0.3252,0.4268-0.4316,0.5283c-0.1816,0.1787-0.3555,0.2676-0.5215,0.2676c-0.0752,0-0.1475-0.0254-0.2178-0.0762
				s-0.1055-0.1426-0.1055-0.2754c0-0.0391,0.0039-0.0791,0.0088-0.1221c0.0059-0.043,0.0127-0.0801,0.0225-0.1123l0.4316-1.6465
				c0.0234-0.0898,0.0381-0.1641,0.0459-0.2217s0.0117-0.0986,0.0117-0.123c0-0.0547-0.0127-0.1016-0.0391-0.1406
				c-0.0264-0.04-0.0723-0.0596-0.1377-0.0596c-0.1719,0-0.3887,0.1533-0.6484,0.46c-0.1543,0.1826-0.3096,0.4004-0.4668,0.6533
				c-0.1191,0.1963-0.2109,0.3877-0.2793,0.5732c-0.0684,0.1865-0.1758,0.5254-0.3232,1.0166H210.7279z"/>
		</g>
	</g>
	<g>
		<path d="M155.8348,186.0905c0.043,0.0157,0.0605,0.0234,0.0527,0.0234l-0.0249,0.1934c-0.1592,0.0586-0.3472,0.1387-0.564,0.2402
			c-0.128,0.0742-0.2124,0.1934-0.2534,0.3574c-0.0098,0.0391-0.0132,0.0996-0.0103,0.1816
			c-0.002,0.1016,0.0503,0.1816,0.1567,0.2402c0.0976,0.0782,0.2173,0.123,0.3589,0.1348l0.7354-0.4805
			c0.2383-0.1562,0.4843-0.2812,0.7383-0.375c0.2246-0.0703,0.4307-0.1055,0.6182-0.1055c0.1289,0,0.2197,0.0352,0.2725,0.1055
			c0.0517,0.0742,0.0659,0.1582,0.0425,0.252c-0.0146,0.0586-0.0425,0.123-0.0835,0.1934
			c-0.0469,0.0782-0.1382,0.1699-0.2739,0.2754c-0.1241,0.1055-0.2905,0.2012-0.4995,0.2871
			c-0.1885,0.082-0.3677,0.1426-0.5376,0.1816c-0.2032,0.0469-0.4907,0.0879-0.8628,0.123
			c-0.1963,0.1133-0.397,0.2598-0.6021,0.4395c-0.1788,0.168-0.2993,0.377-0.3618,0.627c-0.083,0.3321,0.0527,0.6719,0.4072,1.0195
			c0.2988-0.1328,0.5708-0.2441,0.8159-0.334c0.1748-0.0586,0.3627-0.1074,0.564-0.1465c0.1894-0.0234,0.3681-0.0352,0.5361-0.0352
			c0.293,0,0.497,0.0352,0.6123,0.1055c0.1162,0.082,0.1587,0.1856,0.1274,0.3105c-0.0166,0.0665-0.0601,0.1387-0.1304,0.2168
			c-0.0723,0.1016-0.2046,0.1856-0.397,0.252c-0.1885,0.082-0.3931,0.1348-0.6138,0.1582c-0.209,0.0234-0.3877,0.0352-0.5361,0.0352
			c-0.2383,0-0.4346-0.0195-0.5889-0.0586c-0.0879-0.0234-0.1532-0.04-0.1956-0.0498c-0.0425-0.0097-0.0965-0.0244-0.1619-0.0439
			c-0.417,0.2149-0.7862,0.4415-1.1074,0.6797c-0.3145,0.2422-0.5347,0.498-0.6606,0.7676
			c-0.1348,0.2891-0.2139,0.4649-0.2373,0.5273c-0.045,0.1172-0.0688,0.1816-0.0718,0.1934
			c-0.043,0.1719-0.0455,0.4005-0.0073,0.6855c0.0449,0.2891,0.1757,0.5001,0.3926,0.6328
			c0.2041,0.1523,0.4702,0.2285,0.7983,0.2285l1.3638,0.0527c0.3203,0,0.5566,0.0157,0.709,0.0469
			c0.1748,0.0352,0.3256,0.1192,0.4526,0.252c0.1299,0.1368,0.2207,0.3203,0.2725,0.5508c0.0449,0.2422,0.0318,0.5058-0.0396,0.791
			c-0.0361,0.1445-0.1197,0.3457-0.2505,0.6035c-0.1162,0.2304-0.293,0.4609-0.5303,0.6914
			c-0.2598,0.2578-0.4639,0.4336-0.6123,0.5273c-0.168,0.1093-0.3413,0.1934-0.52,0.252c-0.1709,0.0586-0.3463,0.0879-0.5259,0.0879
			c-0.168,0-0.3086-0.0157-0.4219-0.0469c-0.1328-0.0469-0.2271-0.0996-0.2827-0.1582c-0.0713-0.0742-0.1128-0.1504-0.1245-0.2285
			c-0.0166-0.0899-0.0151-0.1739,0.0044-0.252c0.0293-0.1172,0.0942-0.2207,0.1948-0.3105
			c0.1103-0.0977,0.2436-0.1465,0.3999-0.1465h0.1406l0.772,0.0996c0.2656,0,0.4917-0.0606,0.6782-0.1816
			c0.2011-0.1328,0.3394-0.3496,0.4146-0.6504c0.082-0.3281,0.039-0.5391-0.1289-0.6328c-0.167-0.0977-0.3873-0.1465-0.6606-0.1465
			c-0.2305,0-0.4424,0.0038-0.6357,0.0117c-0.1934,0.0078-0.3994,0.0117-0.6182,0.0117c-0.6524,0-1.1041-0.1152-1.355-0.3457
			c-0.25-0.2344-0.4097-0.4863-0.479-0.7559c-0.085-0.2382-0.1226-0.455-0.1128-0.6504c0.0077-0.2031,0.0161-0.3378,0.0249-0.4043
			c0.0087-0.0664,0.0278-0.1582,0.0571-0.2754c0.1035-0.414,0.2866-0.8105,0.5493-1.1895c0.2539-0.3593,0.4575-0.6113,0.6108-0.7559
			c0.1132-0.1093,0.4496-0.3535,1.0093-0.7324c-0.1719-0.2812-0.2779-0.5136-0.3179-0.6973
			c-0.0479-0.1836-0.0488-0.3671-0.0029-0.5508c0.0254-0.1015,0.0752-0.2539,0.1494-0.457
			c0.0586-0.1875,0.2514-0.4121,0.5786-0.6738c-0.0391-0.0156-0.1016-0.039-0.1875-0.0703
			c-0.086-0.0312-0.1485-0.0547-0.1875-0.0703c-0.1348-0.0859-0.2178-0.1992-0.249-0.3398c-0.0518-0.121-0.0601-0.252-0.0249-0.3926
			c0.0469-0.1875,0.1464-0.3437,0.2988-0.4688c0.1308-0.1172,0.3013-0.2206,0.5112-0.3105c0.1729-0.082,0.3472-0.123,0.5229-0.123
			H155.8348L155.8348,186.0905z"/>
		<g>
			<path d="M159.2738,195.2134c0.0127,0.0078,0.0166,0.0176,0.0146,0.0283l-0.6836,2.4189
				c-0.0312,0.1289-0.0469,0.2051-0.0469,0.2305c0,0.0332,0.0059,0.0625,0.0195,0.0879c0.0117,0.0273,0.04,0.04,0.085,0.04
				c0.0771,0,0.1787-0.0664,0.3057-0.1992c0.0742-0.0791,0.166-0.1924,0.2734-0.3389l0.0879,0.0742l-0.0332,0.0479
				c-0.1699,0.2373-0.3096,0.4072-0.4199,0.5117c-0.1738,0.1621-0.3438,0.2432-0.5078,0.2432c-0.0977,0-0.1787-0.04-0.2422-0.1221
				c-0.0645-0.0811-0.0977-0.1768-0.0977-0.2871c0-0.0654,0.0049-0.123,0.0137-0.1719c0.0098-0.0479,0.0264-0.1201,0.0508-0.2148
				l0.4824-1.7412c0.0068-0.0273,0.0127-0.0518,0.0176-0.0742c0.0039-0.0225,0.0059-0.0449,0.0059-0.0674
				c0-0.082-0.0293-0.1318-0.0898-0.1514c-0.0586-0.0186-0.1777-0.0283-0.3535-0.0283v-0.1123
				c0.1865-0.0225,0.3203-0.04,0.4023-0.0527c0.082-0.0117,0.1641-0.0254,0.2471-0.0381c0.1074-0.0186,0.21-0.0391,0.3057-0.0615
				S159.2611,195.2056,159.2738,195.2134z M158.9544,194.3647c-0.0664-0.0723-0.0986-0.1592-0.0986-0.2607
				c0-0.1045,0.0322-0.1924,0.0986-0.2646c0.0645-0.0723,0.1445-0.1084,0.2363-0.1084c0.0928,0,0.1719,0.0361,0.2393,0.1084
				c0.0664,0.0723,0.0996,0.1602,0.0996,0.2646c0,0.1035-0.0332,0.1914-0.0996,0.2617c-0.0674,0.0713-0.1465,0.1074-0.2393,0.1074
				C159.099,194.4731,159.0189,194.437,158.9544,194.3647z"/>
		</g>
	</g>
	<g>
		<path d="M90.7166,185.9819c0.043,0.0157,0.0605,0.0234,0.0527,0.0234l-0.0249,0.1934c-0.1592,0.0586-0.3472,0.1387-0.564,0.2402
			c-0.128,0.0742-0.2124,0.1934-0.2534,0.3574c-0.0098,0.0391-0.0132,0.0996-0.0103,0.1816
			c-0.002,0.1016,0.0503,0.1816,0.1567,0.2402c0.0976,0.0782,0.2173,0.123,0.3589,0.1348l0.7354-0.4805
			c0.2383-0.1562,0.4843-0.2812,0.7383-0.375c0.2246-0.0703,0.4307-0.1055,0.6182-0.1055c0.1289,0,0.2197,0.0352,0.2725,0.1055
			c0.0518,0.0742,0.0659,0.1582,0.0425,0.252c-0.0146,0.0586-0.0425,0.123-0.0835,0.1934
			c-0.0469,0.0782-0.1382,0.1699-0.2739,0.2754c-0.1241,0.1055-0.2905,0.2012-0.4995,0.2871
			c-0.1885,0.082-0.3677,0.1426-0.5376,0.1816c-0.2032,0.0469-0.4907,0.0879-0.8628,0.123
			c-0.1963,0.1133-0.397,0.2598-0.6021,0.4395c-0.1788,0.168-0.2993,0.377-0.3618,0.627c-0.083,0.3321,0.0527,0.6719,0.4072,1.0195
			c0.2988-0.1328,0.5708-0.2441,0.8159-0.334c0.1748-0.0586,0.3628-0.1074,0.564-0.1465c0.1894-0.0234,0.3681-0.0352,0.5361-0.0352
			c0.293,0,0.497,0.0352,0.6123,0.1055c0.1162,0.082,0.1587,0.1856,0.1274,0.3105c-0.0166,0.0665-0.0601,0.1387-0.1304,0.2168
			c-0.0723,0.1016-0.2046,0.1856-0.397,0.252c-0.1885,0.082-0.3931,0.1348-0.6138,0.1582c-0.209,0.0234-0.3877,0.0352-0.5361,0.0352
			c-0.2383,0-0.4346-0.0195-0.5889-0.0586c-0.0879-0.0234-0.1531-0.04-0.1956-0.0498c-0.0425-0.0097-0.0965-0.0244-0.1619-0.0439
			c-0.417,0.2149-0.7862,0.4415-1.1074,0.6797c-0.3145,0.2422-0.5347,0.498-0.6606,0.7676
			c-0.1348,0.2891-0.2139,0.4649-0.2373,0.5273c-0.045,0.1172-0.0688,0.1816-0.0718,0.1934
			c-0.043,0.1719-0.0455,0.4005-0.0073,0.6855c0.0449,0.2891,0.1757,0.5001,0.3926,0.6328
			c0.2041,0.1523,0.4702,0.2285,0.7983,0.2285l1.3638,0.0527c0.3203,0,0.5566,0.0157,0.709,0.0469
			c0.1748,0.0352,0.3256,0.1192,0.4526,0.252c0.1299,0.1368,0.2207,0.3203,0.2725,0.5508c0.0449,0.2422,0.0317,0.5058-0.0396,0.791
			c-0.0361,0.1445-0.1197,0.3457-0.2505,0.6035c-0.1162,0.2304-0.293,0.4609-0.5303,0.6914
			c-0.2598,0.2578-0.4639,0.4336-0.6123,0.5273c-0.168,0.1093-0.3413,0.1934-0.52,0.252c-0.1709,0.0586-0.3463,0.0879-0.5259,0.0879
			c-0.168,0-0.3086-0.0157-0.4219-0.0469c-0.1328-0.0469-0.2271-0.0996-0.2827-0.1582c-0.0713-0.0742-0.1128-0.1504-0.1245-0.2285
			c-0.0166-0.0899-0.0151-0.1739,0.0044-0.252c0.0293-0.1172,0.0942-0.2207,0.1948-0.3105
			c0.1103-0.0977,0.2436-0.1465,0.3999-0.1465h0.1406l0.772,0.0996c0.2656,0,0.4917-0.0606,0.6782-0.1816
			c0.2011-0.1328,0.3394-0.3496,0.4146-0.6504c0.082-0.3281,0.039-0.5391-0.1289-0.6328c-0.167-0.0977-0.3873-0.1465-0.6606-0.1465
			c-0.2305,0-0.4424,0.0038-0.6357,0.0117c-0.1934,0.0078-0.3994,0.0117-0.6182,0.0117c-0.6524,0-1.1041-0.1152-1.355-0.3457
			c-0.25-0.2344-0.4097-0.4863-0.479-0.7559c-0.085-0.2382-0.1226-0.455-0.1128-0.6504c0.0077-0.2031,0.0161-0.3378,0.0249-0.4043
			c0.0087-0.0664,0.0278-0.1582,0.0571-0.2754c0.1035-0.414,0.2866-0.8105,0.5493-1.1895c0.2539-0.3593,0.4575-0.6113,0.6108-0.7559
			c0.1132-0.1093,0.4496-0.3535,1.0093-0.7324c-0.1719-0.2812-0.2779-0.5136-0.3179-0.6973
			c-0.0479-0.1836-0.0488-0.3671-0.0029-0.5508c0.0254-0.1015,0.0752-0.2539,0.1494-0.457
			c0.0586-0.1875,0.2514-0.4121,0.5786-0.6738c-0.0391-0.0156-0.1016-0.039-0.1875-0.0703
			c-0.0859-0.0312-0.1485-0.0547-0.1875-0.0703c-0.1348-0.0859-0.2178-0.1992-0.249-0.3398
			c-0.0518-0.121-0.0601-0.252-0.0249-0.3926c0.0469-0.1875,0.1464-0.3437,0.2988-0.4688c0.1308-0.1172,0.3013-0.2206,0.5112-0.3105
			c0.1729-0.082,0.3472-0.123,0.5229-0.123H90.7166L90.7166,185.9819z"/>
		<g>
			<path d="M92.9451,198.0972c0.8267-0.8574,1.3877-1.4873,1.6836-1.8887s0.4438-0.793,0.4438-1.1748
				c0-0.333-0.0903-0.5879-0.271-0.7627s-0.3965-0.2627-0.647-0.2627c-0.3096,0-0.5601,0.1133-0.752,0.3389
				c-0.1064,0.124-0.208,0.3145-0.3052,0.5723l-0.1455-0.0312c0.1128-0.5186,0.3042-0.8789,0.5742-1.0811
				s0.5596-0.3027,0.8687-0.3027c0.3818,0,0.6904,0.1201,0.9268,0.3604c0.2358,0.2402,0.354,0.5342,0.354,0.8818
				c0,0.3701-0.1279,0.7266-0.3828,1.0693c-0.2554,0.3428-0.8101,0.9531-1.6641,1.8311h1.5552c0.2168,0,0.3696-0.0264,0.4575-0.0781
				c0.0884-0.0518,0.1875-0.1777,0.2983-0.3789l0.0879,0.041l-0.376,0.9443h-2.7065V198.0972z"/>
		</g>
	</g>
	<g>
		<path d="M69.5462,185.9819c0.043,0.0157,0.0605,0.0234,0.0527,0.0234l-0.0249,0.1934c-0.1592,0.0586-0.3472,0.1387-0.564,0.2402
			c-0.128,0.0742-0.2124,0.1934-0.2534,0.3574c-0.0098,0.0391-0.0132,0.0996-0.0103,0.1816
			c-0.002,0.1016,0.0503,0.1816,0.1567,0.2402c0.0976,0.0782,0.2173,0.123,0.3589,0.1348l0.7354-0.4805
			c0.2383-0.1562,0.4843-0.2812,0.7383-0.375c0.2246-0.0703,0.4307-0.1055,0.6182-0.1055c0.1289,0,0.2197,0.0352,0.2725,0.1055
			c0.0518,0.0742,0.0659,0.1582,0.0425,0.252c-0.0146,0.0586-0.0425,0.123-0.0835,0.1934
			c-0.0469,0.0782-0.1382,0.1699-0.2739,0.2754c-0.1241,0.1055-0.2905,0.2012-0.4995,0.2871
			c-0.1885,0.082-0.3677,0.1426-0.5376,0.1816c-0.2032,0.0469-0.4907,0.0879-0.8628,0.123
			c-0.1963,0.1133-0.397,0.2598-0.6021,0.4395c-0.1788,0.168-0.2993,0.377-0.3618,0.627c-0.083,0.3321,0.0527,0.6719,0.4072,1.0195
			c0.2988-0.1328,0.5708-0.2441,0.8159-0.334c0.1748-0.0586,0.3628-0.1074,0.564-0.1465c0.1894-0.0234,0.3681-0.0352,0.5361-0.0352
			c0.293,0,0.497,0.0352,0.6123,0.1055c0.1162,0.082,0.1587,0.1856,0.1274,0.3105c-0.0166,0.0665-0.0601,0.1387-0.1304,0.2168
			c-0.0723,0.1016-0.2046,0.1856-0.397,0.252c-0.1885,0.082-0.3931,0.1348-0.6138,0.1582c-0.209,0.0234-0.3877,0.0352-0.5361,0.0352
			c-0.2383,0-0.4346-0.0195-0.5889-0.0586c-0.0879-0.0234-0.1531-0.04-0.1956-0.0498c-0.0425-0.0097-0.0965-0.0244-0.1619-0.0439
			c-0.417,0.2149-0.7862,0.4415-1.1074,0.6797c-0.3145,0.2422-0.5347,0.498-0.6606,0.7676
			c-0.1348,0.2891-0.2139,0.4649-0.2373,0.5273c-0.045,0.1172-0.0688,0.1816-0.0718,0.1934
			c-0.043,0.1719-0.0455,0.4005-0.0073,0.6855c0.0449,0.2891,0.1757,0.5001,0.3926,0.6328
			c0.2041,0.1523,0.4702,0.2285,0.7983,0.2285l1.3638,0.0527c0.3203,0,0.5566,0.0157,0.709,0.0469
			c0.1748,0.0352,0.3256,0.1192,0.4526,0.252c0.1299,0.1368,0.2207,0.3203,0.2725,0.5508c0.0449,0.2422,0.0317,0.5058-0.0396,0.791
			c-0.0361,0.1445-0.1197,0.3457-0.2505,0.6035c-0.1162,0.2304-0.293,0.4609-0.5303,0.6914
			c-0.2598,0.2578-0.4639,0.4336-0.6123,0.5273c-0.168,0.1093-0.3413,0.1934-0.52,0.252c-0.1709,0.0586-0.3463,0.0879-0.5259,0.0879
			c-0.168,0-0.3086-0.0157-0.4219-0.0469c-0.1328-0.0469-0.2271-0.0996-0.2827-0.1582c-0.0713-0.0742-0.1128-0.1504-0.1245-0.2285
			c-0.0166-0.0899-0.0151-0.1739,0.0044-0.252c0.0293-0.1172,0.0942-0.2207,0.1948-0.3105
			c0.1103-0.0977,0.2436-0.1465,0.3999-0.1465h0.1406l0.772,0.0996c0.2656,0,0.4917-0.0606,0.6782-0.1816
			c0.2011-0.1328,0.3394-0.3496,0.4146-0.6504c0.082-0.3281,0.039-0.5391-0.1289-0.6328c-0.167-0.0977-0.3873-0.1465-0.6606-0.1465
			c-0.2305,0-0.4424,0.0038-0.6357,0.0117c-0.1934,0.0078-0.3994,0.0117-0.6182,0.0117c-0.6524,0-1.1041-0.1152-1.355-0.3457
			c-0.25-0.2344-0.4097-0.4863-0.479-0.7559c-0.085-0.2382-0.1226-0.455-0.1128-0.6504c0.0077-0.2031,0.0161-0.3378,0.0249-0.4043
			c0.0087-0.0664,0.0278-0.1582,0.0571-0.2754c0.1035-0.414,0.2866-0.8105,0.5493-1.1895c0.2539-0.3593,0.4575-0.6113,0.6108-0.7559
			c0.1132-0.1093,0.4496-0.3535,1.0093-0.7324c-0.1719-0.2812-0.2779-0.5136-0.3179-0.6973
			c-0.0479-0.1836-0.0488-0.3671-0.0029-0.5508c0.0254-0.1015,0.0752-0.2539,0.1494-0.457
			c0.0586-0.1875,0.2514-0.4121,0.5786-0.6738c-0.0391-0.0156-0.1016-0.039-0.1875-0.0703
			c-0.0859-0.0312-0.1485-0.0547-0.1875-0.0703c-0.1348-0.0859-0.2178-0.1992-0.249-0.3398
			c-0.0518-0.121-0.0601-0.252-0.0249-0.3926c0.0469-0.1875,0.1464-0.3437,0.2988-0.4688c0.1308-0.1172,0.3013-0.2206,0.5112-0.3105
			c0.1729-0.082,0.3472-0.123,0.5229-0.123H69.5462L69.5462,185.9819z"/>
		<g>
			<path d="M73.0423,193.5464c0.0015,0.0059,0.002,0.0186,0.002,0.0391v4.0781c0,0.1738,0.0464,0.2852,0.1396,0.332
				c0.0928,0.0479,0.2666,0.0762,0.521,0.085v0.0947h-1.9141v-0.1016c0.2729-0.0137,0.4517-0.0508,0.5352-0.1123
				c0.0835-0.0605,0.1255-0.1924,0.1255-0.3955v-3.1367c0-0.1084-0.0137-0.1914-0.0405-0.248
				c-0.0273-0.0557-0.0859-0.084-0.1763-0.084c-0.0591,0-0.1353,0.0156-0.229,0.0488c-0.0938,0.0322-0.1812,0.0674-0.2622,0.1035
				v-0.0947l1.2432-0.6338h0.0405C73.0365,193.5327,73.0413,193.5405,73.0423,193.5464z"/>
		</g>
	</g>
	<path class="st3" d="M59.6667,82.1252c0,14.1335,0,84.5,0,84.5"/>
	<path class="st3" d="M80.3333,84.0835c0,13.7641,0,82.2917,0,82.2917"/>
	<path class="st3" d="M216.1771,51.0001c-2.6762,0-16,0-16,0"/>
	<path class="st3" d="M200.1771,49.2189c-2.9334,0-17.5379,0-17.5379,0"/>
	<path class="st3" d="M182.6712,55.7483c-2.9078,0-17.3849,0-17.3849,0"/>
	<path class="st3" d="M165.33,66.7719c-3.2935,0-19.6908,0-19.6908,0"/>
	<path class="st3" d="M145.6476,83.2072c-3.8484,0-23.0084,0-23.0084,0"/>
	<path class="st3" d="M122.7886,99.0896c-7.105,0-42.4789,0-42.4789,0"/>
	<path class="st3" d="M80.451,84.0895c-3.4731,0-20.7647,0-20.7647,0"/>
	<path class="st15" d="M50,84.1252c34.6667-12.6667,35,39.3333,74.3333,7C189.6,37.4737,204.6667,39.7918,232,69.7918"/>
</g>
<g id="_x3C_Layer_x3E__1_">
	<g>
	</g>
</g>
</svg>
